<svg width="61" height="62" viewBox="0 0 61 62" fill="none" xmlns="http://www.w3.org/2000/svg">
<rect width="61" height="61" fill="#00757E"/>
<path d="M38.1695 41.556C40.337 39.8603 41.9191 37.5351 42.6957 34.9038C43.4722 32.2724 43.4047 29.4659 42.5023 26.8745C41.6 24.2831 39.9078 22.0359 37.6612 20.4453C35.4145 18.8547 32.7252 18 29.9672 18C27.2093 18 24.5199 18.8547 22.2732 20.4453C20.0266 22.0359 18.3344 24.2831 17.4321 26.8745C16.5298 29.4659 16.4622 32.2724 17.2387 34.9038C18.0153 37.5351 19.5974 39.8603 21.7649 41.556C18.0508 43.0355 14.8102 45.4895 12.3884 48.6563C9.96663 51.8232 8.45454 55.5841 8.01334 59.5382C7.9814 59.8268 8.00696 60.119 8.08856 60.3978C8.17016 60.6767 8.3062 60.9368 8.48892 61.1634C8.85793 61.621 9.39465 61.9142 9.981 61.9783C10.5674 62.0424 9.74779 61.9402 11.3163 61.9791C14.6326 61.9791 11.3163 61.9791 14.6326 61.9791C16.8435 61.9791 13.5272 61.9791 19.0543 61.9791C22.7085 61.9791 25.6182 61.9783 29.9672 61.9783C34.3162 61.9783 34.5304 61.9783 38.9521 61.9791C42.2684 61.9791 44.4792 61.9791 46.6901 61.9791C47.7955 61.9791 46.6901 61.9791 47.7955 61.9791C48.7002 61.9791 49.2521 61.9816 49.7986 61.9783H50.0418C50.6214 61.912 51.1511 61.6206 51.5155 61.1677C51.8799 60.7147 52.0496 60.1369 51.9874 59.5601C51.5441 55.5948 50.0239 51.8243 47.5897 48.6526C45.1555 45.4809 41.899 43.0277 38.1695 41.556Z" fill="white"/>
</svg>
