<svg width="60" height="61" viewBox="0 0 60 61" fill="none" xmlns="http://www.w3.org/2000/svg">
<g clip-path="url(#clip0)">
<path d="M43.6843 12.2997H38.4212V3.8786C38.4212 2.13741 37.0044 0.720703 35.2633 0.720703H24.7369C22.9958 0.720703 21.5791 2.13741 21.5791 3.8786V12.2997H16.3159C13.4138 12.2997 11.0527 14.6607 11.0527 17.5628V51.247C11.0527 53.7887 12.8638 55.9153 15.2633 56.4043V58.0891C15.2633 59.5402 16.4438 60.7207 17.8948 60.7207C19.3459 60.7207 20.5264 59.5402 20.5264 58.0891V56.5102H39.4738V58.0891C39.4738 59.5402 40.6543 60.7207 42.1054 60.7207C43.5564 60.7207 44.7369 59.5402 44.7369 58.0891V56.4043C47.1363 55.9152 48.9475 53.7887 48.9475 51.247V17.5628C48.9475 14.6607 46.5864 12.2997 43.6843 12.2997ZM24.7369 2.82597H35.2633C35.8437 2.82597 36.3159 3.2982 36.3159 3.8786H23.6843C23.6843 3.2982 24.1566 2.82597 24.7369 2.82597ZM23.6843 5.98386H36.3159V12.2997H23.6843V5.98386ZM18.4212 58.0891C18.4212 58.3744 18.1801 58.6154 17.8948 58.6154C17.6096 58.6154 17.3685 58.3744 17.3685 58.0891V56.5102H18.4212V58.0891ZM42.1054 58.6154C41.8201 58.6154 41.5791 58.3744 41.5791 58.0891V56.5102H42.6317V58.0891C42.6317 58.3744 42.3906 58.6154 42.1054 58.6154ZM46.8422 51.247C46.8422 52.6193 45.9621 53.7893 44.7369 54.2239V29.1944C44.7369 28.6131 44.2656 28.1418 43.6843 28.1418C43.103 28.1418 42.6317 28.6131 42.6317 29.1944V54.4049H17.3685V28.1511C17.3685 26.9561 18.3408 25.9839 19.5358 25.9839H39.2633C39.8446 25.9839 40.3159 25.5125 40.3159 24.9312C40.3159 24.3499 39.8446 23.8786 39.2633 23.8786H19.5358C17.1798 23.8786 15.2633 25.7952 15.2633 28.1511V54.2239C14.0381 53.7894 13.158 52.6193 13.158 51.247V17.5628C13.158 15.8215 14.5746 14.4049 16.3159 14.4049H43.6843C45.4255 14.4049 46.8422 15.8215 46.8422 17.5628V51.247Z" fill="#00757E"/>
<path d="M40.4644 23.8786H39.4738C38.8925 23.8786 38.4212 24.3499 38.4212 24.9312C38.4212 25.5125 38.8925 25.9839 39.4738 25.9839H40.4644C41.1133 25.9839 41.724 26.275 42.1404 26.7828C42.3484 27.0366 42.6505 27.1681 42.955 27.1681C43.1897 27.1681 43.426 27.0899 43.6217 26.9295C44.0713 26.561 44.1369 25.8977 43.7683 25.4481C42.9508 24.4507 41.7464 23.8786 40.4644 23.8786Z" fill="#00757E"/>
<path d="M16.3159 12.2997H21.5791V3.8786C21.5791 2.13741 22.9958 0.720703 24.7369 0.720703H35.2633C37.0044 0.720703 38.4212 2.13741 38.4212 3.8786V12.2997H43.6843C46.5864 12.2997 48.9475 14.6607 48.9475 17.5628V51.247C48.9475 53.7887 47.1363 55.9152 44.7369 56.4043V58.0891C44.7369 59.5402 43.5564 60.7207 42.1054 60.7207C40.6543 60.7207 39.4738 59.5402 39.4738 58.0891V56.5102H20.5264V58.0891C20.5264 59.5402 19.3459 60.7207 17.8948 60.7207C16.4438 60.7207 15.2633 59.5402 15.2633 58.0891V56.4043C12.8638 55.9153 11.0527 53.7887 11.0527 51.247V17.5628C11.0527 14.6607 13.4138 12.2997 16.3159 12.2997ZM35.2633 2.82597H24.7369C24.1566 2.82597 23.6843 3.2982 23.6843 3.8786H36.3159C36.3159 3.2982 35.8437 2.82597 35.2633 2.82597ZM36.3159 5.98386H23.6843V12.2997H36.3159V5.98386ZM41.5791 58.0891C41.5791 58.3744 41.8201 58.6154 42.1054 58.6154C42.3906 58.6154 42.6317 58.3744 42.6317 58.0891V56.5102H41.5791V58.0891ZM17.8948 58.6154C18.1801 58.6154 18.4212 58.3744 18.4212 58.0891V56.5102H17.3685V58.0891C17.3685 58.3744 17.6096 58.6154 17.8948 58.6154ZM13.158 51.247C13.158 52.6193 14.0381 53.7894 15.2633 54.2239L15.2633 29.1944C15.2633 28.6131 15.7346 28.1418 16.3159 28.1418C16.8972 28.1418 17.3685 28.6131 17.3685 29.1944L17.3685 54.4049H42.6317L42.6317 28.1511C42.6317 26.9561 41.6594 25.9839 40.4644 25.9839L20.7369 25.9839C20.1556 25.9839 19.6843 25.5125 19.6843 24.9312C19.6843 24.3499 20.1556 23.8786 20.7369 23.8786L40.4644 23.8786C42.8204 23.8786 44.7369 25.7952 44.7369 28.1511V54.2239C45.9621 53.7893 46.8422 52.6193 46.8422 51.247V17.5628C46.8422 15.8215 45.4255 14.4049 43.6843 14.4049H16.3159C14.5746 14.4049 13.158 15.8215 13.158 17.5628V51.247Z" fill="#00757E"/>
<path d="M19.5358 23.8786L20.5264 23.8786C21.1077 23.8786 21.5791 24.3499 21.5791 24.9312C21.5791 25.5125 21.1077 25.9839 20.5264 25.9839L19.5358 25.9839C18.8869 25.9839 18.2762 26.275 17.8598 26.7828C17.6518 27.0366 17.3497 27.1681 17.0452 27.1681C16.8105 27.1681 16.5742 27.0899 16.3785 26.9295C15.9289 26.561 15.8633 25.8977 16.2319 25.4481C17.0494 24.4507 18.2538 23.8786 19.5358 23.8786Z" fill="#00757E"/>
</g>
<defs>
<clipPath id="clip0">
<rect width="60" height="60" fill="white" transform="matrix(-1 0 0 1 60 0.720703)"/>
</clipPath>
</defs>
</svg>
