<svg width="24" height="24" viewBox="0 0 24 24" fill="none" xmlns="http://www.w3.org/2000/svg">
<path d="M17.2071 8.79287C16.8171 8.40238 16.1831 8.40238 15.7931 8.79287L11.5001 13.0854L9.70712 11.2929C9.31712 10.9024 8.68312 10.9024 8.29312 11.2929C7.90262 11.6834 7.90262 12.3164 8.29312 12.7069L10.7931 15.2069C10.9881 15.4024 11.2441 15.4999 11.5001 15.4999C11.7561 15.4999 12.0121 15.4024 12.2071 15.2069L17.2071 10.2069C17.5976 9.81637 17.5976 9.18337 17.2071 8.79287Z" fill="#00757E"/>
<path d="M23 11C22.448 11 22 11.448 22 12C22 17.514 17.514 22 12 22C6.486 22 2 17.514 2 12C2 6.486 6.486 2 12 2C14.6845 2 17.2045 3.049 19.0965 4.954C19.485 5.3465 20.1185 5.3485 20.5105 4.959C20.9025 4.57 20.9045 3.937 20.5155 3.545C18.2455 1.259 15.221 0 12 0C5.383 0 0 5.383 0 12C0 18.617 5.383 24 12 24C18.617 24 24 18.617 24 12C24 11.448 23.552 11 23 11Z" fill="#00757E"/>
</svg>
