<svg width="122" height="120" viewBox="0 0 122 120" fill="none" xmlns="http://www.w3.org/2000/svg">
<path fill-rule="evenodd" clip-rule="evenodd" d="M60.083 102C36.925 102 18.083 83.158 18.083 60C18.083 36.842 36.925 18 60.083 18C83.241 18 102.083 36.842 102.083 60C102.083 83.158 83.241 102 60.083 102Z" stroke="#00757E" stroke-width="4"/>
<path d="M60.083 24V28" stroke="#00757E" stroke-width="4" stroke-linecap="round"/>
<path d="M60.083 92V96" stroke="#00757E" stroke-width="4" stroke-linecap="round"/>
<path d="M96.083 60H92.083" stroke="#00757E" stroke-width="4" stroke-linecap="round"/>
<path d="M28.083 60H24.083" stroke="#00757E" stroke-width="4" stroke-linecap="round"/>
<path fill-rule="evenodd" clip-rule="evenodd" d="M66.083 58C66.083 61.314 63.397 64 60.083 64C56.769 64 54.083 61.314 54.083 58C54.083 54.686 56.769 52 60.083 52C63.397 52 66.083 54.686 66.083 58Z" stroke="#00757E" stroke-width="4" stroke-linecap="round"/>
<path d="M60.083 52V40" stroke="#00757E" stroke-width="4" stroke-linecap="round"/>
<path d="M55.841 62.2422L38.083 80.0002" stroke="#00757E" stroke-width="4" stroke-linecap="round"/>
<path d="M20.083 18.038C30.497 8.106 44.591 2 60.083 2C92.063 2 118.083 28.018 118.083 60" stroke="#00757E" stroke-width="4" stroke-linecap="round"/>
<path d="M36.083 18H20.083V2" stroke="#00757E" stroke-width="4" stroke-linecap="round"/>
<path d="M118.083 60C118.083 91.98 92.063 118 60.083 118C28.103 118 2.08301 91.98 2.08301 60" stroke="#00757E" stroke-width="4" stroke-linecap="round" stroke-dasharray="1 4"/>
</svg>
