<svg width="60" height="60" viewBox="0 0 60 60" fill="none" xmlns="http://www.w3.org/2000/svg">
<path d="M3.34806 31.582C3.04206 32.011 2.75806 32.455 2.49006 32.91C2.46216 32.9386 2.43579 32.9686 2.41106 33C2.39957 33.0291 2.38956 33.0588 2.38106 33.089C-0.793688 38.6055 -0.793688 45.3945 2.38106 50.911C2.38956 50.9412 2.39957 50.9709 2.41106 51C2.44455 51.0523 2.48271 51.1015 2.52506 51.147C4.0834 53.7726 6.2801 55.9617 8.91106 57.511C8.93909 57.5388 8.96881 57.5649 9.00006 57.589C9.04022 57.6087 9.08165 57.6258 9.12406 57.64C14.623 60.7867 21.3771 60.7867 26.8761 57.64C26.9185 57.6258 26.9599 57.6087 27.0001 57.589C27.0313 57.5649 27.061 57.5388 27.0891 57.511C29.72 55.9617 31.9167 53.7726 33.4751 51.147C33.5174 51.1015 33.5556 51.0523 33.5891 51C33.6006 50.9709 33.6106 50.9412 33.6191 50.911C36.7938 45.3945 36.7938 38.6055 33.6191 33.089C33.6106 33.0588 33.6006 33.0291 33.5891 33C33.5649 32.9685 33.5385 32.9388 33.5101 32.911C33.2421 32.455 32.9581 32.011 32.6521 31.582L35.1131 29.122C35.6802 28.5639 36.0003 27.802 36.002 27.0064C36.0037 26.2107 35.6868 25.4475 35.1221 24.887C33.9402 23.7441 32.065 23.7441 30.8831 24.887L28.4181 27.352C27.9891 27.046 27.5451 26.762 27.0891 26.493C27.0612 26.4638 27.0314 26.4364 27.0001 26.411C26.9711 26.395 26.9401 26.394 26.9101 26.381C25.3773 25.5026 23.7226 24.8565 22.0001 24.464V21C23.6569 21 25.0001 19.6569 25.0001 18V17C25.0001 15.3431 23.6569 14 22.0001 14H14.0001C12.3432 14 11.0001 15.3431 11.0001 17V18C11.0001 19.6569 12.3432 21 14.0001 21V24.464C12.2776 24.8565 10.6229 25.5026 9.09006 26.381C9.06106 26.394 9.02906 26.395 9.00006 26.411C8.96881 26.4351 8.93909 26.4612 8.91106 26.489C8.45506 26.758 8.01106 27.042 7.58206 27.348L5.12206 24.887C3.94226 23.7462 2.0717 23.7423 0.887063 24.878C0.319628 25.4373 0.000152756 26.2008 0.000152756 26.9975C0.000152756 27.7942 0.319628 28.5577 0.887063 29.117L3.34806 31.582ZM26.8481 55.321L26.3681 54.49C26.1907 54.1781 25.8598 53.985 25.5009 53.9843C25.1421 53.9835 24.8103 54.175 24.6316 54.4862C24.4529 54.7974 24.4546 55.1804 24.6361 55.49L25.1111 56.313C23.2045 57.2629 21.1262 57.8193 19.0001 57.949V56C19.0001 55.4477 18.5523 55 18.0001 55C17.4478 55 17.0001 55.4477 17.0001 56V57.949C14.8746 57.819 12.797 57.2626 10.8911 56.313L11.3661 55.49C11.6378 55.0121 11.4728 54.4046 10.9968 54.1297C10.5207 53.8549 9.91207 54.0158 9.63406 54.49L9.15406 55.321C7.38199 54.1389 5.86115 52.6181 4.67906 50.846L5.51006 50.366C5.98428 50.088 6.14519 49.4794 5.87034 49.0033C5.59548 48.5273 4.98792 48.3623 4.51006 48.634L3.68706 49.109C2.73745 47.203 2.18107 45.1255 2.05106 43H4.00006C4.55235 43 5.00006 42.5523 5.00006 42C5.00006 41.4477 4.55235 41 4.00006 41H2.05106C2.18107 38.8745 2.73745 36.797 3.68706 34.891L4.51006 35.366C4.81963 35.5475 5.20271 35.5492 5.51388 35.3705C5.82505 35.1917 6.01659 34.86 6.01581 34.5011C6.01502 34.1423 5.82201 33.8114 5.51006 33.634L4.67906 33.154C5.86115 31.3819 7.38199 29.8611 9.15406 28.679L9.63406 29.51C9.81142 29.822 10.1423 30.015 10.5012 30.0157C10.86 30.0165 11.1918 29.825 11.3705 29.5138C11.5492 29.2026 11.5475 28.8196 11.3661 28.51L10.8911 27.687C12.797 26.7374 14.8746 26.181 17.0001 26.051V28C17.0001 28.5523 17.4478 29 18.0001 29C18.5523 29 19.0001 28.5523 19.0001 28V26.051C21.1255 26.181 23.2031 26.7374 25.1091 27.687L24.6341 28.51C24.4526 28.8196 24.4509 29.2026 24.6296 29.5138C24.8083 29.825 25.1401 30.0165 25.4989 30.0157C25.8578 30.015 26.1887 29.822 26.3661 29.51L26.8461 28.679C28.6181 29.8611 30.139 31.3819 31.3211 33.154L30.4901 33.634C30.1781 33.8114 29.9851 34.1423 29.9843 34.5011C29.9835 34.86 30.1751 35.1917 30.4862 35.3705C30.7974 35.5492 31.1805 35.5475 31.4901 35.366L32.3131 34.891C33.2627 36.797 33.8191 38.8745 33.9491 41H32.0001C31.4478 41 31.0001 41.4477 31.0001 42C31.0001 42.5523 31.4478 43 32.0001 43H33.9491C33.8191 45.1255 33.2627 47.203 32.3131 49.109L31.4901 48.634C31.0122 48.3623 30.4046 48.5273 30.1298 49.0033C29.8549 49.4794 30.0159 50.088 30.4901 50.366L31.3211 50.846C30.139 52.6181 28.6181 54.1389 26.8461 55.321H26.8481ZM32.3001 26.292C32.4877 26.1064 32.7415 26.003 33.0054 26.0047C33.2694 26.0064 33.5218 26.113 33.7071 26.301C33.896 26.4849 34.0025 26.7374 34.0025 27.001C34.0025 27.2646 33.896 27.5171 33.7071 27.701L31.3951 30.012C30.9546 29.5199 30.4872 29.0525 29.9951 28.612L32.3001 26.292ZM13.0001 18V17C13.0001 16.4477 13.4478 16 14.0001 16H22.0001C22.5523 16 23.0001 16.4477 23.0001 17V18C23.0001 18.5523 22.5523 19 22.0001 19H14.0001C13.4478 19 13.0001 18.5523 13.0001 18ZM16.0001 21H20.0001V24.118C18.6714 23.9607 17.3288 23.9607 16.0001 24.118V21ZM2.30006 26.292C2.68891 25.9109 3.31122 25.9109 3.70006 26.292L6.01106 28.604C5.51723 29.0444 5.04817 29.5117 4.60606 30.004L2.29206 27.7C2.10196 27.5146 1.99542 27.2598 1.99693 26.9943C1.99844 26.7288 2.10786 26.4752 2.30006 26.292Z" fill="#00757E"/>
<path d="M19.0003 38.142V32C19.0003 31.4477 18.5526 31 18.0003 31C17.448 31 17.0003 31.4477 17.0003 32V38.142C15.05 38.6456 13.7784 40.5208 14.0322 42.519C14.286 44.5172 15.986 46.015 18.0003 46.015C20.0146 46.015 21.7146 44.5172 21.9684 42.519C22.2222 40.5208 20.9506 38.6456 19.0003 38.142ZM18.0003 44C16.8957 44 16.0003 43.1046 16.0003 42C16.0003 40.8954 16.8957 40 18.0003 40C19.1049 40 20.0003 40.8954 20.0003 42C20.0003 43.1046 19.1049 44 18.0003 44Z" fill="#00757E"/>
<path d="M56.9989 29.0017H43.4699L58.2879 21.9747C59.781 21.2591 60.4169 19.4728 59.7119 17.9747L51.9919 1.71473C51.2755 0.22252 49.4901 -0.4131 47.9919 0.290726L25.0219 11.1907C24.6906 11.3387 24.4654 11.6545 24.4336 12.016C24.4017 12.3775 24.5682 12.7278 24.8685 12.9315C25.1688 13.1351 25.5559 13.1601 25.8799 12.9967L28.4989 11.7517C26.9708 15.1786 27.0411 19.1067 28.6909 22.4767C28.9201 22.9793 29.5133 23.2009 30.0159 22.9717C30.5185 22.7425 30.7401 22.1493 30.5109 21.6467C28.2699 16.7307 29.6239 11.2207 33.5309 9.36473C35.8326 8.36651 38.4819 8.59195 40.5819 9.96473C44.5376 12.4317 46.6929 16.9778 46.0989 21.6017C45.8289 24.0473 44.3799 26.2063 42.2189 27.3827L42.1189 27.4297C42.0897 27.4435 42.0614 27.4589 42.0339 27.4757L35.6799 30.4887C35.1806 30.7251 34.9675 31.3215 35.2039 31.8207C35.4403 32.32 36.0366 32.5331 36.5359 32.2967L39.2649 31.0017H40.0389C42.5452 31.0878 44.8412 32.4257 46.1519 34.5637C48.6692 38.4873 48.6692 43.5181 46.1519 47.4417C44.8413 49.5796 42.5451 50.9168 40.0389 51.0017H36.4589C35.9066 51.0017 35.4589 51.4494 35.4589 52.0017C35.4589 52.554 35.9066 53.0017 36.4589 53.0017H56.9989C58.6557 53.0017 59.9989 51.6586 59.9989 50.0017V32.0017C59.9989 30.3449 58.6557 29.0017 56.9989 29.0017ZM43.0669 9.26973L45.2579 8.23073C46.1918 9.34923 47.6584 9.87395 49.0899 9.60173L51.7699 15.2437C50.653 16.1774 50.1285 17.6423 50.3989 19.0727L48.2089 20.1117C48.1997 15.9112 46.3138 11.9347 43.0669 9.26973ZM47.9669 22.4427L52.0479 20.5017C52.5463 20.2651 52.7588 19.6695 52.5229 19.1707C52.0504 18.1705 52.4773 16.9766 53.4769 16.5027C53.7168 16.3891 53.9016 16.1847 53.9907 15.9347C54.0798 15.6847 54.0658 15.4095 53.9519 15.1697L50.5219 7.94973C50.2852 7.45132 49.6896 7.23877 49.1909 7.47473C48.7107 7.70299 48.1594 7.73068 47.6588 7.55167C47.1582 7.37266 46.7494 7.0017 46.5229 6.52073C46.4092 6.28085 46.2049 6.096 45.9548 6.00691C45.7048 5.91781 45.4296 5.93178 45.1899 6.04573L41.1079 7.98573C40.2884 7.5476 39.4159 7.21688 38.5119 7.00173L48.8439 2.10173C49.3455 1.86476 49.9444 2.07629 50.1859 2.57573L57.9039 18.8317C58.1414 19.3333 57.9298 19.9326 57.4299 20.1737L47.0869 25.0737C47.4914 24.238 47.7869 23.3538 47.9659 22.4427H47.9669ZM48.6989 35.0017H51.1269C51.4932 36.4091 52.5918 37.5084 53.9989 37.8757V44.1277C52.591 44.4944 51.4916 45.5939 51.1249 47.0017H48.6989C50.4882 43.2018 50.4882 38.8016 48.6989 35.0017ZM57.9989 50.0017C57.9989 50.554 57.5512 51.0017 56.9989 51.0017H45.5529C46.2768 50.4207 46.9225 49.7485 47.4739 49.0017H51.9989C52.5512 49.0017 52.9989 48.554 52.9989 48.0017C52.9989 46.8972 53.8943 46.0017 54.9989 46.0017C55.5512 46.0017 55.9989 45.554 55.9989 45.0017V37.0017C55.9989 36.4494 55.5512 36.0017 54.9989 36.0017C53.8943 36.0017 52.9989 35.1063 52.9989 34.0017C52.9989 33.4494 52.5512 33.0017 51.9989 33.0017H47.4749C46.9228 32.2552 46.2769 31.583 45.5529 31.0017H56.9989C57.5512 31.0017 57.9989 31.4494 57.9989 32.0017V50.0017Z" fill="#00757E"/>
</svg>
