<svg width="60" height="61" viewBox="0 0 60 61" fill="none" xmlns="http://www.w3.org/2000/svg">
<path d="M53.9734 28.7608H50.8593V25.6466C50.8593 24.9994 50.3346 24.4747 49.6874 24.4747C49.0402 24.4747 48.5155 24.9994 48.5155 25.6466V28.7608H45.4014C44.7541 28.7608 44.2295 29.2854 44.2295 29.9326C44.2295 30.5799 44.7541 31.1045 45.4014 31.1045H48.5155V34.2187C48.5155 34.8659 49.0402 35.3905 49.6874 35.3905C50.3346 35.3905 50.8593 34.8659 50.8593 34.2187V31.1045H53.9734C54.6206 31.1045 55.1453 30.5799 55.1453 29.9326C55.1453 29.2854 54.6206 28.7608 53.9734 28.7608Z" fill="#00757E"/>
<path d="M53.5189 20.3551C52.4244 12.2656 45.6617 6.21313 37.6347 6.21313C33.5827 6.21313 29.7923 7.72357 26.836 10.4921C23.8796 7.72357 20.0891 6.21313 16.0373 6.21313C7.19427 6.21313 0 13.5787 0 22.6323C0 24.4211 0.521837 26.426 1.56 28.6392L2.18978 30.1343L2.80805 30.983C4.99677 34.6885 8.45802 38.9022 13.1776 43.5951C19.5737 49.955 26.0594 54.9306 26.1242 54.9802C26.3342 55.1409 26.5851 55.2212 26.836 55.2212C27.0869 55.2212 27.3377 55.1409 27.5478 54.9802C27.5972 54.9424 39.5576 44.1387 45.0546 38.9559C45.5256 38.5119 45.5474 37.7702 45.1034 37.2994C44.6595 36.8285 43.9178 36.8066 43.4468 37.2506C39.2545 41.2033 28.3842 51.3372 26.8361 52.5616C24.9965 51.1061 19.8752 46.9515 14.8135 41.9165C10.7611 37.8853 7.65892 34.2117 5.56161 30.983H16.053C16.5757 30.983 17.0352 30.6367 17.1794 30.1343L19.2269 22.9973L24.8969 41.1636C25.0497 41.6529 25.5029 41.9863 26.0156 41.9863C26.5283 41.9863 26.9814 41.6529 27.1341 41.1636L30.2742 31.1003H35.5059C36.1531 31.1003 36.6778 30.5756 36.6778 29.9284C36.6778 29.2812 36.1531 28.7565 35.5059 28.7565H29.4122C28.8995 28.7565 28.4463 29.0898 28.2936 29.5793L26.0152 36.8807L20.2981 18.5635C20.1439 18.0694 19.6847 17.7337 19.1658 17.7409C18.6482 17.7469 18.1957 18.0919 18.0529 18.5896L15.1697 28.6393H4.1747C2.96333 26.3523 2.34375 24.3366 2.34375 22.6323C2.34375 14.8711 8.48662 8.55689 16.0373 8.55689C19.8323 8.55689 23.3615 10.1169 25.9747 12.9493C26.1966 13.1898 26.5088 13.3265 26.836 13.3265C27.1632 13.3265 27.4755 13.1898 27.6973 12.9493C30.3105 10.1169 33.8397 8.55689 37.6347 8.55689C44.1629 8.55689 49.713 13.2648 51.0322 19.7044C50.5919 19.6468 50.1432 19.6167 49.6875 19.6167C44.0012 19.6167 39.375 24.2429 39.375 29.9292C39.375 35.6155 44.0012 40.2418 49.6875 40.2418C55.3738 40.2418 60 35.6155 60 29.9292C60.0001 25.5961 57.3136 21.8791 53.5189 20.3551ZM49.6876 37.898C45.2936 37.898 41.7188 34.3232 41.7188 29.9292C41.7188 25.5353 45.2936 21.9605 49.6876 21.9605C54.0816 21.9605 57.6564 25.5353 57.6564 29.9292C57.6564 34.3232 54.0816 37.898 49.6876 37.898Z" fill="#00757E"/>
</svg>
