<svg width="42" height="60" viewBox="0 0 42 60" fill="none" xmlns="http://www.w3.org/2000/svg">
<path d="M30 9H37C39.2091 9 41 10.7909 41 13V55C41 57.2091 39.2091 59 37 59H5C2.79086 59 1 57.2091 1 55V13C1 10.7909 2.79086 9 5 9H12" stroke="#00757E" stroke-width="2" stroke-linecap="round" stroke-linejoin="round"/>
<path fill-rule="evenodd" clip-rule="evenodd" d="M30 9L32.6 12.467C32.8596 12.8132 33 13.2343 33 13.667V15C33 16.1046 32.1046 17 31 17H11C9.89543 17 9 16.1046 9 15V13.667C9 13.2343 9.14036 12.8132 9.4 12.467L12 9V3C12.0033 1.8968 12.8968 1.00329 14 1H28C29.1032 1.00329 29.9967 1.8968 30 3V9Z" stroke="#00757E" stroke-width="2" stroke-linecap="round" stroke-linejoin="round"/>
<path d="M14 13H15" stroke="#00757E" stroke-width="2" stroke-linecap="round" stroke-linejoin="round"/>
<path d="M19 13H28" stroke="#00757E" stroke-width="2" stroke-linecap="round" stroke-linejoin="round"/>
<path d="M33 14H35C36.1032 14.0033 36.9967 14.8968 37 16V52C36.9967 53.1032 36.1032 53.9967 35 54H7C5.8968 53.9967 5.00329 53.1032 5 52V16C5.00329 14.8968 5.8968 14.0033 7 14H9" stroke="#00757E" stroke-width="2" stroke-linecap="round" stroke-linejoin="round"/>
<path d="M20 5H22" stroke="#00757E" stroke-width="2" stroke-linecap="round" stroke-linejoin="round"/>
<path d="M9 46H11" stroke="#00757E" stroke-width="2" stroke-linecap="round" stroke-linejoin="round"/>
<path d="M15 46H33" stroke="#00757E" stroke-width="2" stroke-linecap="round" stroke-linejoin="round"/>
<path d="M14 50H28" stroke="#00757E" stroke-width="2" stroke-linecap="round" stroke-linejoin="round"/>
<path d="M27 23H15C13.8954 23 13 23.8954 13 25V37C13 38.1046 13.8954 39 15 39H27C28.1046 39 29 38.1046 29 37V25C29 23.8954 28.1046 23 27 23Z" stroke="#00757E" stroke-width="2" stroke-linecap="round" stroke-linejoin="round"/>
<path d="M16 35.5L16.8254 30.9601C16.8717 30.7055 17.2268 30.6803 17.3086 30.9257L18.7083 35.1248C18.7889 35.3667 19.1375 35.3468 19.1901 35.0972L21 26.5" stroke="#00757E" stroke-width="2" stroke-linecap="round"/>
<path d="M23 28.5L24.883 25.4872C25.0258 25.2588 25.3791 25.3866 25.3427 25.6535L24 35.5" stroke="#00757E" stroke-width="2" stroke-linecap="round"/>
</svg>
