<?xml version="1.0" encoding="UTF-8" standalone="no"?>
<svg
   xmlns:dc="http://purl.org/dc/elements/1.1/"
   xmlns:cc="http://creativecommons.org/ns#"
   xmlns:rdf="http://www.w3.org/1999/02/22-rdf-syntax-ns#"
   xmlns:svg="http://www.w3.org/2000/svg"
   xmlns="http://www.w3.org/2000/svg"
   width="19.049999mm"
   height="16.940506mm"
   viewBox="0 0 19.049999 16.940506"
   version="1.1"
   id="svg8">
  <defs
     id="defs2">
    <clipPath
       id="clip0">
      <rect
         width="70"
         height="70"
         fill="#ffffff"
         transform="matrix(-1,0,0,1,72,15)"
         id="rect22"
         x="0"
         y="0" />
    </clipPath>
  </defs>
  <metadata
     id="metadata5">
    <rdf:RDF>
      <cc:Work
         rdf:about="">
        <dc:format>image/svg+xml</dc:format>
        <dc:type
           rdf:resource="http://purl.org/dc/dcmitype/StillImage" />
        <dc:title></dc:title>
      </cc:Work>
    </rdf:RDF>
  </metadata>
  <g
     id="layer1"
     transform="translate(-99.182124,-126.46134)">
    <g
       style="fill:none"
       id="g41"
       transform="matrix(0.26458333,0,0,0.26458333,99.182124,126.46134)">
      <g
         clip-path="url(#clip0)"
         id="g14">
        <path
           d="m 42.9531,46.5228 h -4.6668 v 2.3339 h 4.6668 z"
           fill="#00757e"
           id="path10" />
        <path
           d="m 3.1185,43.0346 7.9255,-1.1319 c 1.4451,-0.8877 2.9449,-1.6825 4.4911,-2.3799 5.1064,-2.313 10.6487,-3.5065 16.255,-3.5003 h 1.3768 c 6.6161,0.0047 13.1264,1.6649 18.9373,4.8291 l 3.9998,2.182 c 4.682,0.0527 9.2738,1.298 13.3414,3.6167 1.6531,0.948 2.6738,2.707 2.6767,4.6122 v 6.928 c 0,0.6447 -0.5223,1.1669 -1.167,1.1669 h -3.9176 c -1.2742,3.6352 -5.2541,5.5494 -8.8892,4.2752 -2.0011,-0.7012 -3.574,-2.2746 -4.2752,-4.2752 H 22.701 c -1.2742,3.6352 -5.2541,5.5494 -8.8892,4.2752 C 11.8112,62.9314 10.2379,61.358 9.53665,59.3574 H 9.11792 c -0.1486,0 -0.29577,-0.028 -0.43392,-0.083 L 4.90498,57.758 C 3.21677,57.0895 2.11108,55.4555 2.11725,53.6405 v -9.4509 c 0,-0.5801 0.4268,-1.0724 1.00125,-1.155 z m 52.7638,14.9228 c 0.516,2.5252 2.9814,4.1541 5.5066,3.638 2.5257,-0.516 4.1546,-2.9814 3.6385,-5.5071 -0.5165,-2.5252 -2.9819,-4.1541 -5.5071,-3.638 -2.1729,0.4439 -3.733,2.3557 -3.7325,4.5737 0,0.3134 0.0318,0.6262 0.0945,0.9334 z M 34.7863,57.024 h 18.6681 c 0,-3.8663 3.1338,-7.0006 7.0002,-7.0006 3.8664,0 7.0007,3.1343 7.0007,7.0006 h 2.3334 V 51.2625 C 69.7872,50.1938 69.2147,49.2068 68.287,48.676 64.4795,46.5021 60.1716,45.358 55.7878,45.3566 H 34.7863 Z m 0,-14.0008 h 16.4254 l -0.2251,-0.123 c -4.9882,-2.7108 -10.529,-4.2476 -16.2003,-4.493 z m -2.3334,-4.6673 h -0.6604 c -4.7019,-0.0052 -9.3611,0.8873 -13.7284,2.6301 l 2.0372,2.0372 H 32.4529 Z M 11.5458,57.9574 c 0.516,2.5252 2.9814,4.1541 5.5071,3.638 2.5252,-0.516 4.1541,-2.9814 3.638,-5.5071 -0.516,-2.5252 -2.9819,-4.1541 -5.5071,-3.638 -2.1729,0.4439 -3.733,2.3557 -3.7325,4.5737 0,0.3134 0.0318,0.6262 0.0945,0.9334 z M 4.45065,46.523 h 3.50033 v 2.3339 H 4.45065 v 4.7836 c -0.00285,0.8598 0.52127,1.6336 1.32075,1.9493 l 3.34652,1.344 c 0,-0.1073 0.01377,-0.2136 0.02089,-0.3209 0.00712,-0.1073 0.00949,-0.2331 0.02089,-0.3499 0.01187,-0.1168 0.03513,-0.2336 0.05364,-0.3499 0.01899,-0.1168 0.03276,-0.2336 0.05602,-0.3394 0.02327,-0.1064 0.05745,-0.2241 0.08783,-0.3352 0.03039,-0.1106 0.05365,-0.2227 0.08878,-0.3314 0.03466,-0.1082 0.07691,-0.2122 0.11632,-0.3185 0.03988,-0.1059 0.07595,-0.2156 0.11678,-0.321 0.04083,-0.1049 0.0959,-0.2003 0.14481,-0.2995 0.0489,-0.0993 0.09684,-0.208 0.15144,-0.3082 0.05508,-0.1001 0.11678,-0.1856 0.16948,-0.2786 0.0522,-0.0936 0.1163,-0.1999 0.1828,-0.2953 0.0669,-0.0959 0.1286,-0.1714 0.1927,-0.2578 0.0641,-0.0864 0.1368,-0.188 0.2113,-0.2777 0.0745,-0.0898 0.1443,-0.16 0.217,-0.2336 0.0721,-0.0731 0.1528,-0.1724 0.2331,-0.254 0.0807,-0.0817 0.1599,-0.1462 0.2402,-0.2184 0.0807,-0.0722 0.1671,-0.1576 0.2559,-0.2336 0.0883,-0.0755 0.1785,-0.1339 0.2668,-0.2003 0.0888,-0.0665 0.1775,-0.1377 0.2706,-0.1999 0.0935,-0.0617 0.1984,-0.1163 0.2986,-0.1818 0.1007,-0.0655 0.1823,-0.1168 0.2768,-0.1667 0.0945,-0.0503 0.2122,-0.103 0.3195,-0.1543 0.1073,-0.0512 0.1913,-0.0968 0.2905,-0.1386 0.0993,-0.0422 0.2336,-0.0864 0.3499,-0.1282 0.1168,-0.0422 0.1928,-0.075 0.292,-0.1063 0.1329,-0.0408 0.2692,-0.0703 0.405,-0.104 0.0888,-0.0209 0.1737,-0.0489 0.2635,-0.0674 0.1433,-0.0294 0.2905,-0.0456 0.4363,-0.0669 0.0864,-0.0114 0.169,-0.0304 0.2554,-0.0385 0.2335,-0.0232 0.4666,-0.0361 0.7116,-0.0361 3.865,0.0038 6.9969,3.1358 7.0007,7.0007 h 9.3374 V 45.3561 H 19.6185 c -0.3096,0 -0.6063,-0.123 -0.8247,-0.3418 l -3.0256,-3.0256 c -1.2699,0.6043 -2.5048,1.2799 -3.6988,2.0234 -0.1376,0.0859 -0.2914,0.1424 -0.4524,0.1657 l -7.16635,1.023 z"
           fill="#00757e"
           id="path12" />
      </g>
      <path
         d="m 1,9.4043 18.5,-7.5 0.5,-0.5 6,3 13,5 0.5,12 -2,8.5 -7.5,10.5 -9,5.5 -3.5,-0.5 -10,-7.5 -6,-12 z"
         fill="#ffffff"
         id="path16" />
      <path
         d="M 39.2741,8.09927 C 32.8207,6.33103 26.3294,3.57772 20.5018,0.13707 c -0.3095,-0.18276 -0.6936,-0.18276 -1.0031,0 C 13.5031,3.67657 7.36253,6.28092 0.72591,8.09927 0.29718,8.21662 0,8.60633 0,9.05091 V 19.1321 c 0,10.3814 4.78923,17.2532 8.80702,21.1897 4.32538,4.2383 9.36388,6.5822 11.19328,6.5822 1.8291,0 6.8676,-2.3439 11.193,-6.5822 C 35.211,36.3854 40,29.5136 40,19.1321 V 9.05082 C 40,8.60633 39.7028,8.21662 39.2741,8.09927 Z M 38.0267,19.132 c 0,9.6962 -4.4669,16.1084 -8.2145,19.7803 -4.2535,4.1677 -8.8012,6.0182 -9.8119,6.0182 -1.0107,0 -5.5588,-1.8505 -9.8124,-6.0182 C 6.44048,35.2403 1.97335,28.8282 1.97335,19.132 V 9.79981 C 8.31984,7.99786 14.2303,5.4831 20.0005,2.12993 c 5.626,3.26422 11.8314,5.90403 18.0262,7.66952 z"
         fill="#00757e"
         id="path18" />
      <path
         d="m 13.2751,21.4388 c -0.6058,-0.6059 -1.4115,-0.9394 -2.2685,-0.9394 -0.8569,0 -1.66266,0.3336 -2.26874,0.9394 -1.25074,1.251 -1.25074,3.2866 0,4.5375 l 5.82594,5.8258 c 0.6059,0.6057 1.4116,0.9392 2.2686,0.9392 0.857,0 1.6627,-0.3335 2.2687,-0.9394 L 31.2632,19.6397 c 1.2507,-1.2513 1.2507,-3.2866 -10e-5,-4.5371 -0.6059,-0.6059 -1.4116,-0.9394 -2.2687,-0.9394 -0.857,0 -1.6627,0.3336 -2.2687,0.9394 l -9.8934,9.8933 z m 14.846,-4.9408 c 0.2331,-0.2332 0.5434,-0.3615 0.8734,-0.3615 0.3301,0 0.6401,0.1283 0.8735,0.3615 0.4814,0.4814 0.4814,1.265 -2e-4,1.7466 l -12.162,12.162 c -0.2331,0.2331 -0.5434,0.3615 -0.8734,0.3615 -0.3299,0 -0.6402,-0.1284 -0.8735,-0.3615 L 10.1332,24.581 c -0.48163,-0.4816 -0.48163,-1.2652 -2e-4,-1.7466 0.2332,-0.2332 0.5435,-0.3617 0.8736,-0.3617 0.33,0 0.6401,0.1283 0.8733,0.3615 l 4.2547,4.2549 c 0.1852,0.1849 0.436,0.2889 0.6977,0.2889 0.2618,0 0.5126,-0.1039 0.6976,-0.2889 z"
         fill="#00757e"
         id="path20" />
    </g>
  </g>
</svg>
