<svg width="60" height="60" viewBox="0 0 60 60" fill="none" xmlns="http://www.w3.org/2000/svg">
<g clip-path="url(#clip0)">
<path d="M18.4761 12.0251C17.9573 12.0251 17.5366 12.4457 17.5366 12.9646C17.5366 14.1042 16.6094 15.0314 15.4698 15.0314C14.3301 15.0314 13.4029 14.1042 13.4029 12.9646C13.4029 11.8249 14.3301 10.8978 15.4698 10.8978C15.9886 10.8978 16.4093 10.4772 16.4093 9.95826C16.4093 9.43935 15.9887 9.01877 15.4698 9.01877C13.2941 9.01877 11.5241 10.7889 11.5241 12.9645C11.5241 15.1401 13.2942 16.9102 15.4698 16.9102C17.6454 16.9102 19.4155 15.1401 19.4155 12.9645C19.4156 12.4457 18.9949 12.0251 18.4761 12.0251Z" fill="#00757E"/>
<path d="M16.4096 15.9703C16.4096 15.4516 15.9891 15.0308 15.4702 15.0308C14.3305 15.0308 13.4033 14.1037 13.4033 12.964C13.4033 11.8244 14.3305 10.8972 15.4702 10.8972C16.6098 10.8972 17.537 11.8244 17.537 12.964C17.537 13.4828 17.9576 13.9035 18.4765 13.9035C18.9954 13.9035 19.416 13.4829 19.416 12.964C19.416 10.7883 17.6459 9.01831 15.4703 9.01831C13.2947 9.01831 11.5246 10.7884 11.5246 12.964C11.5246 15.1396 13.2947 16.9097 15.4703 16.9097C15.9891 16.9098 16.4096 16.4891 16.4096 15.9703Z" fill="#00757E"/>
<path d="M18.4761 23.0476C17.9573 23.0476 17.5366 23.4681 17.5366 23.987C17.5366 25.1267 16.6094 26.0539 15.4698 26.0539C14.3301 26.0539 13.4029 25.1267 13.4029 23.987C13.4029 22.8474 14.3301 21.9202 15.4698 21.9202C15.9886 21.9202 16.4093 21.4996 16.4093 20.9807C16.4093 20.4618 15.9887 20.0412 15.4698 20.0412C13.2941 20.0412 11.5241 21.8113 11.5241 23.9869C11.5241 26.1625 13.2942 27.9326 15.4698 27.9326C17.6454 27.9326 19.4155 26.1625 19.4155 23.9869C19.4156 23.4683 18.9949 23.0476 18.4761 23.0476Z" fill="#00757E"/>
<path d="M12.8092 25.6725C13.3103 25.5383 13.6078 25.0231 13.4735 24.5219C13.1785 23.4211 13.8341 22.2855 14.935 21.9905C16.0358 21.6956 17.1713 22.3512 17.4663 23.452C17.7613 24.5528 17.1056 25.6884 16.0048 25.9834C15.5037 26.1176 15.2062 26.6328 15.3405 27.134C15.4748 27.6352 15.9899 27.9326 16.4912 27.7983C18.5927 27.2352 19.8443 25.0673 19.2812 22.9658C18.7181 20.8644 16.5502 19.6127 14.4487 20.1758C12.3472 20.7389 11.0956 22.9068 11.6587 25.0083C11.7928 25.5093 12.3081 25.8068 12.8092 25.6725Z" fill="#00757E"/>
<path d="M29.4992 25.052H22.4846C21.9658 25.052 21.5451 25.4726 21.5451 25.9915C21.5451 26.5104 21.9657 26.931 22.4846 26.931H29.4992C30.018 26.931 30.4387 26.5104 30.4387 25.9915C30.4387 25.4726 30.0181 25.052 29.4992 25.052Z" fill="#00757E"/>
<path d="M29.4992 21.0436H22.4846C21.9658 21.0436 21.5451 21.4642 21.5451 21.9831C21.5451 22.502 21.9657 22.9226 22.4846 22.9226H29.4992C30.018 22.9226 30.4387 22.502 30.4387 21.9831C30.4387 21.4642 30.0181 21.0436 29.4992 21.0436Z" fill="#00757E"/>
<path d="M27.4951 36.0753H22.4846C21.9658 36.0753 21.5451 36.4959 21.5451 37.0148C21.5451 37.5337 21.9657 37.9543 22.4846 37.9543H27.4951C28.0139 37.9543 28.4346 37.5337 28.4346 37.0148C28.4346 36.4959 28.0139 36.0753 27.4951 36.0753Z" fill="#00757E"/>
<path d="M29.4992 32.0671H22.4846C21.9658 32.0671 21.5451 32.4877 21.5451 33.0066C21.5451 33.5255 21.9657 33.9461 22.4846 33.9461H29.4992C30.018 33.9461 30.4387 33.5255 30.4387 33.0066C30.4387 32.4877 30.0181 32.0671 29.4992 32.0671Z" fill="#00757E"/>
<path d="M38.5181 14.0294H22.4846C21.9658 14.0294 21.5451 14.45 21.5451 14.9689C21.5451 15.4878 21.9657 15.9084 22.4846 15.9084H38.518C39.0368 15.9084 39.4575 15.4878 39.4575 14.9689C39.4575 14.45 39.0369 14.0294 38.5181 14.0294Z" fill="#00757E"/>
<path d="M34.5097 10.0211H22.4846C21.9658 10.0211 21.5451 10.4416 21.5451 10.9605C21.5451 11.4795 21.9657 11.9 22.4846 11.9H34.5097C35.0285 11.9 35.4492 11.4795 35.4492 10.9605C35.4492 10.4416 35.0286 10.0211 34.5097 10.0211Z" fill="#00757E"/>
<path d="M18.4761 34.071C17.9573 34.071 17.5366 34.4916 17.5366 35.0105C17.5366 36.1502 16.6094 37.0774 15.4698 37.0774C14.3301 37.0774 13.4029 36.1502 13.4029 35.0105C13.4029 33.8709 14.3301 32.9437 15.4698 32.9437C15.9886 32.9437 16.4093 32.5231 16.4093 32.0042C16.4093 31.4853 15.9887 31.0647 15.4698 31.0647C13.2941 31.0647 11.5241 32.8348 11.5241 35.0104C11.5241 37.186 13.2942 38.9561 15.4698 38.9561C17.6454 38.9561 19.4155 37.186 19.4155 35.0104C19.4156 34.4916 18.9949 34.071 18.4761 34.071Z" fill="#00757E"/>
<path d="M14.5363 38.0187C14.8308 37.5916 14.7235 37.0065 14.2963 36.7119C13.3582 36.0648 13.1214 34.7751 13.7685 33.837C14.4156 32.8989 15.7053 32.6621 16.6434 33.3092C17.5815 33.9562 17.8183 35.2459 17.1712 36.1841C16.8767 36.6111 16.984 37.1962 17.4112 37.4908C17.8383 37.7855 18.4234 37.6781 18.718 37.2509C19.9533 35.4599 19.5012 32.9979 17.7103 31.7626C15.9194 30.5273 13.4572 30.9794 12.222 32.7703C10.9867 34.5612 11.4388 37.0233 13.2297 38.2586C13.6566 38.5533 14.2417 38.4458 14.5363 38.0187Z" fill="#00757E"/>
<path d="M42.5258 0H8.45486C6.83181 0 5.51122 1.32047 5.51122 2.94363V45.0313C5.51122 46.6545 6.83169 47.9749 8.45486 47.9749H29.4904C30.0092 47.9749 30.4299 47.5543 30.4299 47.0354C30.4299 46.5166 30.0093 46.0959 29.4904 46.0959H8.45486C7.86775 46.0959 7.39009 45.6183 7.39009 45.0312V2.94363C7.39009 2.35652 7.86775 1.87887 8.45486 1.87887H42.5258C43.1129 1.87887 43.5906 2.35652 43.5906 2.94363V38.0085C43.5906 38.5273 44.0112 38.948 44.5301 38.948C45.0489 38.948 45.4696 38.5274 45.4696 38.0085V2.94363C45.4695 1.32047 44.149 0 42.5258 0Z" fill="#00757E"/>
<path d="M51.3962 38.0969C50.523 38.0098 49.6503 38.2573 48.9596 38.7817C48.4094 37.8585 47.4712 37.2036 46.3857 37.0948C45.5123 37.0079 44.6397 37.2554 43.9492 37.7797C43.399 36.8565 42.4608 36.2015 41.3752 36.0928C40.7084 36.0262 40.0426 36.1546 39.4575 36.4524V24.4885C39.4575 23.5171 39.0443 22.586 38.3234 21.9338C37.6033 21.2823 36.6329 20.9642 35.6608 21.0615C33.9266 21.2351 32.5681 22.8032 32.5681 24.6315V36.6256L29.8065 39.3873C28.339 40.8548 27.7466 42.937 28.222 44.9573L30.3186 53.8679C31.1681 57.4785 34.352 60.0002 38.0612 60.0002H46.5347C50.9205 60.0002 54.4888 56.4321 54.4888 52.0461V41.6671C54.4889 39.8387 53.1304 38.2706 51.3962 38.0969ZM52.6099 52.0458C52.6099 55.3956 49.8846 58.121 46.5348 58.121H38.0613C35.2283 58.121 32.7964 56.195 32.1475 53.4372L30.0509 44.5266C29.7256 43.1444 30.131 41.7196 31.1351 40.7156L32.5681 39.2825V42.526C32.5681 43.0448 32.9887 43.4655 33.5076 43.4655C34.0265 43.4655 34.4471 43.0449 34.4471 42.526V24.6314C34.4471 23.7565 35.0625 23.0096 35.8482 22.9311C36.2995 22.8857 36.7311 23.0266 37.063 23.3271C37.3908 23.6237 37.5787 24.0471 37.5787 24.4886V41.0231C37.5787 41.5419 37.9993 41.9626 38.5182 41.9626C39.0371 41.9626 39.4577 41.542 39.4577 41.0231V39.5199C39.4577 39.0783 39.6456 38.6549 39.9734 38.3583C40.3056 38.0579 40.7369 37.9169 41.1882 37.9624C41.9738 38.041 42.5893 38.788 42.5893 39.6628V42.0249C42.5893 42.5437 43.0099 42.9644 43.5288 42.9644C44.0476 42.9644 44.4683 42.5438 44.4683 42.0249V40.5217C44.4683 40.0802 44.6561 39.6568 44.984 39.3602C45.3161 39.0597 45.7476 38.9188 46.1988 38.9642C46.9844 39.0428 47.5999 39.7898 47.5999 40.6646V43.0269C47.5999 43.5456 48.0205 43.9664 48.5394 43.9664C49.0582 43.9664 49.4789 43.5458 49.4789 43.0269V41.5237C49.4789 41.0821 49.6667 40.6587 49.9946 40.3621C50.3267 40.0618 50.7579 39.9207 51.2094 39.9663C51.995 40.0448 52.6105 40.7917 52.6105 41.6665V52.0458H52.6099Z" fill="#00757E"/>
</g>
<defs>
<clipPath id="clip0">
<rect width="60" height="60" fill="white"/>
</clipPath>
</defs>
</svg>
