<svg width="60" height="60" viewBox="0 0 60 60" fill="none" xmlns="http://www.w3.org/2000/svg">
<path d="M59.9158 33.397C59.9156 33.3967 59.9156 33.3966 59.9155 33.3963L48.5873 4.95203C48.3468 4.34766 47.6618 4.05262 47.0574 4.29304C47.057 4.29319 47.0565 4.29334 47.0561 4.29363L1.0989 22.5934C0.911482 22.6743 0.748944 22.8036 0.627776 22.9679C0.245575 23.1665 0.00412236 23.5596 0 23.9902V54.6135C0 55.2639 0.527367 55.7913 1.17782 55.7913H50.6461C51.2965 55.7913 51.8239 55.2639 51.8239 54.6135V37.8885L59.2583 34.9274C59.8625 34.6864 60.1568 34.0012 59.9158 33.397ZM49.4683 53.4356H2.35563V25.1681H49.4683V53.4356ZM19.6519 22.8183L39.3732 14.9599C41.1333 16.81 43.5721 17.8615 46.1256 17.8715L48.0926 22.8183H19.6519ZM51.8239 35.3585V23.9902C51.8239 23.3398 51.2965 22.8124 50.6461 22.8124H50.6272L48.1315 16.5441C48.1038 16.4918 48.0715 16.4421 48.0349 16.3957C47.9085 15.8284 47.3832 15.4414 46.804 15.4888C44.4281 15.7053 42.1038 14.7045 40.6288 12.8293C40.2617 12.3762 39.6166 12.2636 39.1176 12.5654C39.0617 12.5721 39.0062 12.5824 38.9515 12.5961L14.8746 22.1835C14.5833 22.2977 14.3502 22.5243 14.228 22.8124H6.91614L46.8347 6.9178L57.2925 33.1772L51.8239 35.3585Z" fill="#00757E"/>
<path d="M5.55226 45.4844C7.83899 46.1603 9.62839 47.9475 10.3071 50.2333C10.456 50.7323 10.9149 51.0741 11.4355 51.0743C11.4966 51.0704 11.5572 51.0613 11.6168 51.0472C11.6697 51.0622 11.7237 51.0732 11.7782 51.0802H40.0458C40.0944 51.0738 40.1424 51.064 40.1895 51.0507C40.7779 51.1938 41.371 50.833 41.5142 50.2445C41.5147 50.2423 41.5153 50.2402 41.5157 50.238C42.1926 47.9498 43.9823 46.1601 46.2705 45.4832C46.8254 45.3136 47.1702 44.7606 47.0785 44.1876C47.0943 44.1305 47.1056 44.0722 47.1127 44.0133V34.5907C47.1058 34.5317 47.094 34.4734 47.0773 34.4164C47.1697 33.8433 46.8247 33.29 46.2694 33.1208C43.9812 32.444 42.1919 30.6536 41.5169 28.3648C41.3464 27.8061 40.7879 27.4604 40.2118 27.5568C40.1574 27.5416 40.1019 27.5306 40.0458 27.5238H11.7782C11.7189 27.5309 11.6601 27.5427 11.6027 27.5592C11.0298 27.4679 10.4772 27.8125 10.3071 28.3672C9.62972 30.6549 7.84017 32.444 5.55226 33.1208C4.99737 33.2904 4.65256 33.8434 4.74428 34.4164C4.72897 34.4737 4.71793 34.5318 4.7113 34.5907V44.0133C4.71808 44.0686 4.72912 44.1234 4.74428 44.177C4.6477 44.7537 4.99324 45.3128 5.55226 45.4844ZM7.06694 35.0689C9.43199 34.119 11.3065 32.2445 12.2564 29.8795H39.5664C40.5168 32.2445 42.3917 34.119 44.757 35.0689V43.5351C42.3927 44.486 40.5185 46.3602 39.5676 48.7245H12.2564C11.3055 46.3602 9.43125 44.486 7.06694 43.5351V35.0689Z" fill="#00757E"/>
<path d="M25.912 46.3689C29.815 46.3689 32.9789 43.205 32.9789 39.302C32.9789 35.3991 29.815 32.2352 25.912 32.2352C22.009 32.2352 18.8451 35.3991 18.8451 39.302C18.8489 43.2034 22.0106 46.3651 25.912 46.3689ZM25.912 34.5908C28.5139 34.5908 30.6233 36.7001 30.6233 39.302C30.6233 41.904 28.5139 44.0133 25.912 44.0133C23.31 44.0133 21.2007 41.904 21.2007 39.302C21.2007 36.7001 23.31 34.5908 25.912 34.5908Z" fill="#00757E"/>
<path d="M12.9559 41.0688C13.9316 41.0688 14.7227 40.2777 14.7227 39.302C14.7227 38.3263 13.9316 37.5353 12.9559 37.5353C11.9803 37.5353 11.1892 38.3263 11.1892 39.302C11.1892 40.2779 11.9803 41.0688 12.9559 41.0688ZM12.9559 38.7131C13.2812 38.7131 13.5448 38.9768 13.5448 39.302C13.5448 39.6273 13.2812 39.8909 12.9559 39.8909C12.6307 39.8909 12.367 39.6273 12.367 39.302C12.367 38.9768 12.6307 38.7131 12.9559 38.7131Z" fill="#00757E"/>
<path d="M38.8679 41.0688C39.8436 41.0688 40.6347 40.2777 40.6347 39.302C40.6347 38.3263 39.8436 37.5353 38.8679 37.5353C37.8922 37.5353 37.1012 38.3263 37.1012 39.302C37.1012 40.2779 37.8922 41.0688 38.8679 41.0688ZM38.8679 38.7131C39.1931 38.7131 39.4568 38.9768 39.4568 39.302C39.4568 39.6273 39.1931 39.8909 38.8679 39.8909C38.5427 39.8909 38.279 39.6273 38.279 39.302C38.279 38.9768 38.5427 38.7131 38.8679 38.7131Z" fill="#00757E"/>
</svg>
