<svg width="60" height="51" viewBox="0 0 60 51" fill="none" xmlns="http://www.w3.org/2000/svg">
<path fill-rule="evenodd" clip-rule="evenodd" d="M2.36653 12.163L29.9995 47.419L57.6325 12.163L49.7215 5.13L37.2245 8.015L30.1415 9.03C30.0475 9.043 29.9515 9.043 29.8585 9.03L22.8585 8.03L10.2785 5.13L2.36653 12.163ZM29.9995 50.04C29.6925 50.04 29.4025 49.899 29.2125 49.657L0.212525 12.657C-0.112475 12.241 -0.0594749 11.643 0.335525 11.292L9.33553 3.292C9.57653 3.078 9.90753 2.991 10.2245 3.065L23.2245 6.065L29.9995 7.03L36.8585 6.05L49.7755 3.065C50.0905 2.995 50.4225 3.078 50.6635 3.292L59.6635 11.292C60.0595 11.643 60.1135 12.241 59.7865 12.657L30.7865 49.657C30.5975 49.899 30.3065 50.04 29.9995 50.04Z" fill="#00757E"/>
<path fill-rule="evenodd" clip-rule="evenodd" d="M14.0972 3.95806L23.2252 6.06406L29.9992 7.02906L36.8582 6.04906L45.7232 4.00106L37.8772 2.03906H21.1342L14.0972 3.95806ZM30.0002 9.03906C29.9522 9.03906 29.9052 9.03606 29.8582 9.02906L22.8582 8.02906L9.77519 5.01406C9.32819 4.91106 9.00919 4.51706 9.00019 4.05906C8.99119 3.60106 9.29519 3.19506 9.73719 3.07406L20.7372 0.0740625C20.8232 0.0510625 20.9112 0.0390625 21.0002 0.0390625H38.0002C38.0812 0.0390625 38.1632 0.0490625 38.2432 0.0690625L50.2422 3.06906C50.6912 3.18106 51.0042 3.58606 51.0002 4.04806C50.9962 4.51006 50.6752 4.91006 50.2242 5.01406L37.2252 8.01406L30.1412 9.02906C30.0952 9.03606 30.0472 9.03906 30.0002 9.03906Z" fill="#00757E"/>
<path fill-rule="evenodd" clip-rule="evenodd" d="M3.75524 13.9344L25.0262 41.0724L13.2902 16.8684L3.75524 13.9344ZM30.0012 50.0404C29.7032 50.0404 29.4092 49.9074 29.2132 49.6574L0.213239 12.6574C-0.0567608 12.3134 -0.0717607 11.8334 0.176239 11.4744C0.424239 11.1134 0.876239 10.9534 1.29424 11.0844L14.2942 15.0844C14.5602 15.1664 14.7792 15.3544 14.9002 15.6044L30.9002 48.6044C31.1232 49.0634 30.9632 49.6184 30.5302 49.8884C30.3662 49.9914 30.1822 50.0404 30.0012 50.0404Z" fill="#00757E"/>
<path fill-rule="evenodd" clip-rule="evenodd" d="M46.7103 16.8669L34.9753 41.0719L56.2453 13.9329L46.7103 16.8669ZM30.0003 50.0389C29.8183 50.0389 29.6343 49.9899 29.4703 49.8879C29.0373 49.6169 28.8773 49.0629 29.1003 48.6029L45.1003 15.6029C45.2213 15.3529 45.4403 15.1649 45.7063 15.0839L58.7063 11.0839C59.1233 10.9539 59.5773 11.1139 59.8243 11.4729C60.0713 11.8329 60.0573 12.3119 59.7873 12.6559L30.7873 49.6559C30.5913 49.9059 30.2973 50.0389 30.0003 50.0389Z" fill="#00757E"/>
<path fill-rule="evenodd" clip-rule="evenodd" d="M50.4687 5.79327L47.5637 14.5113L57.0077 11.6053L50.4687 5.79327ZM45.9997 17.0383C45.7347 17.0383 45.4757 16.9333 45.2847 16.7373C45.0227 16.4693 44.9327 16.0773 45.0517 15.7223L49.0517 3.72227C49.1567 3.40327 49.4167 3.15927 49.7417 3.07227C50.0667 2.98727 50.4137 3.06727 50.6637 3.29127L59.6637 11.2913C59.9347 11.5313 60.0537 11.8973 59.9777 12.2513C59.9007 12.6043 59.6397 12.8883 59.2937 12.9943L46.2937 16.9943C46.1977 17.0233 46.0977 17.0383 45.9997 17.0383Z" fill="#00757E"/>
<path fill-rule="evenodd" clip-rule="evenodd" d="M2.99255 11.6053L12.4366 14.5113L9.53055 5.79327L2.99255 11.6053ZM13.9996 17.0383C13.9016 17.0383 13.8026 17.0233 13.7056 16.9943L0.705552 12.9943C0.360552 12.8883 0.0995522 12.6043 0.0225522 12.2513C-0.0534478 11.8973 0.0655522 11.5313 0.335552 11.2913L9.33555 3.29127C9.58755 3.06727 9.93255 2.98727 10.2586 3.07227C10.5826 3.15927 10.8426 3.40327 10.9486 3.72227L14.9486 15.7223C15.0676 16.0773 14.9766 16.4693 14.7156 16.7373C14.5246 16.9333 14.2646 17.0383 13.9996 17.0383Z" fill="#00757E"/>
<path fill-rule="evenodd" clip-rule="evenodd" d="M15.703 17.2594L29 44.6844V18.9214L15.703 17.2594ZM29.999 50.0384C29.623 50.0384 29.27 49.8254 29.1 49.4744L13.1 16.4744C12.94 16.1454 12.974 15.7544 13.187 15.4564C13.401 15.1584 13.761 15.0024 14.124 15.0464L30.124 17.0464C30.624 17.1094 31 17.5344 31 18.0384V49.0384C31 49.5044 30.678 49.9084 30.224 50.0134C30.149 50.0304 30.074 50.0384 29.999 50.0384Z" fill="#00757E"/>
<path fill-rule="evenodd" clip-rule="evenodd" d="M31 18.9217V44.6847L44.297 17.2597L31 18.9217ZM30 50.0387C29.926 50.0387 29.851 50.0307 29.776 50.0137C29.322 49.9087 29 49.5047 29 49.0387V18.0387C29 17.5347 29.375 17.1097 29.876 17.0467L45.876 15.0467C46.241 15.0017 46.6 15.1587 46.813 15.4567C47.026 15.7547 47.06 16.1457 46.9 16.4747L30.9 49.4747C30.73 49.8257 30.377 50.0387 30 50.0387Z" fill="#00757E"/>
<path fill-rule="evenodd" clip-rule="evenodd" d="M16.1531 15.3006L28.0161 16.7836L22.8261 8.6276L16.1531 15.3006ZM30.0001 19.0396C29.9591 19.0396 29.9181 19.0366 29.8761 19.0316L13.8761 17.0316C13.4971 16.9846 13.1781 16.7256 13.0541 16.3636C12.9301 16.0026 13.0231 15.6026 13.2931 15.3326L22.2931 6.3326C22.5071 6.1176 22.8091 6.0106 23.1091 6.0456C23.4111 6.0786 23.6811 6.2466 23.8441 6.5026L30.8441 17.5026C31.0521 17.8296 31.0521 18.2466 30.8451 18.5736C30.6601 18.8656 30.3401 19.0396 30.0001 19.0396Z" fill="#00757E"/>
<path fill-rule="evenodd" clip-rule="evenodd" d="M37.1746 8.62799L31.9846 16.784L43.8476 15.301L37.1746 8.62799ZM30.0006 19.04C29.6606 19.04 29.3406 18.866 29.1546 18.574C28.9476 18.247 28.9486 17.83 29.1566 17.503L36.1566 6.50299C36.3196 6.24699 36.5896 6.07899 36.8916 6.04499C37.1926 6.01199 37.4926 6.11799 37.7076 6.33299L46.7076 15.333C46.9776 15.603 47.0696 16.003 46.9456 16.364C46.8216 16.726 46.5036 16.984 46.1246 17.032L30.1246 19.032C30.0826 19.037 30.0416 19.04 30.0006 19.04Z" fill="#00757E"/>
</svg>
