<svg width="120" height="120" viewBox="0 0 120 120" fill="none" xmlns="http://www.w3.org/2000/svg">
<g clip-path="url(#clip0)">
<path d="M113.862 0H70.138C66.7494 0.00330752 64.0033 2.74945 64 6.138V43.862C64.0023 47.1975 66.6655 49.9218 70 50V58.966C69.9983 60.1255 70.6575 61.1845 71.6986 61.6949C72.7397 62.2052 73.9806 62.0776 74.896 61.366L89.736 50H113.862C117.251 49.9967 119.997 47.2506 120 43.862V6.138C119.997 2.74945 117.251 0.00330752 113.862 0ZM116 43.862C115.999 45.0423 115.042 45.9989 113.862 46H82C80.8954 46 80 46.8954 80 48C80 49.1046 80.8954 50 82 50H83.156L74 57V50C75.1046 50 76 49.1046 76 48C76 46.8954 75.1046 46 74 46H70.138C68.9577 45.9989 68.0011 45.0423 68 43.862V6.138C68.0011 4.95767 68.9577 4.0011 70.138 4H113.862C115.042 4.0011 115.999 4.95767 116 6.138V43.862Z" fill="#00757E"/>
<path d="M1.11538 61.83C2.41946 64.9037 4.72991 67.4427 7.66738 69.03C7.46138 74.688 7.60138 78.556 12.0014 83.116V94.516L2.86938 97.2C1.17324 97.708 0.00881587 99.2654 0.00137545 101.036V116C0.00137545 118.209 1.79224 120 4.00138 120H80.0014C80.6386 120.001 81.238 119.698 81.6153 119.184C81.9926 118.671 82.1026 118.008 81.9114 117.4C81.0954 104.368 73.9614 102.16 73.6674 102.076L48.0014 94.506V83.116C52.4014 78.554 52.5314 74.602 52.3374 69.024C55.2998 67.4255 57.6229 64.8574 58.9174 61.75C59.8354 58.856 60.7434 54.15 59.1174 51.724C60.5588 45.6415 60.2404 39.2744 58.1994 33.366C53.7714 20.152 31.1234 20 30.1614 20C16.2134 20 11.8434 25.656 10.7194 28.058C0.351376 29.024 -1.29662 41.55 0.933375 51.658C-0.754625 54.086 0.157376 58.85 1.11538 61.83ZM4.91538 60.612C4.19694 58.5057 3.92052 56.2739 4.10338 54.056C4.82932 53.9662 5.56412 54.1279 6.18538 54.514C6.47448 57.7356 6.9311 60.9399 7.55338 64.114C6.43088 63.1533 5.53307 61.9578 4.92338 60.612H4.91538ZM16.0014 87.368C19.2674 91.6 20.7854 96 26.8814 96C35.8574 96 37.4814 96.828 42.1434 89.964C42.7034 89.142 43.3094 88.266 44.0014 87.364V95.692C40.8994 104.132 19.1774 104.166 16.0014 95.692V87.368ZM77.7734 116H4.00138V101.036L12.9014 98.41C14.4854 101.2 18.8234 106 30.0014 106C41.1794 106 45.5174 101.2 47.1014 98.4L72.5014 105.898C72.6914 105.972 76.7794 107.462 77.7734 116ZM44.2534 81.182C38.1214 86.762 37.8894 92 33.1214 92C24.5214 92 24.6214 92.8 21.1654 87.714C19.6374 85.3197 17.8174 83.1248 15.7474 81.18C11.3694 77.2 11.4934 73.874 11.6494 69.66C11.9754 60.824 10.6074 62.042 10.1354 53.46C10.3834 52.2 11.9074 45.092 15.6514 41.33C16.3173 40.713 17.184 40.3578 18.0914 40.33C22.8334 40.018 38.6914 39.238 44.9854 42.156C45.4874 42.556 48.6134 45.31 49.8914 53.444C49.3874 62.134 48.0274 60.818 48.3554 69.656C48.5114 73.872 48.6334 77.2 44.2534 81.182ZM55.1114 60.528C54.4951 61.9001 53.5842 63.1196 52.4434 64.1C53.0699 60.9259 53.5325 57.7217 53.8294 54.5C54.4466 54.1189 55.1755 53.9601 55.8954 54.05C56.0814 56.2403 55.8145 58.4454 55.1114 60.528ZM6.21138 34.836C7.30448 33.1843 9.11376 32.1462 11.0914 32.036C12.4218 31.9024 13.5895 31.0929 14.1814 29.894C14.8814 28.51 18.1034 24 30.1614 24C30.3614 24 50.8834 24.122 54.4054 34.638C56.1149 39.5802 56.4604 44.892 55.4054 50.014C54.715 50.0332 54.0311 50.1531 53.3754 50.37C51.4434 41.69 47.5334 39.02 47.0554 38.724C41.6894 35.358 24.2134 35.924 17.8354 36.34C15.9554 36.4314 14.1731 37.2042 12.8214 38.514C9.85369 41.9233 7.76621 46.0077 6.74138 50.41C6.07439 50.1746 5.37607 50.0398 4.66938 50.01C3.89738 45.946 3.50338 38.8 6.21138 34.836Z" fill="#00757E"/>
<path d="M108 10H76C74.8954 10 74 10.8954 74 12C74 13.1046 74.8954 14 76 14H108C109.105 14 110 13.1046 110 12C110 10.8954 109.105 10 108 10Z" fill="#00757E"/>
<path d="M108 18H76C74.8954 18 74 18.8954 74 20C74 21.1046 74.8954 22 76 22H108C109.105 22 110 21.1046 110 20C110 18.8954 109.105 18 108 18Z" fill="#00757E"/>
<path d="M108 26H76C74.8954 26 74 26.8954 74 28C74 29.1046 74.8954 30 76 30H108C109.105 30 110 29.1046 110 28C110 26.8954 109.105 26 108 26Z" fill="#00757E"/>
<path d="M86 34H76C74.8954 34 74 34.8954 74 36C74 37.1046 74.8954 38 76 38H86C87.1046 38 88 37.1046 88 36C88 34.8954 87.1046 34 86 34Z" fill="#00757E"/>
</g>
<defs>
<clipPath id="clip0">
<rect width="120" height="120" fill="white"/>
</clipPath>
</defs>
</svg>
