<svg width="60" height="61" viewBox="0 0 60 61" fill="none" xmlns="http://www.w3.org/2000/svg">
<path fill-rule="evenodd" clip-rule="evenodd" d="M18.3661 1.08895C18.0031 1.4518 17.9979 1.49455 17.9979 4.08895V6.7207H17.1662C16.4831 6.7207 16.2686 6.78655 15.9664 7.08895L15.5982 7.45705V12.489V17.5207H8.16729H0.736264L0.368207 17.889L0 18.2571V39.1207V59.9844L0.368207 60.3525L0.736264 60.7207H29.9965H59.2567L59.6283 60.349L60 59.9773L59.9589 45.0543C59.9226 31.8358 59.8916 30.105 59.6864 29.8998C59.5591 29.7724 56.0832 27.8614 51.9623 25.6531L44.4698 21.6381L44.3948 14.4661L44.3198 7.294L43.9657 7.00735C43.7151 6.8044 43.3757 6.7207 42.8033 6.7207H41.9951V4.08895C41.9951 1.49455 41.9898 1.4518 41.6269 1.08895L41.2588 0.720703H29.9965H18.7341L18.3661 1.08895ZM39.5953 4.9207V6.7207H29.9965H20.3976V4.9207V3.1207H29.9965H39.5953V4.9207ZM41.9951 33.7207V58.3207H40.1953H38.3955V52.089V45.8571L38.0273 45.489L37.6592 45.1207H29.9965H22.3337L21.9657 45.489L21.5975 45.8571V52.089V58.3207H19.7977H17.9979V33.7207V9.1207H29.9965H41.9951V33.7207ZM21.9657 13.089C21.6005 13.4541 21.5975 13.4803 21.5975 16.3207C21.5975 20.1763 21.3419 19.9207 25.197 19.9207C28.0371 19.9207 28.0634 19.9177 28.4284 19.5525C28.7936 19.1874 28.7966 19.1611 28.7966 16.3207C28.7966 12.4651 29.0522 12.7207 25.197 12.7207C22.357 12.7207 22.3307 12.7237 21.9657 13.089ZM31.5645 13.089C31.1993 13.4541 31.1963 13.4803 31.1963 16.3207C31.1963 20.1763 30.9408 19.9207 34.7959 19.9207C38.6511 19.9207 38.3955 20.1763 38.3955 16.3207C38.3955 12.4651 38.6511 12.7207 34.7959 12.7207C31.9558 12.7207 31.9296 12.7237 31.5645 13.089ZM26.3969 16.3207V17.5207H25.197H23.9972V16.3207V15.1207H25.197H26.3969V16.3207ZM35.9958 16.3207V17.5207H34.7959H33.5961V16.3207V15.1207H34.7959H35.9958V16.3207ZM15.5982 21.7207V23.5207H10.567H5.5357L5.16764 23.889C4.80244 24.2541 4.79944 24.2803 4.79944 27.1207C4.79944 29.9611 4.80244 29.9874 5.16764 30.3525L5.5357 30.7207H10.567H15.5982V32.5207V34.3207H10.567H5.5357L5.16764 34.689C4.80244 35.0541 4.79944 35.0803 4.79944 37.9207C4.79944 40.7611 4.80244 40.7874 5.16764 41.1525L5.5357 41.5207H10.567H15.5982V43.3207V45.1207H10.567H5.5357L5.16764 45.489C4.80244 45.8541 4.79944 45.8803 4.79944 48.7207C4.79944 51.5611 4.80244 51.5874 5.16764 51.9525L5.5357 52.3207H10.567H15.5982V55.3207V58.3207H8.99894H2.39972V39.1207V19.9207H8.99894H15.5982V21.7207ZM21.9657 23.889C21.6005 24.2541 21.5975 24.2803 21.5975 27.1207C21.5975 30.9763 21.3419 30.7207 25.197 30.7207C28.0371 30.7207 28.0634 30.7177 28.4284 30.3525C28.7936 29.9874 28.7966 29.9611 28.7966 27.1207C28.7966 23.2651 29.0522 23.5207 25.197 23.5207C22.357 23.5207 22.3307 23.5237 21.9657 23.889ZM31.5645 23.889C31.1993 24.2541 31.1963 24.2803 31.1963 27.1207C31.1963 30.9763 30.9408 30.7207 34.7959 30.7207C37.636 30.7207 37.6622 30.7177 38.0273 30.3525C38.3925 29.9874 38.3955 29.9611 38.3955 27.1207C38.3955 23.2651 38.6511 23.5207 34.7959 23.5207C31.9558 23.5207 31.9296 23.5237 31.5645 23.889ZM51.144 27.9703L57.5182 31.3965L57.5565 44.8585L57.5949 58.3207H50.9948H44.3948V41.3547C44.3948 27.8404 44.4329 24.4044 44.5823 24.4663C44.6855 24.5091 47.6382 26.0859 51.144 27.9703ZM15.5982 27.1207V28.3207H11.3987H7.19915V27.1207V25.9207H11.3987H15.5982V27.1207ZM26.3969 27.1207V28.3207H25.197H23.9972V27.1207V25.9207H25.197H26.3969V27.1207ZM35.9958 27.1207V28.3207H34.7959H33.5961V27.1207V25.9207H34.7959H35.9958V27.1207ZM21.9657 34.689C21.6005 35.0541 21.5975 35.0803 21.5975 37.9207C21.5975 41.7763 21.3419 41.5207 25.197 41.5207C29.0522 41.5207 28.7966 41.7763 28.7966 37.9207C28.7966 34.0651 29.0522 34.3207 25.197 34.3207C22.357 34.3207 22.3307 34.3237 21.9657 34.689ZM31.5645 34.689C31.1993 35.0541 31.1963 35.0803 31.1963 37.9207C31.1963 41.7763 30.9408 41.5207 34.7959 41.5207C37.636 41.5207 37.6622 41.5177 38.0273 41.1525C38.3925 40.7874 38.3955 40.7611 38.3955 37.9207C38.3955 34.0651 38.6511 34.3207 34.7959 34.3207C31.9558 34.3207 31.9296 34.3237 31.5645 34.689ZM47.1627 34.689C46.7975 35.0541 46.7945 35.0803 46.7945 37.9207C46.7945 41.7763 46.5389 41.5207 50.3941 41.5207C53.2341 41.5207 53.2604 41.5177 53.6255 41.1525C53.9907 40.7874 53.9937 40.7611 53.9937 37.9207C53.9937 34.0651 54.2492 34.3207 50.3941 34.3207C47.554 34.3207 47.5278 34.3237 47.1627 34.689ZM15.5982 37.9207V39.1207H11.3987H7.19915V37.9207V36.7207H11.3987H15.5982V37.9207ZM26.3969 37.9207V39.1207H25.197H23.9972V37.9207V36.7207H25.197H26.3969V37.9207ZM35.9958 37.9207V39.1207H34.7959H33.5961V37.9207V36.7207H34.7959H35.9958V37.9207ZM51.5939 37.9207V39.1207H50.3941H49.1942V37.9207V36.7207H50.3941H51.5939V37.9207ZM47.1627 45.489C46.7975 45.8541 46.7945 45.8803 46.7945 48.7207C46.7945 52.5763 46.5389 52.3207 50.3941 52.3207C53.2341 52.3207 53.2604 52.3177 53.6255 51.9525C53.9907 51.5874 53.9937 51.5611 53.9937 48.7207C53.9937 44.8651 54.2492 45.1207 50.3941 45.1207C47.554 45.1207 47.5278 45.1237 47.1627 45.489ZM15.5982 48.7207V49.9207H11.3987H7.19915V48.7207V47.5207H11.3987H15.5982V48.7207ZM35.9958 52.9207V58.3207H29.9965H23.9972V52.9207V47.5207H29.9965H35.9958V52.9207ZM51.5939 48.7207V49.9207H50.3941H49.1942V48.7207V47.5207H50.3941H51.5939V48.7207Z" fill="#00757E"/>
</svg>
