<svg width="122" height="120" viewBox="0 0 122 120" fill="none" xmlns="http://www.w3.org/2000/svg">
<path fill-rule="evenodd" clip-rule="evenodd" d="M60.082 102C36.924 102 18.082 83.158 18.082 60C18.082 36.842 36.924 18 60.082 18C83.24 18 102.082 36.842 102.082 60C102.082 83.158 83.24 102 60.082 102Z" stroke="#00757E" stroke-width="4"/>
<path d="M60.082 24V28" stroke="#00757E" stroke-width="4" stroke-linecap="round"/>
<path d="M60.082 92V96" stroke="#00757E" stroke-width="4" stroke-linecap="round"/>
<path d="M96.082 60H92.082" stroke="#00757E" stroke-width="4" stroke-linecap="round"/>
<path d="M28.082 60H24.082" stroke="#00757E" stroke-width="4" stroke-linecap="round"/>
<path fill-rule="evenodd" clip-rule="evenodd" d="M66.082 58C66.082 61.314 63.396 64 60.082 64C56.768 64 54.082 61.314 54.082 58C54.082 54.686 56.768 52 60.082 52C63.396 52 66.082 54.686 66.082 58Z" stroke="#00757E" stroke-width="4" stroke-linecap="round"/>
<path d="M60.082 52V40" stroke="#00757E" stroke-width="4" stroke-linecap="round"/>
<path d="M55.84 62.2422L38.082 80.0002" stroke="#00757E" stroke-width="4" stroke-linecap="round"/>
<path d="M20.082 18.038C30.496 8.106 44.59 2 60.082 2C92.062 2 118.082 28.018 118.082 60" stroke="#00757E" stroke-width="4" stroke-linecap="round"/>
<path d="M36.082 18H20.082V2" stroke="#00757E" stroke-width="4" stroke-linecap="round"/>
<path d="M118.082 60C118.082 91.98 92.062 118 60.082 118C28.102 118 2.08203 91.98 2.08203 60" stroke="#00757E" stroke-width="4" stroke-linecap="round" stroke-dasharray="1 4"/>
</svg>
