<svg width="60" height="61" viewBox="0 0 60 61" fill="none" xmlns="http://www.w3.org/2000/svg">
<g clip-path="url(#clip0)">
<path d="M29.3225 29.4737L13.0372 45.7588C12.5071 46.2889 12.5071 47.1484 13.0372 47.6787C13.3023 47.9436 13.6497 48.0763 13.9971 48.0763C14.3445 48.0763 14.6918 47.9436 14.9569 47.6787L31.2422 31.3935C31.7723 30.8634 31.7723 30.0039 31.2422 29.4738C30.7121 28.9436 29.8526 28.9437 29.3225 29.4737Z" fill="#00757E"/>
<path d="M54.7336 5.98346C51.34 2.58966 46.8277 0.720703 42.0283 0.720703C37.2288 0.720703 32.7167 2.58966 29.3229 5.98346C24.0753 11.2312 22.6115 19.0965 25.5387 25.8367L0.42466 50.9514C0.170814 51.2053 0.0278726 51.5494 0.0270581 51.9084L0.0117188 59.344C0.0117188 59.3569 0.0118545 59.3699 0.0122617 59.3828C0.0122617 59.3831 0.0122617 59.3835 0.0122617 59.3837C0.0122617 59.3839 0.0122617 59.3841 0.0122617 59.3843C0.0214925 59.719 0.153845 60.0511 0.409321 60.3065C0.668054 60.5653 1.00525 60.6976 1.34434 60.7039C1.34434 60.7039 1.34448 60.7039 1.34461 60.7039C1.34516 60.7039 1.34556 60.7039 1.34692 60.7039C1.35181 60.7017 1.3609 60.704 1.36769 60.704L15.7874 60.7207C15.7879 60.7207 15.7885 60.7207 15.789 60.7207C16.1486 60.7207 16.4938 60.5779 16.7483 60.3237C17.0033 60.069 17.1465 59.7235 17.1465 59.3632V53.7074H22.8022C23.5518 53.7074 24.1597 53.0996 24.1597 52.3499L24.1598 46.694H29.8156C30.5652 46.694 31.173 46.0863 31.173 45.3365V38.8855L34.8804 35.1781C37.1817 36.1776 39.6132 36.6652 42.0279 36.6651C46.6853 36.6648 51.2776 34.8498 54.7338 31.3939C61.7392 24.3883 61.7392 12.9891 54.7336 5.98346ZM52.8138 29.4741C48.1601 34.1282 41.0817 35.2766 35.2002 32.3323C34.6773 32.0704 34.0458 32.1729 33.6326 32.5863L28.8556 37.3633C28.601 37.6179 28.458 37.9632 28.458 38.3232V43.9791H22.8022C22.0526 43.9791 21.4448 44.5868 21.4448 45.3365L21.4446 50.9924H15.7889C15.0393 50.9924 14.4314 51.6002 14.4314 52.3499V58.0041L4.64258 57.9929L11.1176 51.5179C11.6476 50.9878 11.6476 50.1283 11.1176 49.5982C10.5873 49.0681 9.72806 49.0681 9.19769 49.5982L2.7333 56.0626L2.74077 52.4744L28.1307 27.0839C28.544 26.6706 28.6464 26.0391 28.3847 25.5165C25.4402 19.6351 26.5889 12.5569 31.2428 7.90306C34.1238 5.02224 37.9541 3.43564 42.0283 3.43564C46.1024 3.43564 49.9328 5.02224 52.8138 7.90319C55.6947 10.7841 57.2813 14.6144 57.2813 18.6887C57.2813 22.763 55.6947 26.5933 52.8138 29.4741Z" fill="#00757E"/>
<path d="M41.1829 10.5116C38.6955 12.9993 38.6955 17.0468 41.1829 19.5345C42.4268 20.7784 44.0606 21.4001 45.6944 21.4001C47.3282 21.4001 48.962 20.7782 50.2058 19.5344C52.6932 17.0468 52.6932 12.9991 50.2058 10.5116C47.7181 8.02414 43.6706 8.02414 41.1829 10.5116ZM48.286 17.6148C46.857 19.0436 44.5318 19.0436 43.1027 17.6148C41.6737 16.1858 41.6737 13.8604 43.1027 12.4313C44.5317 11.0023 46.8572 11.0024 48.286 12.4313C49.715 13.8604 49.715 16.1858 48.286 17.6148Z" fill="#00757E"/>
</g>
<defs>
<clipPath id="clip0">
<rect width="60" height="60" fill="white" transform="translate(0 0.720703)"/>
</clipPath>
</defs>
</svg>
