<svg width="60" height="70" viewBox="0 0 60 70" fill="none" xmlns="http://www.w3.org/2000/svg">
<path d="M58.6131 12.0875C48.982 9.44851 39.2943 5.33944 30.5972 0.204565C30.1352 -0.0681883 29.562 -0.0681883 29.1001 0.204565C20.1522 5.48696 10.9879 9.37373 1.08336 12.0875C0.443515 12.2626 0 12.8442 0 13.5077V28.553C0 44.0464 7.1475 54.3019 13.1437 60.1768C19.599 66.5021 27.1185 70 29.8487 70C32.5785 70 40.098 66.5021 46.5533 60.1768C52.5494 54.302 59.6965 44.0465 59.6965 28.553V13.5075C59.6965 12.8442 59.253 12.2626 58.6131 12.0875ZM56.7516 28.5529C56.7516 43.0236 50.085 52.5932 44.4922 58.0731C38.1442 64.2931 31.3571 67.0548 29.8487 67.0548C28.3402 67.0548 21.5527 64.2931 15.2046 58.0731C9.61186 52.593 2.94505 43.0236 2.94505 28.5529V14.6254C12.4166 11.9361 21.2374 8.18305 29.8489 3.17874C38.2454 8.05029 47.5063 11.99 56.7516 14.6248V28.5529Z" fill="#00757E"/>
<path d="M16.7969 14.4607C16.4989 13.7039 15.644 13.3322 14.8871 13.6304C12.2566 14.6669 9.55669 15.6209 6.86238 16.4661C6.24838 16.6588 5.83057 17.2276 5.83057 17.871V23.5573C5.83057 24.3705 6.48996 25.0297 7.30303 25.0297C8.11609 25.0297 8.77548 24.3705 8.77548 23.5573V18.9471C11.1925 18.1651 13.607 17.3001 15.9666 16.3702C16.7233 16.0723 17.0951 15.2174 16.7969 14.4607Z" fill="#00757E"/>
<path d="M47.3921 47.48C46.7117 47.0353 45.7992 47.2266 45.3539 47.9073C44.1405 49.7645 42.717 51.5429 41.1223 53.1927C39.8109 54.5492 38.3899 55.8136 36.8987 56.9504C36.2521 57.4434 36.1277 58.3673 36.6206 59.0142C36.9106 59.3941 37.349 59.594 37.7925 59.594C38.104 59.594 38.4178 59.4957 38.6844 59.2922C40.2929 58.0657 41.8255 56.7022 43.2394 55.2396C44.9636 53.4563 46.5044 51.5313 47.8194 49.5181C48.2644 48.8372 48.0728 47.9248 47.3921 47.48Z" fill="#00757E"/>
<path d="M19.8117 31.9944C18.9076 31.0902 17.7052 30.5925 16.4263 30.5925C15.1474 30.5925 13.9449 31.0903 13.0403 31.9944C11.1737 33.8614 11.1737 36.8993 13.0403 38.7662L21.7351 47.4607C22.6393 48.3647 23.8418 48.8625 25.1208 48.8625C26.3998 48.8625 27.6022 48.3647 28.5066 47.4604L46.6575 29.3094C48.524 27.442 48.524 24.4045 46.6572 22.5381C45.753 21.6339 44.5505 21.1362 43.2714 21.1362C41.9924 21.1362 40.79 21.634 39.8856 22.5381L25.1207 37.3031L19.8117 31.9944ZM41.9681 24.6206C42.316 24.2727 42.7791 24.0811 43.2715 24.0811C43.7643 24.0811 44.2269 24.2727 44.5751 24.6206C45.2936 25.3391 45.2936 26.5086 44.5749 27.2273L26.4243 45.3781C26.0763 45.726 25.6132 45.9175 25.1208 45.9175C24.6283 45.9175 24.1653 45.726 23.8172 45.3781L15.1227 36.6839C14.404 35.9651 14.404 34.7956 15.1224 34.0772C15.4705 33.7292 15.9336 33.5374 16.4262 33.5374C16.9188 33.5374 17.3816 33.729 17.7295 34.0769L24.0794 40.4269C24.3557 40.703 24.73 40.8581 25.1207 40.8581C25.5113 40.8581 25.8856 40.7031 26.1616 40.4269L41.9681 24.6206Z" fill="#00757E"/>
</svg>
