<svg width="70" height="70" viewBox="0 0 70 70" fill="none" xmlns="http://www.w3.org/2000/svg">
<path d="M64.3455 18.5938C59.4336 18.5938 54.6781 17.1445 50.592 14.4025L49.9889 13.9978L49.3858 14.4025C46.5082 16.3341 43.2285 17.6411 39.8216 18.2317L39.8335 18.1836C40.1052 17.0931 40.2421 15.9709 40.2421 14.8477C40.2421 7.26359 34.112 1.09375 26.5767 1.09375H25.9486C24.4782 1.09375 23.0253 1.33109 21.6267 1.79922L19.024 2.67313C18.0427 1.69859 16.6984 1.09375 15.214 1.09375H13.0406C8.84691 1.09375 5.43354 4.52813 5.43354 8.75C5.43354 10.8303 6.26488 12.717 7.60697 14.0973V16.1481C7.60697 17.6127 7.90908 19.0772 8.4557 20.4378C7.94711 21.1542 7.64066 22.0238 7.64066 22.9688C7.64066 25.3816 9.59023 27.3438 11.9875 27.3438H12.8178C13.8621 30.0245 15.8291 32.2416 18.3318 33.5869L17.5863 37.3384L9.89234 38.7461C7.35594 39.2098 5.07166 40.5825 3.46006 42.6092C1.95061 44.5091 1.12036 46.8945 1.12036 49.327V68.9062H46.7288V56.8127L49.9889 58.0431L55.7702 55.8611C63.362 52.9955 68.4631 45.5875 68.4631 37.427V18.5938H64.3455ZM48.9022 22.5039V50.9217L46.7288 50.1014V49.3259C46.7288 46.8934 45.8963 44.508 44.388 42.6081C42.8122 40.6252 40.5877 39.2733 38.1144 38.7822C38.0665 38.3283 38.035 37.8755 38.035 37.427V26.7542C38.7762 26.3277 39.3771 25.6944 39.7629 24.9255C43.1741 24.547 46.1843 23.7431 48.9022 22.5039ZM51.0756 22.5356C54.2391 23.9739 57.8176 24.8205 61.9428 25.0983V37.427C61.9428 42.9581 58.4631 48.1348 53.4816 50.0139L51.0756 50.9217V22.5356ZM31.5202 37.5681L30.2628 37.3384L29.5206 33.6022C30.2302 33.2238 30.8996 32.7786 31.5158 32.27V37.4281C31.5147 37.4741 31.5202 37.5211 31.5202 37.5681ZM29.576 39.4362L30.8616 39.6714L28.9392 44.1853L25.841 41.6905L29.576 39.4362ZM33.7088 37.9684C33.7034 37.788 33.6882 37.6086 33.6882 37.427V29.9108C34.2457 29.12 34.7086 28.2603 35.065 27.3448H35.8616V37.4281C35.8616 37.7409 35.8801 38.0559 35.8996 38.3709L33.7088 37.9684ZM35.8953 22.9688V20.7812C37.0939 20.7812 38.0687 21.7623 38.0687 22.9688C38.0687 24.1752 37.0939 25.1562 35.8953 25.1562H35.6877C35.8181 24.4453 35.8953 23.7169 35.8953 22.9688ZM13.0406 3.28125H15.214C17.0114 3.28125 18.4741 4.75344 18.4741 6.5625C18.4741 8.37156 17.0114 9.84375 15.214 9.84375C14.6141 9.84375 14.1273 9.35266 14.1273 8.75C14.1273 8.14734 14.6141 7.65625 15.214 7.65625H16.3007V5.46875H15.214C13.4166 5.46875 11.9538 6.94094 11.9538 8.75C11.9538 10.5591 13.4166 12.0312 15.214 12.0312C18.2101 12.0312 20.6476 9.57797 20.6476 6.5625C20.6476 5.85594 20.503 5.18437 20.2596 4.56422L22.3135 3.87406C23.4893 3.48141 24.7119 3.28125 25.9486 3.28125H26.5767C32.9133 3.28125 38.0687 8.47 38.0687 14.8477C38.0687 15.7916 37.9535 16.7355 37.7264 17.652L37.4199 18.8858C36.944 18.7053 36.4343 18.5938 35.8953 18.5938V18.4089C35.8953 16.1175 34.6825 13.9617 32.7297 12.7816L31.4941 12.0356C31.5136 11.8573 31.5484 11.6823 31.5484 11.4986C31.5484 9.38328 30.2085 7.51188 28.2144 6.8425L27.546 6.61828L26.8582 8.69312L27.5265 8.91734C28.6328 9.28813 29.375 10.325 29.375 11.4975C29.375 12.997 28.1622 14.2177 26.6723 14.2177H13.0406C10.0445 14.2177 7.60697 11.7644 7.60697 8.74891C7.60697 5.73344 10.0445 3.28125 13.0406 3.28125ZM10.2303 18.9744C9.94124 18.0611 9.7804 17.1041 9.7804 16.1481V15.657C10.4661 15.9862 11.2073 16.2148 11.9875 16.3242V18.5938C11.3616 18.5938 10.7693 18.7337 10.2303 18.9744ZM11.9875 25.1562C10.7889 25.1562 9.81409 24.1752 9.81409 22.9688C9.81409 21.7623 10.7889 20.7812 11.9875 20.7812V22.9688C11.9875 23.7169 12.0647 24.4453 12.1951 25.1562H11.9875ZM14.161 22.9688V16.4062H26.6723C28.3915 16.4062 29.8966 15.5017 30.766 14.1466L31.6115 14.6573C32.9133 15.4438 33.7219 16.882 33.7219 18.4089V22.9688C33.7219 28.3959 29.3348 32.8125 23.9414 32.8125C18.548 32.8125 14.161 28.3959 14.161 22.9688ZM23.9414 35C25.1705 35 26.3572 34.8119 27.4743 34.463L28.1285 37.7584L23.9414 40.2872L19.7239 37.7398L20.377 34.4531C21.5028 34.8075 22.7004 35 23.9414 35ZM18.3003 39.4308L22.0429 41.6905L18.9447 44.1853L17.019 39.6648L18.3003 39.4308ZM5.1586 43.9753C6.44201 42.3609 8.26118 41.2672 10.2814 40.8986L14.826 40.0673L18.072 47.6897L23.9414 42.9636L29.8108 47.6897L33.0535 40.0728L37.5656 40.8986C39.5858 41.2683 41.406 42.3609 42.6884 43.9753C43.8935 45.488 44.5553 47.3889 44.5553 49.3259V57.9688H38.0459L38.035 53.5916L35.8616 53.597L35.8931 66.7188H11.9854L11.9538 53.5916L9.7804 53.597L9.79127 57.9688H3.29379V49.3259C3.29379 47.3889 3.95669 45.488 5.1586 43.9753ZM3.29379 60.1562H9.79562L9.81083 66.7188H3.29379V60.1562ZM38.0665 66.7188L38.0513 60.1562H44.5553V66.7188H38.0665ZM66.2897 37.427C66.2897 44.6808 61.7559 51.2663 55.0063 53.8125L49.9889 55.7069L46.7288 54.4764V52.4377L49.9889 53.6681L54.2445 52.0625C60.0573 49.8684 64.1162 43.8506 64.1162 37.427V23.0147L63.0762 22.9688C58.1175 22.7533 54.0054 21.7219 50.5062 19.8177L49.9889 19.5377L49.4716 19.8188C46.7777 21.2844 43.7186 22.1988 40.2106 22.657C40.1541 21.8597 39.8998 21.1159 39.4738 20.4936C43.198 19.9522 46.8027 18.6309 49.9889 16.6152C54.2945 19.343 59.2434 20.7812 64.3455 20.7812H66.2897V37.427Z" fill="#00757E"/>
</svg>
