<svg width="58" height="58" viewBox="0 0 58 58" fill="none" xmlns="http://www.w3.org/2000/svg">
<path d="M52.5625 6.625H47.875V4.75C47.875 3.75544 47.4799 2.80161 46.7766 2.09835C46.0734 1.39509 45.1196 1 44.125 1C43.1304 1 42.1766 1.39509 41.4734 2.09835C40.7701 2.80161 40.375 3.75544 40.375 4.75V6.625H32.875V4.75C32.875 3.75544 32.4799 2.80161 31.7766 2.09835C31.0734 1.39509 30.1196 1 29.125 1C28.1304 1 27.1766 1.39509 26.4734 2.09835C25.7701 2.80161 25.375 3.75544 25.375 4.75V6.625H17.875V4.75C17.875 3.75544 17.4799 2.80161 16.7766 2.09835C16.0734 1.39509 15.1196 1 14.125 1C13.1304 1 12.1766 1.39509 11.4733 2.09835C10.7701 2.80161 10.375 3.75544 10.375 4.75V6.625H5.6875C4.4443 6.625 3.25201 7.11886 2.37294 7.99794C1.49386 8.87701 1 10.0693 1 11.3125V48.8125C1 50.0557 1.49386 51.248 2.37294 52.1271C3.25201 53.0061 4.4443 53.5 5.6875 53.5H31.9375C32.1861 53.5 32.4246 53.4012 32.6004 53.2254C32.7762 53.0496 32.875 52.8111 32.875 52.5625C32.875 52.3139 32.7762 52.0754 32.6004 51.8996C32.4246 51.7238 32.1861 51.625 31.9375 51.625H5.6875C4.94226 51.6228 4.22819 51.3257 3.70122 50.7988C3.17426 50.2718 2.87723 49.5577 2.875 48.8125V19.75H55.375V35.6875C55.375 35.9361 55.4738 36.1746 55.6496 36.3504C55.8254 36.5262 56.0639 36.625 56.3125 36.625C56.5611 36.625 56.7996 36.5262 56.9754 36.3504C57.1512 36.1746 57.25 35.9361 57.25 35.6875V11.3125C57.25 10.0693 56.7561 8.87701 55.8771 7.99794C54.998 7.11886 53.8057 6.625 52.5625 6.625ZM42.25 4.75C42.25 4.25272 42.4475 3.77581 42.7992 3.42417C43.1508 3.07254 43.6277 2.875 44.125 2.875C44.6223 2.875 45.0992 3.07254 45.4508 3.42417C45.8025 3.77581 46 4.25272 46 4.75V10.375C46 10.8723 45.8025 11.3492 45.4508 11.7008C45.0992 12.0525 44.6223 12.25 44.125 12.25C43.6277 12.25 43.1508 12.0525 42.7992 11.7008C42.4475 11.3492 42.25 10.8723 42.25 10.375V4.75ZM27.25 4.75C27.25 4.25272 27.4475 3.77581 27.7992 3.42417C28.1508 3.07254 28.6277 2.875 29.125 2.875C29.6223 2.875 30.0992 3.07254 30.4508 3.42417C30.8025 3.77581 31 4.25272 31 4.75V10.375C31 10.8723 30.8025 11.3492 30.4508 11.7008C30.0992 12.0525 29.6223 12.25 29.125 12.25C28.6277 12.25 28.1508 12.0525 27.7992 11.7008C27.4475 11.3492 27.25 10.8723 27.25 10.375V4.75ZM12.25 4.75C12.25 4.25272 12.4475 3.77581 12.7992 3.42417C13.1508 3.07254 13.6277 2.875 14.125 2.875C14.6223 2.875 15.0992 3.07254 15.4508 3.42417C15.8025 3.77581 16 4.25272 16 4.75V10.375C16 10.8723 15.8025 11.3492 15.4508 11.7008C15.0992 12.0525 14.6223 12.25 14.125 12.25C13.6277 12.25 13.1508 12.0525 12.7992 11.7008C12.4475 11.3492 12.25 10.8723 12.25 10.375V4.75ZM55.375 17.875H2.875V11.3125C2.87723 10.5673 3.17426 9.85318 3.70122 9.32622C4.22819 8.79926 4.94226 8.50223 5.6875 8.5H10.375V10.375C10.375 11.3696 10.7701 12.3234 11.4733 13.0267C12.1766 13.7299 13.1304 14.125 14.125 14.125C15.1196 14.125 16.0734 13.7299 16.7766 13.0267C17.4799 12.3234 17.875 11.3696 17.875 10.375V8.5H25.375V10.375C25.375 11.3696 25.7701 12.3234 26.4734 13.0267C27.1766 13.7299 28.1304 14.125 29.125 14.125C30.1196 14.125 31.0734 13.7299 31.7766 13.0267C32.4799 12.3234 32.875 11.3696 32.875 10.375V8.5H40.375V10.375C40.375 11.3696 40.7701 12.3234 41.4734 13.0267C42.1766 13.7299 43.1304 14.125 44.125 14.125C45.1196 14.125 46.0734 13.7299 46.7766 13.0267C47.4799 12.3234 47.875 11.3696 47.875 10.375V8.5H52.5625C53.3077 8.50223 54.0218 8.79926 54.5488 9.32622C55.0757 9.85318 55.3728 10.5673 55.375 11.3125V17.875Z" fill="#00757E" stroke="#00757E" stroke-width="0.3"/>
<path d="M27.25 26.3125C27.25 25.8152 27.0525 25.3383 26.7008 24.9867C26.3492 24.635 25.8723 24.4375 25.375 24.4375H21.625C21.1277 24.4375 20.6508 24.635 20.2992 24.9867C19.9475 25.3383 19.75 25.8152 19.75 26.3125V29.125C19.75 29.6223 19.9475 30.0992 20.2992 30.4508C20.6508 30.8025 21.1277 31 21.625 31H25.375C25.8723 31 26.3492 30.8025 26.7008 30.4508C27.0525 30.0992 27.25 29.6223 27.25 29.125V26.3125ZM21.625 29.125V26.3125H25.375V29.125H21.625Z" fill="#00757E" stroke="#00757E" stroke-width="0.3"/>
<path d="M16 26.3125C16 25.8152 15.8025 25.3383 15.4508 24.9867C15.0992 24.635 14.6223 24.4375 14.125 24.4375H10.375C9.87772 24.4375 9.40081 24.635 9.04918 24.9867C8.69754 25.3383 8.5 25.8152 8.5 26.3125V29.125C8.5 29.6223 8.69754 30.0992 9.04918 30.4508C9.40081 30.8025 9.87772 31 10.375 31H14.125C14.6223 31 15.0992 30.8025 15.4508 30.4508C15.8025 30.0992 16 29.6223 16 29.125V26.3125ZM10.375 29.125V26.3125H14.125V29.125H10.375Z" fill="#00757E" stroke="#00757E" stroke-width="0.3"/>
<path d="M47.875 31C48.3723 31 48.8492 30.8025 49.2008 30.4508C49.5525 30.0992 49.75 29.6223 49.75 29.125V26.3125C49.75 25.8152 49.5525 25.3383 49.2008 24.9867C48.8492 24.635 48.3723 24.4375 47.875 24.4375H44.125C43.6277 24.4375 43.1508 24.635 42.7992 24.9867C42.4475 25.3383 42.25 25.8152 42.25 26.3125V29.125C42.25 29.6223 42.4475 30.0992 42.7992 30.4508C43.1508 30.8025 43.6277 31 44.125 31H47.875ZM44.125 26.3125H47.875V29.125H44.125V26.3125Z" fill="#00757E" stroke="#00757E" stroke-width="0.3"/>
<path d="M27.25 34.75C27.25 34.2527 27.0525 33.7758 26.7008 33.4242C26.3492 33.0725 25.8723 32.875 25.375 32.875H21.625C21.1277 32.875 20.6508 33.0725 20.2992 33.4242C19.9475 33.7758 19.75 34.2527 19.75 34.75V37.5625C19.75 38.0598 19.9475 38.5367 20.2992 38.8883C20.6508 39.24 21.1277 39.4375 21.625 39.4375H25.375C25.8723 39.4375 26.3492 39.24 26.7008 38.8883C27.0525 38.5367 27.25 38.0598 27.25 37.5625V34.75ZM21.625 37.5625V34.75H25.375V37.5625H21.625Z" fill="#00757E" stroke="#00757E" stroke-width="0.3"/>
<path d="M16 34.75C16 34.2527 15.8025 33.7758 15.4508 33.4242C15.0992 33.0725 14.6223 32.875 14.125 32.875H10.375C9.87772 32.875 9.40081 33.0725 9.04918 33.4242C8.69754 33.7758 8.5 34.2527 8.5 34.75V37.5625C8.5 38.0598 8.69754 38.5367 9.04918 38.8883C9.40081 39.24 9.87772 39.4375 10.375 39.4375H14.125C14.6223 39.4375 15.0992 39.24 15.4508 38.8883C15.8025 38.5367 16 38.0598 16 37.5625V34.75ZM10.375 37.5625V34.75H14.125V37.5625H10.375Z" fill="#00757E" stroke="#00757E" stroke-width="0.3"/>
<path d="M25.375 41.3125H21.625C21.1277 41.3125 20.6508 41.51 20.2992 41.8617C19.9475 42.2133 19.75 42.6902 19.75 43.1875V46C19.75 46.4973 19.9475 46.9742 20.2992 47.3258C20.6508 47.6775 21.1277 47.875 21.625 47.875H25.375C25.8723 47.875 26.3492 47.6775 26.7008 47.3258C27.0525 46.9742 27.25 46.4973 27.25 46V43.1875C27.25 42.6902 27.0525 42.2133 26.7008 41.8617C26.3492 41.51 25.8723 41.3125 25.375 41.3125ZM21.625 46V43.1875H25.375V46H21.625Z" fill="#00757E" stroke="#00757E" stroke-width="0.3"/>
<path d="M32.875 31H36.625C37.1223 31 37.5992 30.8025 37.9508 30.4508C38.3025 30.0992 38.5 29.6223 38.5 29.125V26.3125C38.5 25.8152 38.3025 25.3383 37.9508 24.9867C37.5992 24.635 37.1223 24.4375 36.625 24.4375H32.875C32.3777 24.4375 31.9008 24.635 31.5492 24.9867C31.1975 25.3383 31 25.8152 31 26.3125V29.125C31 29.6223 31.1975 30.0992 31.5492 30.4508C31.9008 30.8025 32.3777 31 32.875 31ZM32.875 26.3125H36.625V29.125H32.875V26.3125Z" fill="#00757E" stroke="#00757E" stroke-width="0.3"/>
<path d="M31 37.5625C31 38.0598 31.1975 38.5367 31.5492 38.8883C31.9008 39.24 32.3777 39.4375 32.875 39.4375C33.1236 39.4375 33.3621 39.3387 33.5379 39.1629C33.7137 38.9871 33.8125 38.7486 33.8125 38.5C33.8125 38.2514 33.7137 38.0129 33.5379 37.8371C33.3621 37.6613 33.1236 37.5625 32.875 37.5625V34.75H36.625C36.8736 34.75 37.1121 34.6512 37.2879 34.4754C37.4637 34.2996 37.5625 34.0611 37.5625 33.8125C37.5625 33.5639 37.4637 33.3254 37.2879 33.1496C37.1121 32.9738 36.8736 32.875 36.625 32.875H32.875C32.3777 32.875 31.9008 33.0725 31.5492 33.4242C31.1975 33.7758 31 34.2527 31 34.75V37.5625Z" fill="#00757E" stroke="#00757E" stroke-width="0.3"/>
<path d="M14.125 41.3125H10.375C9.87772 41.3125 9.40081 41.51 9.04918 41.8617C8.69754 42.2133 8.5 42.6902 8.5 43.1875V46C8.5 46.4973 8.69754 46.9742 9.04918 47.3258C9.40081 47.6775 9.87772 47.875 10.375 47.875H14.125C14.6223 47.875 15.0992 47.6775 15.4508 47.3258C15.8025 46.9742 16 46.4973 16 46V43.1875C16 42.6902 15.8025 42.2133 15.4508 41.8617C15.0992 41.51 14.6223 41.3125 14.125 41.3125ZM10.375 46V43.1875H14.125V46H10.375Z" fill="#00757E" stroke="#00757E" stroke-width="0.3"/>
<path d="M45.0624 32.875C42.652 32.875 40.2957 33.5898 38.2914 34.929C36.2872 36.2681 34.7251 38.1716 33.8027 40.3985C32.8802 42.6255 32.6389 45.076 33.1091 47.4402C33.5794 49.8043 34.7401 51.9759 36.4446 53.6804C38.149 55.3848 40.3206 56.5456 42.6848 57.0158C45.0489 57.4861 47.4994 57.2447 49.7264 56.3223C51.9534 55.3998 53.8568 53.8377 55.196 51.8335C56.5351 49.8293 57.2499 47.473 57.2499 45.0625C57.2462 41.8313 55.961 38.7335 53.6762 36.4487C51.3914 34.164 48.2936 32.8787 45.0624 32.875ZM45.0624 55.375C43.0228 55.375 41.029 54.7702 39.3331 53.637C37.6372 52.5039 36.3155 50.8933 35.5349 49.0089C34.7544 47.1246 34.5502 45.0511 34.9481 43.0506C35.346 41.0502 36.3282 39.2127 37.7704 37.7705C39.2126 36.3282 41.0501 35.3461 43.0506 34.9481C45.051 34.5502 47.1245 34.7545 49.0089 35.535C50.8932 36.3155 52.5038 37.6373 53.637 39.3332C54.7701 41.0291 55.3749 43.0229 55.3749 45.0625C55.3717 47.7965 54.2842 50.4177 52.3509 52.351C50.4176 54.2842 47.7965 55.3718 45.0624 55.375Z" fill="#00757E" stroke="#00757E" stroke-width="0.3"/>
<path d="M50.4793 41.1323L43.1875 48.4242L39.8734 45.1092C39.6966 44.9384 39.4598 44.8439 39.214 44.8461C38.9682 44.8482 38.733 44.9468 38.5592 45.1206C38.3854 45.2944 38.2868 45.5296 38.2846 45.7754C38.2825 46.0212 38.377 46.258 38.5478 46.4348L42.5246 50.4126C42.7005 50.5884 42.9389 50.6871 43.1875 50.6871C43.4361 50.6871 43.6745 50.5884 43.8503 50.4126L51.805 42.4579C51.9757 42.2811 52.0702 42.0443 52.0681 41.7985C52.066 41.5527 51.9674 41.3176 51.7935 41.1437C51.6197 40.9699 51.3846 40.8713 51.1388 40.8692C50.893 40.867 50.6561 40.9615 50.4793 41.1323Z" fill="#00757E" stroke="#00757E" stroke-width="0.3"/>
</svg>
