<svg width="60" height="60" viewBox="0 0 60 60" fill="none" xmlns="http://www.w3.org/2000/svg">
<g clip-path="url(#clip0)">
<path d="M59.7559 25.589L49.7135 12.5436C49.3418 12.0612 48.6638 11.9421 48.1497 12.269L41.666 16.3925H33.2097C33.1003 16.3925 32.9914 16.4159 32.8861 16.4465L26.3295 18.3339L19.5262 16.4731L12.9157 12.269C12.4103 11.9476 11.7447 12.0566 11.3689 12.5226L0.261252 26.2811C-0.137918 26.7755 -0.0719999 27.4974 0.409568 27.9117L6.23141 32.9219L11.4545 39.9605C9.92693 41.5878 9.95669 44.1545 11.546 45.7443C12.2505 46.4484 13.1464 46.8462 14.0679 46.9387C14.0358 47.1474 14.0193 47.3593 14.0193 47.5745C14.0193 48.685 14.4519 49.7292 15.237 50.5142C16.0225 51.2998 17.0667 51.7324 18.1772 51.7324C18.1923 51.7324 18.207 51.7314 18.2216 51.731C18.2212 51.7594 18.2198 51.7873 18.2198 51.8157C18.2198 52.9262 18.6524 53.9704 19.4374 54.7559C20.223 55.541 21.2671 55.9735 22.3776 55.9735C22.5969 55.9735 22.8139 55.9557 23.0268 55.9227C23.1169 56.8474 23.5156 57.7474 24.2224 58.4542C25.0327 59.2649 26.0974 59.67 27.1622 59.67C28.227 59.67 29.2917 59.2649 30.1024 58.4542L30.7382 57.8183L31.0051 58.0335C31.809 58.8121 32.8527 59.2012 33.8964 59.2012C34.9611 59.2012 36.0259 58.7961 36.8361 57.9854C37.6633 57.1582 38.0684 56.0665 38.0515 54.9802C39.1373 54.9967 40.2295 54.592 41.0567 53.7653C41.883 52.9386 42.2881 51.8477 42.2721 50.7619C43.4032 50.7797 44.4762 50.3453 45.2768 49.5447C46.104 48.7175 46.5091 47.6258 46.4922 46.5395C47.5789 46.556 48.6702 46.1513 49.4974 45.3241C50.9091 43.9124 51.0909 41.7302 50.044 40.1193L53.8576 32.1323L59.5911 27.1985C60.0649 26.7906 60.1372 26.0838 59.7559 25.589ZM12.5394 14.8183L17.2928 17.8409L6.95238 30.4386L2.80871 26.8721L12.5394 14.8183ZM13.21 41.5279L14.6446 40.0932C14.6881 40.0498 14.7339 40.0086 14.7806 39.9701C15.0612 39.7412 15.4009 39.6048 15.7607 39.5723C15.7707 39.5714 15.7813 39.5714 15.7913 39.5709C15.8426 39.5668 15.8939 39.5641 15.9456 39.5645C16.4372 39.5714 16.8941 39.7724 17.2328 40.1299C17.8975 40.8325 17.8618 41.9806 17.1532 42.6892L15.762 44.0804C15.0585 44.784 13.9136 44.784 13.21 44.0804C12.5064 43.3763 12.5064 42.2315 13.21 41.5279ZM16.901 48.8503C16.5599 48.5097 16.3722 48.0565 16.3722 47.5745C16.3722 47.0925 16.5599 46.6393 16.901 46.2982L19.6828 43.5164C20.2156 42.9836 21.0533 42.8375 21.7345 43.1621C22.4367 43.4967 22.8318 44.2589 22.7288 45.0257C22.6738 45.4349 22.4834 45.8203 22.1913 46.1128L19.4535 48.8503C19.1124 49.1913 18.6592 49.379 18.1772 49.379C17.6952 49.379 17.242 49.1913 16.901 48.8503ZM21.1014 53.0915C20.7604 52.7509 20.5727 52.2977 20.5727 51.8157C20.5727 51.3336 20.7604 50.8805 21.1014 50.5394L23.8828 47.7576C24.4527 47.1881 25.3668 47.0655 26.0645 47.4715C26.7017 47.8423 27.0354 48.5701 26.926 49.2952C26.866 49.6939 26.6765 50.0688 26.3913 50.354L23.6539 53.0915C23.3129 53.4325 22.8597 53.6202 22.3776 53.6202C21.8956 53.6202 21.4424 53.4325 21.1014 53.0915ZM25.8859 56.7902C25.1824 56.0866 25.1824 54.9417 25.8859 54.2382L27.3206 52.8035C27.3641 52.76 27.4094 52.7193 27.4561 52.6808C27.4575 52.6799 27.4584 52.679 27.4593 52.6781C27.6927 52.4886 27.9669 52.3618 28.2595 52.3064C28.2663 52.3055 28.2732 52.3046 28.2801 52.3036C28.3304 52.2945 28.3817 52.2872 28.4329 52.2826C28.4535 52.2808 28.4741 52.2808 28.4952 52.2794C28.5373 52.2771 28.579 52.2743 28.6215 52.2748C29.1127 52.2817 29.57 52.4822 29.9088 52.8401C29.9504 52.8841 29.9893 52.9299 30.0251 52.977C30.5661 53.6843 30.4933 54.7348 29.8218 55.4068L28.438 56.7906C27.7344 57.4942 26.5895 57.4938 25.8859 56.7902ZM47.8334 43.6601C47.1298 44.3642 45.985 44.3637 45.2814 43.6601C45.2558 43.6345 45.2288 43.6107 45.2013 43.5883L37.6363 35.9436C37.179 35.4817 36.4342 35.4781 35.9723 35.9354C35.5104 36.3922 35.5068 37.137 35.9636 37.5989L43.6106 45.3255C43.6115 45.3264 43.6124 45.3273 43.6133 45.3282C44.3169 46.0318 44.3169 47.1771 43.6133 47.8807C43.2723 48.2218 42.8191 48.4094 42.3371 48.4094C41.8546 48.4094 41.4014 48.2218 41.0608 47.8807L35.9453 42.7121C35.4885 42.2502 34.7437 42.2466 34.2818 42.7034C33.8199 43.1607 33.8162 43.9055 34.2731 44.3674L39.3103 49.4568C39.336 49.4889 39.3634 49.5195 39.3927 49.5488C40.0963 50.2524 40.0963 51.3977 39.3927 52.1013C38.6887 52.8049 37.5434 52.8044 36.8398 52.1009L34.0479 49.2797C33.5906 48.8178 32.8458 48.8137 32.3839 49.271C31.922 49.7278 31.9184 50.4726 32.3752 50.9345L35.0893 53.6765C35.1149 53.7085 35.1424 53.7397 35.1721 53.7689C35.8757 54.4725 35.8757 55.6179 35.1721 56.3214C34.4686 57.0255 33.3237 57.025 32.6201 56.3214C32.5391 56.2404 32.4439 56.1782 32.3532 56.1086C32.2763 56.05 32.2562 56.0092 32.2946 55.9159C32.3336 55.8211 32.3917 55.7355 32.4306 55.6403C32.4736 55.5341 32.5084 55.4247 32.5423 55.3148C32.7227 54.7335 32.7758 54.1082 32.6947 53.5048C32.5391 52.3471 31.9023 51.3025 30.9374 50.6415C30.416 50.2849 29.8126 50.051 29.1873 49.9631C29.4904 48.6264 29.1265 47.1771 28.1798 46.1769C27.4007 45.3539 26.3483 44.892 25.2162 44.8764C25.175 44.876 25.1338 44.876 25.0922 44.8764C25.1174 43.7961 24.7246 42.7226 23.9798 41.9357C23.2003 41.1127 22.1479 40.6508 21.0163 40.6352C20.6798 40.6307 20.3401 40.6664 20.0124 40.7419C19.8723 39.7673 19.3811 38.8655 18.6373 38.2205C17.898 37.5806 16.9683 37.2254 15.9781 37.2116C14.9358 37.1965 13.9118 37.581 13.1377 38.28L8.58981 32.152L19.4699 18.897L22.9375 19.8454L18.4088 27.8366C17.8614 28.803 17.7231 29.9245 18.0193 30.9947C18.3155 32.0654 19.0103 32.9563 19.9767 33.5037C20.0371 33.5381 20.098 33.5706 20.1598 33.6017C20.1644 33.604 20.1689 33.6063 20.174 33.6086C20.3365 33.6896 20.5036 33.7592 20.6729 33.8178C21.4617 34.091 22.3136 34.1208 23.1352 33.8938C24.2055 33.5976 25.0963 32.9022 25.6438 31.9364L28.5868 26.743L33.8414 27.1156L47.8339 41.1077C48.537 41.8117 48.537 42.9566 47.8334 43.6601ZM48.3209 38.2672L35.1946 25.1413C35.1699 25.1161 35.1438 25.0923 35.1168 25.0699C34.9277 24.9124 34.6933 24.8172 34.4461 24.7998L28.0123 24.3434C27.5673 24.3128 27.1251 24.5494 26.9054 24.9371L23.5967 30.7764C23.3591 31.1957 22.9723 31.4974 22.5077 31.626C22.0435 31.7546 21.5564 31.6942 21.1367 31.4566C20.7173 31.219 20.4157 30.8322 20.287 30.3676C20.1584 29.903 20.2184 29.4159 20.4564 28.9966L24.8734 21.2013L26.6632 20.6864C26.6751 20.6827 26.6866 20.6781 26.6985 20.6744L33.3786 18.7454H41.4499L51.5262 31.5546L48.3209 38.2672ZM53.0675 29.708L43.7493 17.856L48.505 14.8316L57.2121 26.1415L53.0675 29.708Z" fill="#00757E"/>
<path d="M36.3495 14.1835C36.6507 14.1835 36.9519 14.0686 37.1817 13.8388L45.2182 5.80234C45.6778 5.34274 45.6778 4.59796 45.2182 4.13837C44.7586 3.67877 44.0138 3.67877 43.5542 4.13837L35.5177 12.1749C35.0581 12.6345 35.0581 13.3792 35.5177 13.8388C35.7475 14.0686 36.0487 14.1835 36.3495 14.1835Z" fill="#00757E"/>
<path d="M22.8179 13.8388C23.0477 14.0686 23.3489 14.1835 23.6501 14.1835C23.9509 14.1835 24.2521 14.0686 24.4819 13.8388C24.9415 13.3792 24.9415 12.6345 24.4819 12.1749L16.4454 4.13837C15.9858 3.67877 15.241 3.67877 14.7814 4.13837C14.3218 4.59796 14.3218 5.34274 14.7814 5.80234L22.8179 13.8388Z" fill="#00757E"/>
<path d="M30 14.183C30.6496 14.183 31.1765 13.6561 31.1765 13.0065V4.35565C31.1765 3.70609 30.6496 3.1792 30 3.1792C29.3505 3.1792 28.8236 3.70609 28.8236 4.35565V13.0065C28.8236 13.6561 29.3505 14.183 30 14.183Z" fill="#00757E"/>
</g>
<defs>
<clipPath id="clip0">
<rect width="60" height="60" fill="white"/>
</clipPath>
</defs>
</svg>
