<svg width="60" height="53" viewBox="0 0 60 53" fill="none" xmlns="http://www.w3.org/2000/svg">
<path d="M59.9158 30.1178C59.9156 30.1175 59.9156 30.1173 59.9155 30.117L48.5873 1.67276C48.3468 1.0684 47.6618 0.773353 47.0574 1.01378C47.057 1.01392 47.0565 1.01407 47.0561 1.01436L1.0989 19.3141C0.911482 19.3951 0.748944 19.5243 0.627776 19.6886C0.245575 19.8872 0.00412236 20.2803 0 20.711V51.3342C0 51.9846 0.527367 52.512 1.17782 52.512H50.6461C51.2965 52.512 51.8239 51.9846 51.8239 51.3342V34.6092L59.2583 31.6482C59.8625 31.4072 60.1568 30.722 59.9158 30.1178ZM49.4683 50.1564H2.35563V21.8888H49.4683V50.1564ZM19.6519 19.5391L39.3732 11.6807C41.1333 13.5307 43.5721 14.5822 46.1256 14.5922L48.0926 19.5391H19.6519ZM51.8239 32.0793V20.711C51.8239 20.0605 51.2965 19.5332 50.6461 19.5332H50.6272L48.1315 13.2648C48.1038 13.2126 48.0715 13.1628 48.0349 13.1164C47.9085 12.5492 47.3832 12.1621 46.804 12.2095C44.4281 12.4261 42.1038 11.4252 40.6288 9.55C40.2617 9.09698 39.6166 8.98435 39.1176 9.28617C39.0617 9.29279 39.0062 9.3031 38.9515 9.31679L14.8746 18.9042C14.5833 19.0185 14.3502 19.245 14.228 19.5332H6.91614L46.8347 3.63854L57.2925 29.8979L51.8239 32.0793Z" fill="#00757E"/>
<path d="M5.5519 42.2052C7.83863 42.8811 9.62802 44.6683 10.3067 46.9541C10.4556 47.4531 10.9145 47.7949 11.4351 47.7951C11.4962 47.7912 11.5568 47.7821 11.6165 47.768C11.6693 47.783 11.7234 47.794 11.7778 47.801H40.0454C40.094 47.7946 40.142 47.7848 40.1891 47.7715C40.7776 47.9146 41.3706 47.5538 41.5139 46.9653C41.5143 46.9631 41.5149 46.961 41.5153 46.9588C42.1923 44.6706 43.982 42.8809 46.2702 42.204C46.8251 42.0344 47.1699 41.4814 47.0782 40.9084C47.0939 40.8513 47.1052 40.793 47.1123 40.7341V31.3115C47.1054 31.2525 47.0936 31.1942 47.077 31.1372C47.1693 30.5641 46.8243 30.0108 46.269 29.8416C43.9808 29.1648 42.1915 27.3744 41.5165 25.0856C41.346 24.5269 40.7876 24.1812 40.2115 24.2776C40.157 24.2624 40.1015 24.2514 40.0454 24.2446H11.7778C11.7185 24.2517 11.6598 24.2635 11.6023 24.28C11.0295 24.1887 10.4768 24.5333 10.3067 25.0879C9.62935 27.3757 7.83981 29.1648 5.5519 29.8416C4.997 30.0112 4.65219 30.5642 4.74392 31.1372C4.7286 31.1945 4.71756 31.2526 4.71094 31.3115V40.7341C4.71771 40.7894 4.72875 40.8442 4.74392 40.8978C4.64734 41.4745 4.99288 42.0336 5.5519 42.2052ZM7.06657 31.7897C9.43162 30.8398 11.3061 28.9653 12.256 26.6003H39.566C40.5164 28.9653 42.3913 30.8398 44.7567 31.7897V40.2559C42.3924 41.2068 40.5182 43.081 39.5672 45.4453H12.256C11.3051 43.081 9.43089 41.2068 7.06657 40.2559V31.7897Z" fill="#00757E"/>
<path d="M25.9116 43.0897C29.8146 43.0897 32.9785 39.9258 32.9785 36.0228C32.9785 32.1198 29.8146 28.9559 25.9116 28.9559C22.0086 28.9559 18.8447 32.1198 18.8447 36.0228C18.8486 39.9242 22.0103 43.0859 25.9116 43.0897ZM25.9116 31.3116C28.5136 31.3116 30.6229 33.4209 30.6229 36.0228C30.6229 38.6248 28.5136 40.7341 25.9116 40.7341C23.3097 40.7341 21.2004 38.6248 21.2004 36.0228C21.2004 33.4209 23.3097 31.3116 25.9116 31.3116Z" fill="#00757E"/>
<path d="M12.9562 37.7894C13.9319 37.7894 14.7229 36.9984 14.7229 36.0227C14.7229 35.047 13.9319 34.256 12.9562 34.256C11.9805 34.256 11.1895 35.047 11.1895 36.0227C11.1895 36.9985 11.9805 37.7894 12.9562 37.7894ZM12.9562 35.4338C13.2814 35.4338 13.5451 35.6975 13.5451 36.0227C13.5451 36.3479 13.2814 36.6116 12.9562 36.6116C12.631 36.6116 12.3673 36.3479 12.3673 36.0227C12.3673 35.6975 12.631 35.4338 12.9562 35.4338Z" fill="#00757E"/>
<path d="M38.8683 37.7894C39.844 37.7894 40.635 36.9984 40.635 36.0227C40.635 35.047 39.844 34.256 38.8683 34.256C37.8926 34.256 37.1016 35.047 37.1016 36.0227C37.1016 36.9985 37.8926 37.7894 38.8683 37.7894ZM38.8683 35.4338C39.1935 35.4338 39.4572 35.6975 39.4572 36.0227C39.4572 36.3479 39.1935 36.6116 38.8683 36.6116C38.5431 36.6116 38.2794 36.3479 38.2794 36.0227C38.2794 35.6975 38.5431 35.4338 38.8683 35.4338Z" fill="#00757E"/>
</svg>
