<svg width="73" height="65" viewBox="0 0 73 65" fill="none" xmlns="http://www.w3.org/2000/svg">
<path d="M43.8311 46.5228H39.1643V48.8567H43.8311V46.5228Z" fill="#00757E"/>
<path d="M3.99643 43.0346L11.9219 41.9027C13.3671 41.015 14.8668 40.2202 16.4131 39.5228C21.5195 37.2098 27.0617 36.0163 32.668 36.0225H34.0448C40.6609 36.0272 47.1712 37.6874 52.9821 40.8516L56.9819 43.0336C61.6639 43.0863 66.2557 44.3316 70.3234 46.6503C71.9764 47.5983 72.9972 49.3573 73 51.2625V58.1905C73 58.8352 72.4778 59.3574 71.8331 59.3574H67.9154C66.6412 62.9926 62.6614 64.9068 59.0262 63.6326C57.0251 62.9314 55.4523 61.358 54.7511 59.3574H23.5789C22.3047 62.9926 18.3249 64.9068 14.6897 63.6326C12.6891 62.9314 11.1158 61.358 10.4146 59.3574H9.99585C9.84725 59.3574 9.70008 59.3294 9.56193 59.2744L5.78291 57.758C4.0947 57.0895 2.98901 55.4555 2.99518 53.6405V44.1896C2.99518 43.6095 3.42198 43.1172 3.99643 43.0346ZM56.7602 57.9574C57.2763 60.4826 59.7416 62.1115 62.2668 61.5954C64.7925 61.0794 66.4214 58.614 65.9053 56.0883C65.3888 53.5631 62.9234 51.9342 60.3982 52.4503C58.2253 52.8942 56.6653 54.806 56.6657 57.024C56.6657 57.3374 56.6975 57.6502 56.7602 57.9574ZM35.6642 57.024H54.3323C54.3323 53.1577 57.4662 50.0234 61.3325 50.0234C65.1989 50.0234 68.3332 53.1577 68.3332 57.024H70.6666V51.2625C70.6652 50.1938 70.0926 49.2068 69.165 48.676C65.3575 46.5021 61.0496 45.358 56.6657 45.3566H35.6642V57.024ZM35.6642 43.0232H52.0896L51.8646 42.9002C46.8764 40.1894 41.3356 38.6526 35.6642 38.4072V43.0232ZM33.3308 38.3559H32.6704C27.9685 38.3507 23.3093 39.2432 18.9421 40.986L20.9792 43.0232H33.3308V38.3559ZM12.4237 57.9574C12.9398 60.4826 15.4052 62.1115 17.9308 61.5954C20.456 61.0794 22.0849 58.614 21.5688 56.0883C21.0528 53.5631 18.5869 51.9342 16.0617 52.4503C13.8888 52.8942 12.3288 54.806 12.3293 57.024C12.3293 57.3374 12.3611 57.6502 12.4237 57.9574ZM5.32858 46.523H8.82891V48.8569H5.32858V53.6405C5.32573 54.5003 5.84985 55.2741 6.64933 55.5898L9.99585 56.9338C9.99585 56.8265 10.0096 56.7202 10.0167 56.6129C10.0239 56.5056 10.0262 56.3798 10.0376 56.263C10.0495 56.1462 10.0728 56.0294 10.0913 55.9131C10.1103 55.7963 10.124 55.6795 10.1473 55.5737C10.1706 55.4673 10.2047 55.3496 10.2351 55.2385C10.2655 55.1279 10.2888 55.0158 10.3239 54.9071C10.3586 54.7989 10.4008 54.6949 10.4402 54.5886C10.4801 54.4827 10.5162 54.373 10.557 54.2676C10.5978 54.1627 10.6529 54.0673 10.7018 53.9681C10.7507 53.8688 10.7987 53.7601 10.8532 53.6599C10.9083 53.5598 10.97 53.4743 11.0227 53.3813C11.075 53.2877 11.139 53.1814 11.2055 53.086C11.2725 52.9901 11.3342 52.9146 11.3983 52.8282C11.4624 52.7418 11.535 52.6402 11.6095 52.5505C11.6841 52.4607 11.7539 52.3905 11.8265 52.3169C11.8987 52.2438 11.9794 52.1445 12.0596 52.0629C12.1403 51.9812 12.2196 51.9167 12.2998 51.8445C12.3805 51.7723 12.4669 51.6869 12.5557 51.6109C12.644 51.5354 12.7342 51.477 12.8225 51.4106C12.9113 51.3441 13.0001 51.2729 13.0931 51.2107C13.1866 51.149 13.2916 51.0944 13.3917 51.0289C13.4924 50.9634 13.574 50.9121 13.6685 50.8622C13.763 50.8119 13.8807 50.7592 13.988 50.7079C14.0953 50.6567 14.1794 50.6111 14.2786 50.5693C14.3778 50.5271 14.5122 50.4829 14.6285 50.4411C14.7453 50.3989 14.8212 50.3661 14.9204 50.3348C15.0534 50.294 15.1896 50.2645 15.3254 50.2308C15.4142 50.2099 15.4992 50.1819 15.5889 50.1634C15.7323 50.134 15.8794 50.1178 16.0252 50.0965C16.1116 50.0851 16.1942 50.0661 16.2806 50.058C16.5142 50.0348 16.7473 50.0219 16.9922 50.0219C20.8572 50.0257 23.9891 53.1577 23.9929 57.0226H33.3303V45.3561H20.4964C20.1868 45.3561 19.8901 45.2331 19.6717 45.0143L16.6462 41.9887C15.3762 42.593 14.1414 43.2686 12.9474 44.0121C12.8097 44.098 12.6559 44.1545 12.4949 44.1778L5.32858 45.2008V46.523Z" fill="#00757E"/>
<path d="M1.87822 9.4043L20.3782 1.9043L20.8782 1.4043L26.8782 4.4043L39.8782 9.4043L40.3782 21.4043L38.3782 29.9043L30.8782 40.4043L21.8782 45.9043L18.3782 45.4043L8.37822 37.9043L2.37822 25.9043L1.87822 9.4043Z" fill="white"/>
<path d="M40.1523 8.09927C33.6989 6.33103 27.2076 3.57772 21.3801 0.13707C21.0705 -0.04569 20.6864 -0.04569 20.3769 0.13707C14.3813 3.67657 8.24075 6.28092 1.60413 8.09927C1.1754 8.21662 0.87822 8.60633 0.87822 9.05091V19.1321C0.87822 29.5135 5.66745 36.3853 9.68524 40.3218C14.0107 44.5601 19.0492 46.904 20.8785 46.904C22.7077 46.904 27.7462 44.5601 32.0716 40.3218C36.0893 36.3854 40.8782 29.5136 40.8782 19.1321V9.05082C40.8782 8.60633 40.581 8.21662 40.1523 8.09927ZM38.905 19.132C38.905 28.8282 34.438 35.2404 30.6905 38.9123C26.437 43.08 21.8892 44.9305 20.8785 44.9305C19.8678 44.9305 15.3197 43.08 11.0662 38.9123C7.3187 35.2403 2.85157 28.8282 2.85157 19.132V9.79981C9.19806 7.99786 15.1085 5.4831 20.8787 2.12993C26.5048 5.39415 32.7101 8.03396 38.905 9.79945V19.132Z" fill="#00757E"/>
<path d="M14.1533 21.4388C13.5475 20.8329 12.7418 20.4994 11.8849 20.4994C11.028 20.4994 10.2222 20.833 9.61608 21.4388C8.36534 22.6898 8.36534 24.7254 9.61608 25.9763L15.442 31.8021C16.048 32.4078 16.8537 32.7413 17.7107 32.7413C18.5677 32.7413 19.3734 32.4078 19.9794 31.8019L32.1415 19.6397C33.3921 18.3884 33.3921 16.3531 32.1413 15.1026C31.5354 14.4967 30.7297 14.1632 29.8726 14.1632C29.0156 14.1632 28.2099 14.4968 27.6039 15.1026L17.7106 24.9959L14.1533 21.4388ZM28.9993 16.498C29.2324 16.2648 29.5427 16.1365 29.8727 16.1365C30.2028 16.1365 30.5128 16.2648 30.7462 16.498C31.2276 16.9794 31.2276 17.763 30.746 18.2446L18.5841 30.4066C18.3509 30.6397 18.0406 30.7681 17.7107 30.7681C17.3807 30.7681 17.0704 30.6397 16.8372 30.4066L11.0114 24.581C10.5298 24.0994 10.5298 23.3158 11.0112 22.8344C11.2444 22.6012 11.5547 22.4727 11.8848 22.4727C12.2148 22.4727 12.5249 22.601 12.7581 22.8342L17.0129 27.0891C17.198 27.274 17.4488 27.378 17.7106 27.378C17.9723 27.378 18.2231 27.2741 18.4081 27.0891L28.9993 16.498Z" fill="#00757E"/>
</svg>
