<svg width="70" height="70" viewBox="0 0 70 70" fill="none" xmlns="http://www.w3.org/2000/svg">
<path d="M41.3183 34.1715H39.4188V29.8766C39.4188 25.3696 35.7522 21.7031 31.2454 21.7031C26.7386 21.7031 23.072 25.3698 23.072 29.8766V34.1715H21.1729C20.504 34.1715 19.9618 34.7137 19.9618 35.3826V53.2378C19.9618 53.9066 20.504 54.4489 21.1729 54.4489H41.3183C41.9871 54.4489 42.5293 53.9066 42.5293 53.2378V35.3826C42.5293 34.7137 41.9871 34.1715 41.3183 34.1715ZM25.4941 29.8767C25.4941 26.7055 28.0742 24.1254 31.2454 24.1254C34.4166 24.1254 36.9967 26.7055 36.9967 29.8767V34.1717H25.4941V29.8767ZM40.1072 52.0269H22.3839V36.5938H40.1072V52.0269Z" fill="#00757E"/>
<path d="M30.0343 45.8823V48.8243C30.0343 49.4932 30.5766 50.0354 31.2454 50.0354C31.9142 50.0354 32.4565 49.4932 32.4565 48.8243V45.8823C33.9199 45.3781 34.9748 43.9883 34.9748 42.3558C34.9748 40.2994 33.3018 38.6263 31.2454 38.6263C29.189 38.6263 27.5161 40.2994 27.5161 42.3558C27.5161 43.9883 28.5709 45.3783 30.0343 45.8823ZM31.2454 41.0486C31.9662 41.0486 32.5527 41.6351 32.5527 42.3559C32.5527 43.0768 31.9662 43.6633 31.2454 43.6633C30.5246 43.6633 29.9383 43.0768 29.9383 42.3559C29.9383 41.6351 30.5246 41.0486 31.2454 41.0486Z" fill="#00757E"/>
<path d="M69.285 23.9125C68.6509 23.1084 67.6998 22.6472 66.6757 22.6472H62.4912V18.2924C62.4912 16.5978 61.1125 15.2193 59.4182 15.2193H30.1734C29.9724 15.2193 29.792 15.0922 29.7242 14.903L28.4672 11.3856C28.0443 10.2016 26.9155 9.40634 25.6582 9.40634H10.9968C9.73975 9.40634 8.61087 10.2018 8.1878 11.3856L6.93071 14.9031C6.86305 15.0924 6.68252 15.2195 6.48165 15.2195H3.07305C1.37868 15.2192 0 16.5978 0 18.2924V57.521C0 59.2155 1.37868 60.5941 3.07305 60.5941H59.4182C61.0515 60.5941 62.3874 59.3123 62.482 57.7024L69.907 26.7453C70.1458 25.7492 69.9191 24.7167 69.285 23.9125ZM60.0691 57.5208C60.0691 57.8798 59.777 58.1718 59.4182 58.1718H3.07305C2.71409 58.1718 2.42214 57.8797 2.42214 57.5208V18.2924C2.42214 17.9334 2.71425 17.6415 3.07305 17.6415H6.48165C7.70337 17.6415 8.80044 16.8685 9.21156 15.718L10.4686 12.2004C10.5483 11.9778 10.7604 11.8283 10.9968 11.8283H25.6582C25.8946 11.8283 26.1068 11.9778 26.1864 12.2005L27.4433 15.7181C27.8546 16.8686 28.9517 17.6415 30.1734 17.6415H59.4182C59.7771 17.6415 60.0691 17.9336 60.0691 18.2924V57.5208ZM67.5517 26.1803L62.4912 47.2791V25.0692H66.6757C67.0558 25.0692 67.282 25.2841 67.3831 25.4123C67.484 25.5404 67.6404 25.8105 67.5517 26.1803Z" fill="#00757E"/>
<path d="M7 50V36.5" stroke="#00757E" stroke-width="3" stroke-linecap="round"/>
</svg>
