<svg width="120" height="120" viewBox="0 0 120 120" fill="none" xmlns="http://www.w3.org/2000/svg">
<g opacity="0.15" clip-path="url(#clip0)">
<path d="M113.862 0H70.138C66.7494 0.00330752 64.0033 2.74945 64 6.138V43.862C64.0023 47.1975 66.6655 49.9218 70 50V58.966C69.9983 60.1255 70.6575 61.1845 71.6986 61.6949C72.7397 62.2052 73.9806 62.0776 74.896 61.366L89.736 50H113.862C117.251 49.9967 119.997 47.2506 120 43.862V6.138C119.997 2.74945 117.251 0.00330752 113.862 0ZM116 43.862C115.999 45.0423 115.042 45.9989 113.862 46H82C80.8954 46 80 46.8954 80 48C80 49.1046 80.8954 50 82 50H83.156L74 57V50C75.1046 50 76 49.1046 76 48C76 46.8954 75.1046 46 74 46H70.138C68.9577 45.9989 68.0011 45.0423 68 43.862V6.138C68.0011 4.95767 68.9577 4.0011 70.138 4H113.862C115.042 4.0011 115.999 4.95767 116 6.138V43.862Z" fill="#00757E"/>
<path d="M1.11422 61.83C2.4183 64.9037 4.72875 67.4427 7.66622 69.03C7.46022 74.688 7.60022 78.556 12.0002 83.116V94.516L2.86822 97.2C1.17208 97.708 0.0076562 99.2654 0.000215783 101.036V116C0.000215783 118.209 1.79108 120 4.00022 120H80.0002C80.6375 120.001 81.2369 119.698 81.6142 119.184C81.9914 118.671 82.1014 118.008 81.9102 117.4C81.0942 104.368 73.9602 102.16 73.6662 102.076L48.0002 94.506V83.116C52.4002 78.554 52.5302 74.602 52.3362 69.024C55.2987 67.4255 57.6217 64.8574 58.9162 61.75C59.8342 58.856 60.7422 54.15 59.1162 51.724C60.5577 45.6415 60.2393 39.2744 58.1982 33.366C53.7702 20.152 31.1222 20 30.1602 20C16.2122 20 11.8422 25.656 10.7182 28.058C0.350216 29.024 -1.29778 41.55 0.932216 51.658C-0.755784 54.086 0.156216 58.85 1.11422 61.83ZM4.91422 60.612C4.19578 58.5057 3.91936 56.2739 4.10222 54.056C4.82817 53.9662 5.56296 54.1279 6.18422 54.514C6.47332 57.7356 6.92994 60.9399 7.55222 64.114C6.42972 63.1533 5.53191 61.9578 4.92222 60.612H4.91422ZM16.0002 87.368C19.2662 91.6 20.7842 96 26.8802 96C35.8562 96 37.4802 96.828 42.1422 89.964C42.7022 89.142 43.3082 88.266 44.0002 87.364V95.692C40.8982 104.132 19.1762 104.166 16.0002 95.692V87.368ZM77.7722 116H4.00022V101.036L12.9002 98.41C14.4842 101.2 18.8222 106 30.0002 106C41.1782 106 45.5162 101.2 47.1002 98.4L72.5002 105.898C72.6902 105.972 76.7782 107.462 77.7722 116ZM44.2522 81.182C38.1202 86.762 37.8882 92 33.1202 92C24.5202 92 24.6202 92.8 21.1642 87.714C19.6363 85.3197 17.8163 83.1248 15.7462 81.18C11.3682 77.2 11.4922 73.874 11.6482 69.66C11.9742 60.824 10.6062 62.042 10.1342 53.46C10.3822 52.2 11.9062 45.092 15.6502 41.33C16.3162 40.713 17.1828 40.3578 18.0902 40.33C22.8322 40.018 38.6902 39.238 44.9842 42.156C45.4862 42.556 48.6122 45.31 49.8902 53.444C49.3862 62.134 48.0262 60.818 48.3542 69.656C48.5102 73.872 48.6322 77.2 44.2522 81.182ZM55.1102 60.528C54.4939 61.9001 53.583 63.1196 52.4422 64.1C53.0687 60.9259 53.5313 57.7217 53.8282 54.5C54.4455 54.1189 55.1744 53.9601 55.8942 54.05C56.0803 56.2403 55.8134 58.4454 55.1102 60.528ZM6.21022 34.836C7.30332 33.1843 9.1126 32.1462 11.0902 32.036C12.4206 31.9024 13.5884 31.0929 14.1802 29.894C14.8802 28.51 18.1022 24 30.1602 24C30.3602 24 50.8822 24.122 54.4042 34.638C56.1138 39.5802 56.4592 44.892 55.4042 50.014C54.7138 50.0332 54.0299 50.1531 53.3742 50.37C51.4422 41.69 47.5322 39.02 47.0542 38.724C41.6882 35.358 24.2122 35.924 17.8342 36.34C15.9543 36.4314 14.1719 37.2042 12.8202 38.514C9.85253 41.9233 7.76505 46.0077 6.74022 50.41C6.07323 50.1746 5.37491 50.0398 4.66822 50.01C3.89622 45.946 3.50222 38.8 6.21022 34.836Z" fill="#00757E"/>
<path d="M108 10H76C74.8954 10 74 10.8954 74 12C74 13.1046 74.8954 14 76 14H108C109.105 14 110 13.1046 110 12C110 10.8954 109.105 10 108 10Z" fill="#00757E"/>
<path d="M108 18H76C74.8954 18 74 18.8954 74 20C74 21.1046 74.8954 22 76 22H108C109.105 22 110 21.1046 110 20C110 18.8954 109.105 18 108 18Z" fill="#00757E"/>
<path d="M108 26H76C74.8954 26 74 26.8954 74 28C74 29.1046 74.8954 30 76 30H108C109.105 30 110 29.1046 110 28C110 26.8954 109.105 26 108 26Z" fill="#00757E"/>
<path d="M86 34H76C74.8954 34 74 34.8954 74 36C74 37.1046 74.8954 38 76 38H86C87.1046 38 88 37.1046 88 36C88 34.8954 87.1046 34 86 34Z" fill="#00757E"/>
</g>
<defs>
<clipPath id="clip0">
<rect width="120" height="120" fill="white"/>
</clipPath>
</defs>
</svg>
