<svg width="24" height="25" viewBox="0 0 24 25" fill="none" xmlns="http://www.w3.org/2000/svg">
<g clip-path="url(#clip0)">
<path d="M17.7417 14.9425C17.4466 14.7753 15.9956 13.9667 15.7239 13.8526C15.4521 13.7381 15.2531 13.6789 15.0407 13.9822C14.8298 14.2843 14.2271 14.9619 14.0453 15.1623C13.8618 15.3635 13.6858 15.3822 13.3898 15.2147C13.0957 15.0478 12.138 14.682 11.0278 13.5794C10.1635 12.7216 9.59694 11.6813 9.43291 11.3637C9.26776 11.0459 9.43179 10.884 9.58773 10.7353C9.72837 10.6006 9.90201 10.3832 10.0592 10.208C10.2151 10.033 10.2703 9.90514 10.3779 9.70188C10.4859 9.49894 10.4422 9.31553 10.3723 9.15702C10.303 8.99893 9.75696 7.44692 9.52934 6.81528C9.30108 6.18414 9.04702 6.27771 8.87162 6.27059C8.69605 6.26439 8.49662 6.23063 8.29639 6.22253C8.09511 6.21492 7.76657 6.28011 7.48048 6.58C7.1931 6.87998 6.38857 7.60146 6.33346 9.13038C6.27772 10.6586 7.30195 12.1773 7.44483 12.3897C7.58756 12.6033 9.39975 15.9163 12.4109 17.2785C15.4238 18.6411 15.44 18.226 15.992 18.1954C16.5456 18.1649 17.7987 17.5119 18.0761 16.7969C18.3531 16.0815 18.3754 15.4597 18.305 15.3274C18.2344 15.1949 18.0366 15.1093 17.7417 14.9424L17.7417 14.9425ZM12.2171 22.3083C10.2261 22.3083 8.37038 21.691 6.82195 20.6327L3.05268 21.8792L4.27771 18.1169C3.10362 16.4469 2.41041 14.395 2.41041 12.1773C2.41041 6.59042 6.81001 2.04611 12.2171 2.04611C17.626 2.04611 22.0255 6.59044 22.0255 12.1773C22.0255 17.7631 17.6259 22.3083 12.2171 22.3083L12.2171 22.3083ZM12.2171 0.00781479C5.71112 0.00781479 0.436026 5.45613 0.436026 12.1773C0.436026 14.4769 1.0541 16.6267 2.12703 18.4614L0 24.9901L6.52279 22.8334C8.21099 23.7973 10.152 24.3471 12.2171 24.3471C18.7252 24.3471 24 18.8982 24 12.1773C24 5.45612 18.7252 0.0078125 12.2171 0.0078125L12.2171 0.00781479Z" fill="#00C11F"/>
</g>
<defs>
<clipPath id="clip0">
<rect width="24" height="25" fill="white"/>
</clipPath>
</defs>
</svg>
