<svg width="60" height="60" viewBox="0 0 60 60" fill="none" xmlns="http://www.w3.org/2000/svg">
<path d="M55 9H5C2.79086 9 1 10.7909 1 13V55C1 57.2091 2.79086 59 5 59H55C57.2091 59 59 57.2091 59 55V13C59 10.7909 57.2091 9 55 9Z" stroke="#00757E" stroke-width="2" stroke-linecap="round" stroke-linejoin="round"/>
<path fill-rule="evenodd" clip-rule="evenodd" d="M25 1H35C38.866 1 42 4.13401 42 8V9H18V8C18 4.13401 21.134 1 25 1Z" stroke="#00757E" stroke-width="2" stroke-linecap="round" stroke-linejoin="round"/>
<path fill-rule="evenodd" clip-rule="evenodd" d="M26 5H34C36.2091 5 38 6.79086 38 9H22C22 6.79086 23.7909 5 26 5Z" stroke="#00757E" stroke-width="2" stroke-linecap="round" stroke-linejoin="round"/>
<path d="M59 13V34C59 36.2091 57.2091 38 55 38H35" stroke="#00757E" stroke-width="2" stroke-linecap="round" stroke-linejoin="round"/>
<path d="M1 13V34C1 36.2091 2.79086 38 5 38H25" stroke="#00757E" stroke-width="2" stroke-linecap="round" stroke-linejoin="round"/>
<path fill-rule="evenodd" clip-rule="evenodd" d="M34.768 42.987L30.768 47.65C30.5748 47.8725 30.2947 48.0003 30 48.0003C29.7053 48.0003 29.4252 47.8725 29.232 47.65L25.232 42.987C25.0828 42.8141 25.0005 42.5934 25 42.365V33H35V42.365C34.9995 42.5934 34.9172 42.8141 34.768 42.987Z" stroke="#00757E" stroke-width="2" stroke-linecap="round" stroke-linejoin="round"/>
<path fill-rule="evenodd" clip-rule="evenodd" d="M36.0397 33H23.9617C23.4159 33.0001 22.9709 32.5626 22.9617 32.017C22.9377 29.32 23.4747 22 30.0007 22C36.5267 22 37.0637 29.32 37.0397 32.017C37.0304 32.5626 36.5854 33.0001 36.0397 33Z" stroke="#00757E" stroke-width="2" stroke-linecap="round" stroke-linejoin="round"/>
<path d="M7 14H25" stroke="#00757E" stroke-width="2" stroke-linecap="round" stroke-linejoin="round"/>
<path d="M30 14H32" stroke="#00757E" stroke-width="2" stroke-linecap="round" stroke-linejoin="round"/>
<path d="M37 14H50" stroke="#00757E" stroke-width="2" stroke-linecap="round" stroke-linejoin="round"/>
<path d="M30 43C30.5523 43 31 42.5523 31 42C31 41.4477 30.5523 41 30 41C29.4477 41 29 41.4477 29 42C29 42.5523 29.4477 43 30 43Z" fill="#00757E"/>
<path d="M30 39C30.5523 39 31 38.5523 31 38C31 37.4477 30.5523 37 30 37C29.4477 37 29 37.4477 29 38C29 38.5523 29.4477 39 30 39Z" fill="#00757E"/>
<path d="M52 38V51C52 53.2091 50.2091 55 48 55H12C9.79086 55 8 53.2091 8 51V38" stroke="#00757E" stroke-width="2" stroke-linecap="round" stroke-linejoin="round"/>
<path d="M12 38V50" stroke="#00757E" stroke-width="2" stroke-linecap="round" stroke-linejoin="round"/>
<path d="M48 38V50" stroke="#00757E" stroke-width="2" stroke-linecap="round" stroke-linejoin="round"/>
<path d="M16 38V44" stroke="#00757E" stroke-width="2" stroke-linecap="round" stroke-linejoin="round"/>
<path d="M44 38V44" stroke="#00757E" stroke-width="2" stroke-linecap="round" stroke-linejoin="round"/>
<path d="M5 25V32C5 33.1046 5.89543 34 7 34H15" stroke="#00757E" stroke-width="2" stroke-linecap="round" stroke-linejoin="round"/>
<path d="M55 25V32C55 33.1046 54.1046 34 53 34H45" stroke="#00757E" stroke-width="2" stroke-linecap="round" stroke-linejoin="round"/>
</svg>
