<svg width="56" height="60" viewBox="0 0 56 60" fill="none" xmlns="http://www.w3.org/2000/svg">
<g clip-path="url(#clip0)">
<path fill-rule="evenodd" clip-rule="evenodd" d="M54.0019 35C54.4234 35 54.7997 35.2644 54.9426 35.6609C55.0856 36.0575 54.9645 36.5011 54.6399 36.77L45.9519 44.15L28.6389 58.771C28.2692 59.0765 27.7346 59.0765 27.3649 58.771L10.0519 44.15L1.36592 36.77C1.04163 36.5013 0.920451 36.0582 1.06287 35.6618C1.20528 35.2655 1.58076 35.0009 2.00192 35H9.00192C10.1065 35 11.0019 34.1046 11.0019 33V3C11.0019 1.89543 11.8973 1 13.0019 1H43.0019C44.1065 1 45.0019 1.89543 45.0019 3V33C45.0019 34.1046 45.8973 35 47.0019 35H54.0019Z" stroke="#00757E" stroke-width="2" stroke-linecap="round" stroke-linejoin="round"/>
<path d="M36 42L33.481 44.11L30.963 46.221L28.444 48.331C28.3818 48.3835 28.3107 48.4245 28.234 48.452C28.0839 48.5053 27.9201 48.5053 27.77 48.452C27.6937 48.4245 27.6229 48.3835 27.561 48.331L25.04 46.224L22.52 44.112L20 42" stroke="#00757E" stroke-width="2" stroke-linecap="round" stroke-linejoin="round"/>
<path d="M36 47L33.481 49.11L30.963 51.221L28.444 53.331C28.3818 53.3835 28.3107 53.4245 28.234 53.452C28.0839 53.5053 27.9201 53.5053 27.77 53.452C27.6937 53.4245 27.6229 53.3835 27.561 53.331L25.04 51.224L22.52 49.112L20 47" stroke="#00757E" stroke-width="2" stroke-linecap="round" stroke-linejoin="round"/>
<path d="M36 37L33.481 39.11L30.963 41.221L28.444 43.331C28.3818 43.3835 28.3107 43.4245 28.234 43.452C28.0839 43.5053 27.9201 43.5053 27.77 43.452C27.6937 43.4245 27.6229 43.3835 27.561 43.331L25.04 41.224L22.52 39.112L20 37" stroke="#00757E" stroke-width="2" stroke-linecap="round" stroke-linejoin="round"/>
<path d="M38.4181 10.4145C39.1992 9.63347 39.1992 8.36714 38.4181 7.58609C37.6371 6.80504 36.3707 6.80504 35.5897 7.58609L17.5896 25.5862C16.8085 26.3672 16.8085 27.6336 17.5896 28.4146C18.3706 29.1957 19.637 29.1957 20.418 28.4146L38.4181 10.4145Z" stroke="#00757E" stroke-width="2" stroke-linecap="round" stroke-linejoin="round"/>
<path d="M20 13C21.6569 13 23 11.6569 23 10C23 8.34315 21.6569 7 20 7C18.3431 7 17 8.34315 17 10C17 11.6569 18.3431 13 20 13Z" stroke="#00757E" stroke-width="2" stroke-linecap="round" stroke-linejoin="round"/>
<path d="M36 29C37.6569 29 39 27.6569 39 26C39 24.3431 37.6569 23 36 23C34.3431 23 33 24.3431 33 26C33 27.6569 34.3431 29 36 29Z" stroke="#00757E" stroke-width="2" stroke-linecap="round" stroke-linejoin="round"/>
</g>
<defs>
<clipPath id="clip0">
<rect width="56" height="60" fill="white"/>
</clipPath>
</defs>
</svg>
