<?xml version="1.0" encoding="UTF-8" standalone="no"?>
<svg
   xmlns:dc="http://purl.org/dc/elements/1.1/"
   xmlns:cc="http://creativecommons.org/ns#"
   xmlns:rdf="http://www.w3.org/1999/02/22-rdf-syntax-ns#"
   xmlns:svg="http://www.w3.org/2000/svg"
   xmlns="http://www.w3.org/2000/svg"
   width="24.80073mm"
   height="17.115417mm"
   viewBox="0 0 24.80073 17.115417"
   version="1.1"
   id="svg8">
  <defs
     id="defs2">
    <clipPath
       id="clip0">
      <rect
         width="46.967602"
         height="46.967602"
         fill="#ffffff"
         transform="rotate(44.5817,38.9834,95.094605)"
         id="rect22"
         x="0"
         y="0" />
    </clipPath>
  </defs>
  <metadata
     id="metadata5">
    <rdf:RDF>
      <cc:Work
         rdf:about="">
        <dc:format>image/svg+xml</dc:format>
        <dc:type
           rdf:resource="http://purl.org/dc/dcmitype/StillImage" />
        <dc:title></dc:title>
      </cc:Work>
    </rdf:RDF>
  </metadata>
  <g
     id="layer1"
     transform="translate(-126.08066,-158.744)">
    <g
       style="fill:none"
       id="g41"
       transform="matrix(0.26458333,0,0,0.26458333,126.08066,158.48995)">
      <g
         clip-path="url(#clip0)"
         id="g12">
        <path
           d="m 80.1979,57.5605 0.0088,1.2071 0.8473,-0.8598 9.0838,-9.2174 c 0.702,-0.7124 1.8483,-0.7207 2.5607,-0.0187 0.7123,0.702 0.7206,1.8485 0.0185,2.5609 L 79.7174,64.4234 c -0.702,0.7124 -1.8483,0.7208 -2.5607,0.0187 L 63.9659,51.4425 c -0.7124,-0.702 -0.7208,-1.8483 -0.0187,-2.5607 0.702,-0.7124 1.8483,-0.7207 2.5607,-0.0187 l 9.2174,9.0838 0.8598,0.8473 L 76.5763,57.5871 76.2205,8.85973 76.2117,7.65265 75.3644,8.51241 66.2808,17.7296 C 65.5787,18.442 64.4324,18.4504 63.7201,17.7483 63.0077,17.0463 62.9993,15.9 63.7014,15.1876 L 76.7009,1.9968 C 77.403,1.28446 78.5495,1.27622 79.2617,1.9781 l 13.1908,12.9996 c 0.7123,0.702 0.7207,1.8483 0.0187,2.5607 -0.7021,0.7124 -1.8484,0.7207 -2.5607,0.0187 L 80.6931,8.47333 79.8333,7.62603 79.8421,8.8331 Z"
           fill="#00757e"
           stroke="#f6f9fb"
           id="path10" />
      </g>
      <path
         d="m 52.908,37.5086 c -1.5308,-2.3853 -3.6875,-4.2941 -6.2369,-5.5196 -0.5835,-0.2806 -1.2837,-0.035 -1.564,0.5484 -0.2805,0.5834 -0.0349,1.2834 0.5484,1.5639 4.4427,2.1356 7.3132,6.6987 7.3132,11.6251 0,2.1079 -0.5196,4.1984 -1.5025,6.0458 -0.3039,0.5713 -0.0873,1.281 0.4841,1.5849 0.1754,0.0933 0.3638,0.1376 0.5494,0.1376 0.4193,0 0.8249,-0.2257 1.0356,-0.6217 1.1626,-2.1848 1.7772,-4.6562 1.7772,-7.1466 0,-2.925 -0.8315,-5.7667 -2.4045,-8.2178 z"
         fill="#00757e"
         id="path14" />
      <path
         d="m 34.5009,57.3518 c -4.4425,-2.1357 -7.313,-6.6988 -7.313,-11.625 0,-2.108 0.5196,-4.1985 1.5024,-6.0459 0.304,-0.5712 0.0873,-1.2809 -0.4841,-1.5849 -0.5712,-0.304 -1.2811,-0.0873 -1.5849,0.4841 -1.1627,2.1849 -1.7772,4.6562 -1.7772,7.1467 0,2.9249 0.8315,5.7665 2.4045,8.2177 1.5308,2.3854 3.6875,4.2941 6.2369,5.5198 0.1637,0.0787 0.3367,0.1159 0.507,0.1159 0.4364,0 0.8552,-0.2448 1.057,-0.6644 0.2802,-0.5833 0.0348,-1.2835 -0.5486,-1.564 z"
         fill="#00757e"
         id="path16" />
      <path
         d="m 45.3994,26.5275 c -0.1426,-0.3399 -0.3173,-0.6602 -0.5207,-0.9572 h 3.0509 c 2.9723,0 5.3906,-2.4183 5.3906,-5.3906 0,-2.9724 -2.4183,-5.3907 -5.3906,-5.3907 h -9.3844 c 0.5966,-0.8674 0.9469,-1.9168 0.9469,-3.0468 0,-2.97236 -2.4183,-5.39064 -5.3906,-5.39064 H 5.39061 C 2.41828,6.35156 0,8.76984 0,11.7422 c 0,2.9723 2.41828,5.3906 5.39061,5.3906 H 14.775 c -0.5966,0.8674 -0.9469,1.9168 -0.9469,3.0469 0,1.13 0.3502,2.1794 0.9469,3.0468 h -3.0563 c -2.97231,0 -5.39059,2.4183 -5.39059,5.3906 0,1.7071 0.79852,3.2304 2.04082,4.2188 -1.2423,0.9883 -2.04082,2.5117 -2.04082,4.2187 0,1.7071 0.79852,3.2304 2.04082,4.2188 -1.2423,0.9883 -2.04082,2.5116 -2.04082,4.2187 0,1.7071 0.79852,3.2304 2.04082,4.2188 -1.2423,0.9883 -2.04082,2.5116 -2.04082,4.2187 0,2.9723 2.41828,5.3906 5.39059,5.3906 h 13.8105 c 3.6382,3.8915 8.8139,6.3282 14.549,6.3282 C 51.0631,65.6484 60,56.7115 60,45.7266 60,36.584 53.809,28.8612 45.3994,26.5275 Z m 2.5302,-9.3947 c 1.6801,0 3.0469,1.3669 3.0469,3.0469 0,1.68 -1.3668,3.0468 -3.0469,3.0468 h -7.5 -21.2109 c -1.6801,0 -3.0469,-1.3668 -3.0469,-3.0468 0,-1.68 1.3668,-3.0469 3.0469,-3.0469 z M 5.39061,14.789 c -1.68011,0 -3.04686,-1.3668 -3.04686,-3.0468 0,-1.68 1.36675,-3.04689 3.04686,-3.04689 H 34.1015 c 1.6801,0 3.0469,1.36689 3.0469,3.04689 0,1.68 -1.3668,3.0468 -3.0469,3.0468 z m 6.32809,10.7813 h 28.7109 c 0.472,0 0.924,0.1097 1.3295,0.3061 -0.5543,-0.0466 -1.1147,-0.0716 -1.6809,-0.0716 -5.5014,0 -10.4889,2.2416 -14.0975,5.8592 h -14.262 c -1.68,0 -3.04684,-1.3669 -3.04684,-3.0469 0,-1.68 1.36684,-3.0468 3.04684,-3.0468 z m 0,8.4375 h 12.2596 c -1.3303,1.8226 -2.3589,3.8783 -3.0121,6.0937 h -9.2475 c -1.6801,0 -3.04684,-1.3668 -3.04684,-3.0469 0,-1.68 1.36674,-3.0468 3.04684,-3.0468 z m 0,8.4374 h 8.7094 c -0.1778,1.068 -0.2718,2.1638 -0.2718,3.2814 0,0.9546 0.0691,1.8933 0.1995,2.8124 h -8.6371 c -1.6801,0 -3.04684,-1.3668 -3.04684,-3.0469 0,-1.6801 1.36674,-3.0469 3.04684,-3.0469 z m 0,14.5313 c -1.6801,0 -3.04684,-1.3668 -3.04684,-3.0469 0,-1.6801 1.36674,-3.0469 3.04684,-3.0469 h 9.1156 c 0.5913,2.2047 1.5519,4.2593 2.8116,6.0938 z m 28.3595,6.3282 c -9.6926,0 -17.5781,-7.8855 -17.5781,-17.5781 0,-9.6926 7.8855,-17.5781 17.5781,-17.5781 9.6925,0 17.5781,7.8855 17.5781,17.5781 0,9.6926 -7.8856,17.5781 -17.5781,17.5781 z"
         fill="#00757e"
         id="path18" />
      <path
         d="m 41.8099,46.8152 c 2.2581,-0.7341 3.3291,-2.8098 2.5989,-5.0557 -0.7301,-2.246 -2.8011,-3.2463 -5.0591,-2.5122 l -4.3336,1.4088 c -0.1758,0.0572 -0.2724,0.2447 -0.2158,0.4188 l 1.7652,5.4298 -1.3795,0.4484 c -0.1758,0.0572 -0.2724,0.2447 -0.2158,0.4189 l 0.3875,1.1921 c 0.0567,0.1741 0.2451,0.269 0.4209,0.2119 l 1.3794,-0.4485 0.2734,0.8409 -1.3794,0.4484 c -0.1758,0.0572 -0.2725,0.2447 -0.2159,0.4188 l 0.3417,1.0511 c 0.0566,0.1742 0.2451,0.269 0.4209,0.2119 l 1.3794,-0.4485 0.4442,1.3665 c 0.0566,0.1741 0.2451,0.269 0.4209,0.2118 l 1.5534,-0.505 c 0.1758,-0.0572 0.2725,-0.2447 0.2159,-0.4188 l -0.4443,-1.3665 4.2827,-1.3922 c 0.1758,-0.0572 0.2724,-0.2447 0.2158,-0.4188 L 44.325,47.276 C 44.2684,47.1018 44.08,47.007 43.9042,47.0641 l -4.2827,1.3923 -0.2733,-0.8409 z m -4.3347,-4.9611 2.0882,-0.6789 c 1.2394,-0.4029 2.2351,0.1192 2.6214,1.3073 0.3915,1.2043 -0.1016,2.2284 -1.3749,2.6424 l -2.0543,0.6678 z"
         fill="#00757e"
         id="path20" />
    </g>
  </g>
</svg>
