<?xml version="1.0" encoding="UTF-8" standalone="no"?>
<svg
   xmlns:dc="http://purl.org/dc/elements/1.1/"
   xmlns:cc="http://creativecommons.org/ns#"
   xmlns:rdf="http://www.w3.org/1999/02/22-rdf-syntax-ns#"
   xmlns:svg="http://www.w3.org/2000/svg"
   xmlns="http://www.w3.org/2000/svg"
   width="15.875mm"
   height="15.875003mm"
   viewBox="0 0 15.875 15.875003"
   version="1.1"
   id="svg8">
  <defs
     id="defs2" />
  <metadata
     id="metadata5">
    <rdf:RDF>
      <cc:Work
         rdf:about="">
        <dc:format>image/svg+xml</dc:format>
        <dc:type
           rdf:resource="http://purl.org/dc/dcmitype/StillImage" />
        <dc:title></dc:title>
      </cc:Work>
    </rdf:RDF>
  </metadata>
  <g
     id="layer1"
     transform="translate(-57.654675,-116.89496)">
    <g
       style="fill:none"
       id="g27"
       transform="matrix(0.23007246,0,0,0.26447549,57.654675,113.60933)">
      <path
         d="M 46.3883,37.297 40.5149,34.6866 C 40.1,34.5023 39.8321,34.0897 39.8321,33.6358 V 32.023 c 1.9729,-1.5721 3.2411,-3.9929 3.2411,-6.7057 v -2.2704 c 0.65,-0.3592 1.0803,-1.0532 1.0803,-1.8305 V 20.996 c 0,-4.727 -3.8459,-8.5728 -8.5729,-8.5728 H 33.42 c -4.727,0 -8.5728,3.8458 -8.5728,8.5728 v 1.9993 c 0,0.6832 0.294,1.3022 0.8065,1.6983 0.087,0.0671 0.1785,0.1261 0.2738,0.1772 v 0.4464 c 0,2.7128 1.268,5.1336 3.2408,6.7055 v 1.613 c 0,0.4539 -0.268,0.8664 -0.6829,1.0508 l -5.8733,2.6104 c -1.9235,0.8548 -3.1665,2.7674 -3.1665,4.8723 v 13.3963 c 0,0.5582 0.4526,1.0107 1.0108,1.0107 0.5582,0 1.0107,-0.4525 1.0107,-1.0107 V 42.1694 c 0,-0.1172 0.0084,-0.2329 0.0205,-0.3477 l 2.7064,2.7063 c 0.4211,0.4213 0.6532,0.9813 0.6532,1.5771 v 9.4605 c 0,0.5582 0.4525,1.0108 1.0107,1.0108 0.5582,0 1.0108,-0.4526 1.0108,-1.0108 v -9.4605 c 0,-1.1357 -0.4422,-2.2033 -1.2453,-3.0064 L 22.397,39.8721 c 0.2907,-0.3016 0.6395,-0.5516 1.0362,-0.728 l 5.7743,-2.5663 4.2822,4.2822 v 14.7055 c 0,0.5582 0.4525,1.0107 1.0108,1.0107 0.5582,0 1.0107,-0.4525 1.0107,-1.0107 V 40.8601 l 4.2822,-4.2822 5.7742,2.5662 c 0.3967,0.1764 0.7455,0.4264 1.0362,0.7282 l -3.2265,3.2264 c -0.803,0.8031 -1.2452,1.8707 -1.2452,3.0064 v 9.4605 c 0,0.5582 0.4526,1.0108 1.0108,1.0108 0.5582,0 1.0107,-0.4526 1.0107,-1.0108 v -9.4605 c 0,-0.5957 0.2319,-1.1558 0.6532,-1.5771 l 2.7062,-2.7062 c 0.0122,0.1148 0.0205,0.2303 0.0205,0.3474 v 13.3963 c 0,0.5582 0.4526,1.0107 1.0108,1.0107 0.5582,0 1.0107,-0.4525 1.0107,-1.0107 V 42.1694 c -4e-4,-2.1049 -1.2432,-4.0175 -3.1667,-4.8724 z M 34.5,39.0121 30.7426,35.2545 c 0.2857,-0.4807 0.4471,-1.0369 0.4471,-1.6187 v -0.4113 c 1.0192,0.4283 2.1376,0.6657 3.3105,0.6657 1.1728,0 2.2911,-0.2372 3.3102,-0.6655 v 0.4111 c 0,0.582 0.1614,1.138 0.4472,1.6189 z m 2e-4,-7.1436 c -3.6124,2e-4 -6.5514,-2.9388 -6.5514,-6.5512 v -0.4546 c 0.6307,-0.25 1.2463,-0.6478 1.8357,-1.1916 0.41,-0.3785 0.4358,-1.018 0.0571,-1.4282 -0.3786,-0.4101 -1.0179,-0.4359 -1.4283,-0.0573 -0.5055,0.4667 -1.0106,0.7682 -1.5008,0.8962 -0.0119,0.0031 -0.0207,0.0044 -0.0269,0.005 -0.0072,-0.0142 -0.0171,-0.0438 -0.0171,-0.0914 v -1.9992 c 0,-3.6124 2.939,-6.5514 6.5514,-6.5514 h 2.1606 c 3.6125,0 6.5513,2.939 6.5513,6.5514 v 0.2203 c 0,0.0327 -0.0196,0.0612 -0.0455,0.0663 -6.0525,1.1954 -9.0882,-1.0575 -10.1124,-2.0817 -0.3948,-0.3948 -1.0348,-0.3948 -1.4294,0 -0.3947,0.3947 -0.3947,1.0347 0,1.4293 3.1387,3.1387 7.7188,3.1953 10.5071,2.8603 v 1.8265 c 0,3.6124 -2.939,6.5513 -6.5514,6.5513 z"
         fill="#00757e"
         id="path10" />
      <path
         d="m 18.226,31.7996 v -2.161 c 0,-2.6368 -1.3703,-4.958 -3.435,-6.2938 0.1274,-0.409 0.194,-0.8374 0.194,-1.2683 0,-2.3444 -1.9072,-4.2516 -4.2516,-4.2516 -2.34436,0 -4.25157,1.9074 -4.25157,4.2516 0,0.4363 0.06604,0.8605 0.1938,1.2686 -2.06462,1.3356 -3.43478,3.6568 -3.43478,6.2935 v 2.1606 c 0,2.5534 1.28472,4.8113 3.24085,6.1646 v 2.2227 c 0,0.4384 -0.24352,0.8324 -0.63556,1.0285 L 2.35018,42.9629 C 0.900506,43.688 0,45.1451 0,46.7659 v 8.8001 c 0,0.5582 0.452544,1.0107 1.01074,1.0107 0.5582,0 1.01075,-0.4525 1.01075,-1.0107 v -8.3629 l 1.64657,1.6465 c 0.42114,0.4213 0.65321,0.9813 0.65321,1.5771 v 5.1393 c 0,0.5582 0.45254,1.0107 1.01074,1.0107 0.5582,0 1.01075,-0.4525 1.01075,-1.0107 v -5.1393 c 0,-1.1357 -0.44231,-2.2033 -1.24524,-3.0064 L 2.80583,45.1286 C 2.79477,45.1176 2.78292,45.108 2.7716,45.0976 2.91539,44.9707 3.07671,44.8602 3.25433,44.7712 l 3.49596,-1.7479 c 0.1791,-0.0896 0.34581,-0.1954 0.50119,-0.3129 l 2.4712,2.4713 v 10.3844 c 0,0.5582 0.45252,1.0108 1.01072,1.0108 0.5582,0 1.0108,-0.4526 1.0108,-1.0108 V 45.1816 l 2.4713,-2.4713 c 0.1555,0.1176 0.3221,0.2234 0.5012,0.3129 l 4.964,1.482 c 0.1451,0.0727 0.2993,0.107 0.4513,0.107 0.3708,0 -0.2722,-0.2048 -0.0952,-0.5588 0.2498,-0.4993 1.0473,-1.1065 0.548,-1.356 l -1.964,-0.4821 c -0.3921,-0.1961 -3.6356,-1.5901 -3.6356,-2.0284 v -2.2227 c 1.9561,-1.3533 3.2408,-3.6113 3.2408,-6.1646 z M 10.7334,19.8464 c 1.2298,0 2.2301,1.0005 2.2301,2.2301 0,0.1355 -0.0121,0.2682 -0.0353,0.3982 -0.6946,-0.2132 -1.4313,-0.3286 -2.1948,-0.3286 -0.76234,0 -1.49816,0.115 -2.19167,0.3277 -0.02331,-0.13 -0.03841,-0.2621 -0.03841,-0.3973 0,-1.2297 1.00037,-2.2301 2.23008,-2.2301 z m 0,4.3213 c 3.0168,0 5.4711,2.4543 5.4711,5.4711 v 0.3663 C 11.9965,31.2934 9.4886,28.0923 9.38146,27.952 9.20559,27.7177 8.93673,27.5711 8.64456,27.5503 8.35238,27.5298 8.06533,27.6367 7.8582,27.8438 6.89341,28.8086 5.94843,29.274 5.26598,29.4986 5.34077,26.5464 7.76373,24.1677 10.7334,24.1677 Z m 0,19.1657 -2.3356,-2.3356 c 0.06819,-0.2607 0.10552,-0.5323 0.10552,-0.8112 v -1.2338 c 0.70469,0.2203 1.45386,0.339 2.23008,0.339 0.7763,0 1.5254,-0.1187 2.2301,-0.339 v 1.2338 c 0,0.2789 0.0374,0.5507 0.1056,0.8112 z m 0,-6.0631 c -3.01671,0 -5.47106,-2.4544 -5.47106,-5.4711 v -0.2094 c 0.80603,-0.1852 2.00114,-0.6155 3.24786,-1.6182 0.44108,0.4162 1.07152,0.9267 1.8743,1.3645 0.9496,0.518 2.261,0.997 3.8628,0.997 0.6088,0 1.2601,-0.0707 1.9486,-0.2332 -0.1567,2.8775 -2.5467,5.1704 -5.4625,5.1704 z"
         fill="#00757e"
         id="path12" />
      <path
         d="m 66.6499,40.8025 -5.6565,-2.8284 c -0.392,-0.196 -0.6356,-0.5901 -0.6356,-1.0284 v -1.4324 c 1.3241,-1.1755 2.1606,-2.8887 2.1606,-4.7943 v -1.1505 c 0.0233,0 0.0462,7e-4 0.0695,7e-4 0.5582,0 1.0108,-0.4525 1.0108,-1.0107 v -2.1606 c 0,-3.5357 -2.8766,-6.4123 -6.4123,-6.4123 h -2.1606 c -3.5357,0 -6.4123,2.8766 -6.4123,6.4123 v 2.1606 c 0,0.5582 0.4526,1.0107 1.0108,1.0107 0.0083,0 0.0326,-3e-4 0.0695,-0.0018 v 1.1516 c 0,1.9057 0.8366,3.6189 2.1607,4.7945 v 1.4324 c 0,0.4384 -3.2435,2.8324 -3.6357,3.0284 -0.4993,0.2496 -0.7017,0.8567 -0.452,1.356 0.1771,0.3542 0.5341,0.559 0.9048,0.559 0.1519,0 3.3061,-2.0344 3.4512,-2.1069 0.1791,-0.0896 0.3458,-0.1954 0.5012,-0.3129 l 2.4714,2.4713 v 13.6253 c 0,0.5582 0.4525,1.0107 1.0107,1.0107 0.5582,0 1.0108,-0.4525 1.0108,-1.0107 V 41.9406 l 2.4712,-2.4714 c 0.1555,0.1177 0.322,0.2235 0.5012,0.313 l 5.4735,2.7368 -1.6602,1.6602 c -0.8029,0.803 -1.2453,1.8707 -1.2453,3.0063 v 8.3803 c 0,0.5582 0.4526,1.0107 1.0108,1.0107 0.5582,0 1.0107,-0.4525 1.0107,-1.0107 v -8.3803 c 0,-0.5956 0.232,-1.1557 0.6533,-1.577 l 1.5725,-1.5726 c 0.0477,0.1829 0.0739,0.3736 0.0739,0.5693 v 10.9606 c 0,0.5582 0.4525,1.0107 1.0107,1.0107 C 68.5474,56.5765 69,56.124 69,55.5658 V 44.6052 c 1e-4,-1.6207 -0.9004,-3.0778 -2.3501,-3.8027 z M 50.6349,27.3398 v -0.942 c 0,-2.4211 1.9699,-4.3909 4.3909,-4.3909 h 2.1606 c 2.4211,0 4.3908,1.9698 4.3908,4.3909 v 1.1227 c -4.3938,-0.2371 -7.0453,-1.9468 -7.071,-1.9637 -0.1711,-0.114 -0.3662,-0.1698 -0.5604,-0.1698 -0.2609,0 -0.5196,0.1008 -0.7151,0.2961 -0.967,0.9671 -1.9146,1.4326 -2.5958,1.6567 z m 5.4712,12.7527 -2.3356,-2.3356 c 0.0682,-0.2606 0.1055,-0.5323 0.1055,-0.8112 v -0.2152 c 0.6949,0.2586 1.4462,0.4007 2.2301,0.4007 0.7839,0 1.5353,-0.1421 2.2301,-0.4007 v 0.2152 c 0,0.2789 0.0372,0.5506 0.1055,0.8112 z m 0,-4.9827 c -2.4211,0 -4.3908,-1.9696 -4.3908,-4.3908 v -1.6294 c 0.7079,-0.2829 1.5327,-0.7326 2.372,-1.4477 1.0614,0.5523 3.2821,1.5068 6.4096,1.8222 v 1.2549 c 0,2.4211 -1.9697,4.3908 -4.3908,4.3908 z"
         fill="#00757e"
         id="path14" />
    </g>
    <rect
       style="fill:none;stroke-width:0.289486"
       id="rect28"
       width="15.875"
       height="4.1908784"
       x="57.654675"
       y="128.57909" />
  </g>
</svg>
