<svg width="80" height="80" viewBox="0 0 80 80" fill="none" xmlns="http://www.w3.org/2000/svg">
<circle cx="39.759" cy="39.759" r="23.1325" fill="#00757E"/>
<circle opacity="0.3" cx="39.759" cy="39.759" r="39.759" fill="#00757E"/>
<path fill-rule="evenodd" clip-rule="evenodd" d="M33.5465 50.2636C34.0863 50.3539 34.7772 50.4217 35.6408 50.4895C36.5044 50.5572 37.5192 50.5798 38.6851 50.6024C40.0669 50.6024 41.2976 50.5121 42.3555 50.3765C43.4135 50.2184 44.3203 49.9925 45.076 49.6988C45.8316 49.4051 46.4578 49.0437 46.976 48.6145C47.4078 48.253 47.7964 47.8238 48.1203 47.3494C48.4441 46.875 48.7032 46.3554 48.8759 45.7907C49.0487 45.2259 49.1566 44.5934 49.1566 43.9383C49.1566 42.9895 48.9623 42.1536 48.5953 41.4307C48.2282 40.7078 47.7532 40.0979 47.1271 39.6009C46.501 39.1039 45.7885 38.7425 44.968 38.5166V38.4488C45.7669 38.1325 46.4146 37.7485 46.9112 37.2515C47.4294 36.7771 47.7964 36.235 48.0555 35.625C48.293 35.0151 48.4225 34.4051 48.4225 33.7274C48.4225 33.0723 48.3146 32.4624 48.0987 31.8976C47.8828 31.3554 47.5805 30.8584 47.2135 30.4518C46.8464 30.0226 46.393 29.6837 45.918 29.4127C45.4214 29.0964 44.8601 28.8479 44.2771 28.6672C43.6942 28.4865 43.0248 28.3509 42.2692 28.2831C41.5135 28.2154 40.6499 28.1928 39.6999 28.1928C39.0953 28.1928 38.5124 28.1928 37.9078 28.2154C37.3249 28.238 36.7419 28.2606 36.2021 28.3057C35.6624 28.3509 35.1658 28.3961 34.7124 28.4639C34.259 28.509 33.8703 28.5768 33.5681 28.6446V33.863H29.6385V37.613H33.5465V41.363H29.6385V45.113H33.5465V50.2636ZM38.2533 31.9428C38.4476 31.9202 38.7067 31.875 39.0305 31.8524C39.3544 31.8298 39.7646 31.8072 40.2828 31.8072C41.3623 31.8072 42.2044 32.0331 42.7657 32.4624C43.3487 32.8916 43.6294 33.5241 43.651 34.3599C43.651 34.9021 43.4998 35.3765 43.2192 35.7831C42.9385 36.1898 42.5067 36.506 41.9237 36.7319C41.3623 36.9578 40.6499 37.0708 39.8078 37.0708H38.2533V31.9428ZM38.2533 40.6401H39.8726C40.4771 40.6401 41.0169 40.6853 41.5351 40.8208C42.0533 40.9337 42.5067 41.1145 42.8953 41.363C43.2839 41.6115 43.5862 41.9277 43.8021 42.3343C44.018 42.7184 44.126 43.1928 44.126 43.7575C44.126 44.3449 44.018 44.8193 43.8021 45.2259C43.5862 45.6325 43.2839 45.9488 42.9169 46.1973C42.5498 46.4458 42.118 46.6265 41.6214 46.7395C41.1248 46.8524 40.6283 46.8976 40.0669 46.8976C39.6567 46.8976 39.3112 46.8976 39.009 46.8976C38.7067 46.8976 38.4476 46.875 38.2101 46.8298V40.6401H38.2533Z" fill="white"/>
</svg>
