<svg width="60" height="60" viewBox="0 0 60 60" fill="none" xmlns="http://www.w3.org/2000/svg">
<g clip-path="url(#clip0)">
<path d="M35.7939 38.769H31.9049V40.7139H35.7939V38.769Z" fill="#00757E"/>
<path d="M2.59858 35.8622L9.20316 34.919C10.4074 34.1792 11.6572 33.5169 12.9458 32.9358C17.2011 31.0083 21.8196 30.0137 26.4916 30.0188H27.6389C33.1523 30.0228 38.5776 31.4063 43.42 34.0431L46.7532 35.8614C50.6548 35.9053 54.4813 36.9431 57.871 38.8753C59.2486 39.6654 60.0992 41.1311 60.1016 42.7188V48.4922C60.1016 49.0294 59.6664 49.4646 59.1291 49.4646H55.8644C54.8026 52.4939 51.486 54.0891 48.4567 53.0272C46.7892 52.4429 45.4785 51.1318 44.8941 49.4646H18.9173C17.8555 52.4939 14.539 54.0891 11.5097 53.0272C9.84248 52.4429 8.53138 51.1318 7.94704 49.4646H7.5981C7.47427 49.4646 7.35163 49.4413 7.2365 49.3954L4.08732 48.1317C2.68048 47.5747 1.75906 46.213 1.76421 44.7005V36.8248C1.76421 36.3413 2.11988 35.931 2.59858 35.8622ZM46.5684 48.2979C46.9984 50.4022 49.0529 51.7596 51.1573 51.3296C53.262 50.8995 54.6194 48.8451 54.1893 46.7403C53.7589 44.636 51.7044 43.2786 49.6001 43.7086C47.7893 44.0786 46.4893 45.6717 46.4897 47.5201C46.4897 47.7812 46.5162 48.0419 46.5684 48.2979ZM28.9884 47.5201H44.5452C44.5452 44.2981 47.1567 41.6862 50.3787 41.6862C53.6006 41.6862 56.2126 44.2981 56.2126 47.5201H58.1571V42.7188C58.1559 41.8282 57.6788 41.0057 56.9057 40.5634C53.7328 38.7519 50.1429 37.7984 46.4897 37.7972H28.9884V47.5201ZM28.9884 35.8527H42.6762L42.4887 35.7502C38.3319 33.4912 33.7145 32.2106 28.9884 32.006V35.8527ZM27.0439 31.9633H26.4936C22.5753 31.959 18.6926 32.7027 15.0533 34.1551L16.7509 35.8527H27.0439V31.9633ZM9.62133 48.2979C10.0514 50.4022 12.1059 51.7596 14.2106 51.3296C16.3149 50.8995 17.6723 48.8451 17.2423 46.7403C16.8122 44.636 14.7573 43.2786 12.653 43.7086C10.8422 44.0786 9.54221 45.6717 9.5426 47.5201C9.5426 47.7812 9.56911 48.0419 9.62133 48.2979ZM3.70871 38.7693H6.62565V40.7142H3.70871V44.7005C3.70633 45.417 4.1431 46.0618 4.80933 46.3249L7.5981 47.4449C7.5981 47.3555 7.60957 47.2669 7.61551 47.1775C7.62144 47.0881 7.62342 46.9832 7.63292 46.8859C7.64281 46.7886 7.66219 46.6913 7.67762 46.5943C7.69345 46.497 7.70492 46.3997 7.7243 46.3115C7.74369 46.2229 7.77217 46.1247 7.7975 46.0322C7.82281 45.94 7.8422 45.8466 7.87148 45.756C7.90036 45.6658 7.93557 45.5792 7.96841 45.4905C8.00164 45.4023 8.0317 45.3109 8.06573 45.2231C8.09975 45.1357 8.14565 45.0562 8.1864 44.9735C8.22715 44.8908 8.26711 44.8002 8.3126 44.7167C8.35849 44.6332 8.40992 44.562 8.45384 44.4845C8.49736 44.4065 8.55077 44.3179 8.60616 44.2384C8.66194 44.1585 8.71337 44.0956 8.76678 44.0236C8.82019 43.9516 8.88072 43.8669 8.94283 43.7921C9.00495 43.7174 9.0631 43.6588 9.12363 43.5975C9.18377 43.5366 9.25102 43.4539 9.31789 43.3858C9.38514 43.3178 9.45121 43.264 9.51807 43.2038C9.58533 43.1437 9.65733 43.0725 9.73132 43.0092C9.8049 42.9463 9.88007 42.8976 9.95366 42.8422C10.0276 42.7868 10.1016 42.7275 10.1792 42.6757C10.2571 42.6242 10.3445 42.5787 10.428 42.5241C10.5119 42.4696 10.5799 42.4268 10.6587 42.3853C10.7374 42.3433 10.8355 42.2994 10.9249 42.2567C11.0143 42.214 11.0844 42.176 11.167 42.1412C11.2497 42.106 11.3617 42.0692 11.4586 42.0344C11.5559 41.9992 11.6192 41.9719 11.7019 41.9457C11.8127 41.9117 11.9262 41.8872 12.0394 41.8591C12.1134 41.8417 12.1842 41.8184 12.259 41.8029C12.3784 41.7784 12.5011 41.7649 12.6225 41.7471C12.6945 41.7376 12.7634 41.7218 12.8354 41.7151C13.03 41.6957 13.2243 41.685 13.4284 41.685C16.6492 41.6882 19.2592 44.2981 19.2623 47.5189H27.0435V37.7968H16.3485C16.0906 37.7968 15.8433 37.6944 15.6613 37.512L13.14 34.9906C12.0817 35.4943 11.0527 36.0573 10.0577 36.6768C9.94297 36.7484 9.81479 36.7955 9.68068 36.8149L3.70871 37.6674V38.7693Z" fill="#00757E"/>
</g>
<path d="M0.833374 7.83683L16.25 1.58683L16.6667 1.17017L21.6667 3.67017L32.5 7.83683L32.9167 17.8368L31.25 24.9202L25 33.6702L17.5 38.2535L14.5834 37.8368L6.25004 31.5868L1.25004 21.5868L0.833374 7.83683Z" fill="white"/>
<path d="M32.7284 6.74939C27.3506 5.27586 21.9411 2.98144 17.0849 0.114225C16.8269 -0.038075 16.5068 -0.038075 16.2489 0.114225C11.2526 3.06381 6.13544 5.2341 0.604925 6.74939C0.24765 6.84719 0 7.17194 0 7.54242V15.9434C0 24.5946 3.99102 30.3211 7.33918 33.6015C10.9437 37.1334 15.1424 39.0866 16.6669 39.0866C18.1912 39.0866 22.3899 37.1334 25.9945 33.6015C29.3425 30.3212 33.3333 24.5947 33.3333 15.9434V7.54235C33.3333 7.17194 33.0857 6.84719 32.7284 6.74939ZM31.6889 15.9434C31.6889 24.0235 27.9665 29.367 24.8435 32.4269C21.299 35.9 17.5092 37.4421 16.6669 37.4421C15.8246 37.4421 12.0346 35.9 8.48995 32.4269C5.36707 29.3669 1.64446 24.0235 1.64446 15.9434V8.16651C6.9332 6.66488 11.8586 4.56925 16.667 1.77494C21.3554 4.49512 26.5265 6.69496 31.6889 8.1662V15.9434Z" fill="#00757E"/>
<path d="M11.0633 17.8655C10.5585 17.3606 9.88707 17.0827 9.17298 17.0827C8.45889 17.0827 7.78739 17.3606 7.28232 17.8655C6.24004 18.908 6.24004 20.6043 7.28232 21.6467L12.1373 26.5015C12.6422 27.0063 13.3136 27.2843 14.0278 27.2843C14.742 27.2843 15.4134 27.0063 15.9184 26.5014L26.0535 16.3662C27.0957 15.3235 27.0957 13.6274 26.0533 12.5853C25.5484 12.0804 24.877 11.8025 24.1627 11.8025C23.4486 11.8025 22.7772 12.0804 22.2722 12.5853L14.0277 20.8297L11.0633 17.8655ZM23.435 13.7481C23.6293 13.5538 23.8878 13.4469 24.1628 13.4469C24.438 13.4469 24.6963 13.5538 24.8907 13.7481C25.2919 14.1493 25.2919 14.8023 24.8906 15.2036L14.7556 25.3386C14.5613 25.5329 14.3028 25.6399 14.0278 25.6399C13.7528 25.6399 13.4943 25.5329 13.2999 25.3386L8.44507 20.484C8.04375 20.0827 8.04375 19.4296 8.44492 19.0285C8.63928 18.8342 8.89785 18.7271 9.1729 18.7271C9.44796 18.7271 9.70637 18.834 9.90066 19.0283L13.4463 22.574C13.6006 22.7282 13.8096 22.8148 14.0277 22.8148C14.2458 22.8148 14.4549 22.7282 14.609 22.574L23.435 13.7481Z" fill="#00757E"/>
<defs>
<clipPath id="clip0">
<rect width="58.3333" height="58.3333" fill="white" transform="matrix(-1 0 0 1 60 12.5)"/>
</clipPath>
</defs>
</svg>
