<svg width="60" height="60" viewBox="0 0 60 60" fill="none" xmlns="http://www.w3.org/2000/svg">
<path d="M59.506 7.5725C59.4703 7.53899 52.4226 0.817695 52.4226 0.817695C52.1531 0.55918 51.8745 0.291992 51.3542 0.291992H22.9807C22.152 0.291992 21.4777 0.966172 21.4777 1.79492V6.41012L11.4775 8.12434C10.6759 8.26496 10.1369 9.03207 10.2757 9.83281L10.7833 12.792C7.53283 13.8859 4.19568 15.0134 0.97408 16.1707C0.21283 16.449 -0.186663 17.2954 0.0849781 18.0613L6.49338 35.8756C6.62228 36.2341 6.96013 36.4573 7.32049 36.4573C7.41916 36.4573 7.5197 36.4406 7.61791 36.4052C8.07471 36.2409 8.31178 35.7375 8.14748 35.2807L1.83388 17.7297C4.86904 16.643 8.01224 15.5795 11.0841 14.5455L14.1041 32.1523L17.5792 52.4295C17.7047 53.1453 18.3339 53.6546 19.044 53.6546C19.1244 53.6546 19.206 53.6481 19.2878 53.6346L28.6998 52.0194L36.0545 50.7587L24.9931 54.7345L16.2702 57.8708L9.49584 39.0283C9.33166 38.5715 8.82834 38.3345 8.37142 38.4986C7.91463 38.6628 7.67756 39.1663 7.84174 39.6231L14.7122 58.7333C14.9319 59.3342 15.5012 59.7078 16.103 59.7078C16.2693 59.7078 16.4381 59.6792 16.6027 59.6191L25.5876 56.3887L45.9892 49.0558L49.8867 48.3877H58.4966C59.3254 48.3877 59.9997 47.712 59.9997 46.8814V8.56285C59.9998 8.0368 59.7143 7.76844 59.506 7.5725ZM57.1773 7.78063H52.7793L52.6703 7.78109C52.4597 7.7825 51.9667 7.78613 51.8417 7.66191C51.8128 7.6332 51.7791 7.53734 51.7791 7.35934L51.7689 2.6232L57.1773 7.78063ZM58.242 46.6297H23.2355V29.5007C23.2355 29.0154 22.842 28.6218 22.3566 28.6218C21.8712 28.6218 21.4777 29.0154 21.4777 29.5007V46.8812C21.4777 47.7117 22.152 48.3875 22.9807 48.3875H39.4821L28.4026 50.2866L19.2641 51.855L15.8366 31.8552L12.0551 9.80867L21.4776 8.19348V25.4226C21.4776 25.908 21.8711 26.3015 22.3565 26.3015C22.8419 26.3015 23.2354 25.908 23.2354 25.4226V2.04969H50.0098L50.0213 7.36133C50.0213 8.00516 50.2171 8.52594 50.6032 8.90938C51.1965 9.49848 52.0353 9.53949 52.5559 9.53949C52.6007 9.53949 52.6431 9.53914 52.6828 9.53891L58.242 9.53856V46.6297Z" fill="#00757E"/>
<path d="M27.4719 13.9392C27.4719 14.4246 27.8654 14.8181 28.3508 14.8181H53.48C53.9654 14.8181 54.359 14.4246 54.359 13.9392C54.359 13.4538 53.9654 13.0603 53.48 13.0603H28.3508C27.8654 13.0603 27.4719 13.4538 27.4719 13.9392Z" fill="#00757E"/>
<path d="M53.48 19.3044H28.3508C27.8654 19.3044 27.4719 19.698 27.4719 20.1833C27.4719 20.6687 27.8654 21.0623 28.3508 21.0623H53.48C53.9654 21.0623 54.359 20.6687 54.359 20.1833C54.359 19.698 53.9654 19.3044 53.48 19.3044Z" fill="#00757E"/>
<path d="M53.48 25.5483H28.3508C27.8654 25.5483 27.4719 25.9419 27.4719 26.4272C27.4719 26.9126 27.8654 27.3062 28.3508 27.3062H53.48C53.9654 27.3062 54.359 26.9126 54.359 26.4272C54.359 25.9419 53.9654 25.5483 53.48 25.5483Z" fill="#00757E"/>
<path d="M53.48 31.7922H28.3508C27.8654 31.7922 27.4719 32.1858 27.4719 32.6711C27.4719 33.1565 27.8654 33.5501 28.3508 33.5501H53.48C53.9654 33.5501 54.359 33.1565 54.359 32.6711C54.359 32.1858 53.9654 31.7922 53.48 31.7922Z" fill="#00757E"/>
<path d="M53.48 38.0364H28.3508C27.8654 38.0364 27.4719 38.4299 27.4719 38.9153C27.4719 39.4007 27.8654 39.7942 28.3508 39.7942H53.48C53.9654 39.7942 54.359 39.4007 54.359 38.9153C54.359 38.4299 53.9654 38.0364 53.48 38.0364Z" fill="#00757E"/>
</svg>
