<svg width="57" height="56" viewBox="0 0 57 56" fill="none" xmlns="http://www.w3.org/2000/svg">
<g clip-path="url(#clip0)">
<path d="M28.6797 52.7C15.1797 52.7 4.07969 41.5 4.07969 28C4.07969 25.2 4.57969 22.5 5.47969 19.9L19.8797 47.9C20.0797 48.3 20.2797 48.6 20.7797 48.6C21.2797 48.6 21.4797 48.3 21.6797 47.9L28.3797 33C28.4797 32.8 28.5797 32.7 28.6797 32.7C28.8797 32.7 28.8797 32.9 28.9797 33L35.7797 47.9C35.9797 48.3 36.1797 48.6 36.6797 48.6C37.1797 48.6 37.3797 48.3 37.5797 47.9L51.9797 19.9C52.8797 22.4 53.3797 25.1 53.3797 28C53.2797 41.5 42.1797 52.7 28.6797 52.7ZM28.6797 21.6C28.4797 21.6 28.4797 21.4 28.3797 21.3L20.6797 4.7C23.1797 3.8 25.8797 3.3 28.6797 3.3C31.4797 3.3 34.1797 3.8 36.6797 4.7L28.9797 21.3C28.8797 21.4 28.8797 21.6 28.6797 21.6ZM20.5797 39.6C20.3797 39.6 20.3797 39.4 20.2797 39.3L7.67969 15.1C9.87969 11.5 13.0797 8.5 16.7797 6.4L25.6797 25.6C25.8797 26 26.0797 26.1 26.3797 26.1H30.9797C31.2797 26.1 31.4797 26 31.6797 25.6L40.4797 6.4C44.1797 8.5 47.3797 11.5 49.5797 15.1L37.0797 39.3C36.9797 39.5 36.8797 39.6 36.7797 39.6C36.5797 39.6 36.5797 39.4 36.4797 39.3L31.6797 28.7C31.4797 28.3 31.2797 28.2 30.9797 28.2H26.3797C26.0797 28.2 25.8797 28.3 25.6797 28.7L20.8797 39.3C20.7797 39.4 20.7797 39.6 20.5797 39.6ZM28.6797 56C44.1797 56 56.6797 43.5 56.6797 28C56.6797 12.5 44.1797 0 28.6797 0C13.1797 0 0.679688 12.5 0.679688 28C0.679688 43.5 13.1797 56 28.6797 56Z" fill="#001E50"/>
</g>
<defs>
<clipPath id="clip0">
<rect width="56" height="56" fill="white" transform="translate(0.679688)"/>
</clipPath>
</defs>
</svg>
