<svg width="96" height="32" viewBox="0 0 96 32" fill="none" xmlns="http://www.w3.org/2000/svg">
<g clip-path="url(#clip0)">
<path d="M79.68 29.8784C76.1901 29.8784 72.999 28.5805 70.5574 26.4454C72.9818 23.6403 74.4534 19.9901 74.4534 16C74.4534 12.0099 72.9818 8.35936 70.5574 5.55424C72.999 3.4192 76.1901 2.1216 79.68 2.1216C87.3325 2.1216 93.5584 8.3472 93.5584 16C93.5584 23.6525 87.3325 29.8784 79.68 29.8784ZM49.3309 26.4454C51.7552 23.6403 53.2266 19.9901 53.2266 16C53.2266 12.0099 51.7552 8.35936 49.3309 5.55424C51.7725 3.4192 54.9632 2.1216 58.4534 2.1216C61.9434 2.1216 65.1344 3.4192 67.5757 5.55424C65.1517 8.35936 63.68 12.0099 63.68 16C63.68 19.9904 65.1517 23.6403 67.5757 26.4454C65.1344 28.5805 61.9434 29.8784 58.4534 29.8784C54.9632 29.8784 51.7725 28.5805 49.3309 26.4454ZM28.1043 26.4454C30.5286 23.6403 32 19.9904 32 16C32 12.0099 30.5286 8.35936 28.1043 5.55424C30.5456 3.4192 33.7366 2.1216 37.2266 2.1216C40.7168 2.1216 43.9075 3.4192 46.3491 5.55424C43.9248 8.35936 42.4534 12.0099 42.4534 16C42.4534 19.9904 43.9248 23.6403 46.3491 26.4454C43.9075 28.5805 40.7168 29.8784 37.2266 29.8784C33.7366 29.8784 30.5456 28.5805 28.1043 26.4454ZM2.1216 16C2.1216 8.3472 8.34752 2.1216 16 2.1216C19.4902 2.1216 22.681 3.4192 25.1222 5.55424C22.6982 8.35936 21.2266 12.0099 21.2266 16C21.2266 19.9904 22.6982 23.6403 25.1222 26.4454C22.681 28.5805 19.4902 29.8784 16 29.8784C8.34752 29.8784 2.1216 23.6525 2.1216 16ZM26.6134 24.929C24.5779 22.5136 23.3482 19.3984 23.3482 16C23.3482 12.6016 24.5779 9.4864 26.6134 7.07104C28.6486 9.4864 29.8784 12.6016 29.8784 16C29.8784 19.3984 28.6486 22.5136 26.6134 24.929ZM47.84 24.929C45.8048 22.5136 44.5747 19.3984 44.5747 16C44.5747 12.6016 45.8048 9.4864 47.84 7.07104C49.8752 9.4864 51.1053 12.6016 51.1053 16C51.1053 19.3984 49.8752 22.5136 47.84 24.929ZM69.0666 24.929C67.0314 22.5136 65.8016 19.3984 65.8016 16C65.8016 12.6016 67.0314 9.4864 69.0666 7.07104C71.1018 9.4864 72.3318 12.6016 72.3318 16C72.3318 19.3984 71.1018 22.5136 69.0666 24.929ZM79.68 0C75.6106 0 71.8931 1.5296 69.0666 4.04096C66.24 1.5296 62.5229 0 58.4534 0C54.384 0 50.6666 1.5296 47.84 4.04096C45.0134 1.5296 41.296 0 37.2266 0C33.1571 0 29.44 1.5296 26.6134 4.04096C23.7866 1.5296 20.0694 0 16 0C7.1776 0 0 7.1776 0 16C0 24.8224 7.1776 32 16 32C20.0694 32 23.7866 30.4704 26.6134 27.959C29.44 30.4704 33.1571 32 37.2266 32C41.296 32 45.0134 30.4704 47.84 27.959C50.6666 30.4704 54.384 32 58.4534 32C62.5229 32 66.24 30.4704 69.0666 27.959C71.8931 30.4704 75.6106 32 79.68 32C88.5024 32 95.68 24.8224 95.68 16C95.68 7.1776 88.5024 0 79.68 0Z" fill="black"/>
</g>
<defs>
<clipPath id="clip0">
<rect width="95.68" height="32" fill="white"/>
</clipPath>
</defs>
</svg>
