<svg width="65" height="64" viewBox="0 0 65 64" fill="none" xmlns="http://www.w3.org/2000/svg">
<path d="M64.6794 0H0.679688V64H64.6794V0Z" fill="#EB0A1E"/>
<path d="M32.7784 16.0273C19.4767 16.0273 9.22266 22.7988 9.22266 32.0273C9.22266 41.2559 19.4767 48.0273 32.7784 48.0273C46.0801 48.0273 56.3338 41.2559 56.3338 32.0273C56.3338 22.7988 46.0798 16.0273 32.7784 16.0273ZM47.1732 23.5628C47.1732 25.6811 43.7881 27.3153 38.3641 27.9708C37.8578 22.9042 36.3927 19.5708 34.5124 18.3268C40.2987 18.6865 47.1732 20.7359 47.1732 23.5619V23.5628ZM32.7784 40.6639C30.8927 40.6639 29.3515 37.7211 29.2312 32.0511C30.3627 32.1432 31.545 32.1903 32.7784 32.1922C34.0117 32.1941 35.194 32.1471 36.3252 32.0511C36.2052 37.7211 34.6635 40.6631 32.7784 40.6631V40.6639ZM32.7784 28.2836C31.6189 28.2836 30.5136 28.2488 29.4624 28.1791C29.9767 24.7871 31.2672 21.9973 32.7784 21.9973C34.2895 21.9973 35.5784 24.7871 36.0941 28.1791C35.0438 28.2465 33.9386 28.2811 32.7784 28.2828V28.2836ZM31.0481 18.3239C29.1655 19.5662 27.6992 22.8999 27.1941 27.9702C21.7684 27.3145 18.3832 25.6802 18.3832 23.5619C18.3832 20.7276 25.2584 18.6748 31.0481 18.3231V18.3239ZM13.2227 31.3988C13.2175 29.1607 13.9394 26.9814 15.2798 25.1891C15.8064 28.2256 20.2358 30.8462 27.0018 31.8028C27.0018 31.8782 26.9998 31.9519 26.9998 32.0282C26.9998 39.4316 28.7227 44.2031 31.0904 45.7085C21.0798 45.0751 13.2227 38.8756 13.2227 31.3988ZM34.4655 45.7085C36.8332 44.2031 38.5561 39.4316 38.5561 32.0282C38.5561 31.9519 38.5544 31.8782 38.5541 31.8028C45.3201 30.8448 49.7495 28.2256 50.2761 25.1891C51.6165 26.9814 52.3384 29.1607 52.3332 31.3988C52.3338 38.8756 44.4755 45.0751 34.4655 45.7071V45.7085Z" fill="white"/>
</svg>
