<svg width="64" height="64" viewBox="0 0 64 64" fill="none" xmlns="http://www.w3.org/2000/svg">
<path d="M63.2992 31.9992C63.2992 49.2992 49.2992 63.2992 31.9992 63.2992C14.6992 63.2992 0.699219 49.2992 0.699219 31.9992C0.699219 14.6992 14.6992 0.699219 31.9992 0.699219C49.2992 0.699219 63.2992 14.6992 63.2992 31.9992ZM31.9992 2.59922C15.6992 2.59922 2.59922 15.6992 2.59922 31.9992C2.59922 48.2992 15.7992 61.3992 31.9992 61.3992C48.2992 61.3992 61.3992 48.1992 61.3992 31.9992C61.3992 15.6992 48.2992 2.59922 31.9992 2.59922Z" fill="url(#paint0_linear)"/>
<path d="M32.0016 2.60156C15.7016 2.60156 2.60156 15.7016 2.60156 32.0016C2.60156 48.3016 15.8016 61.4016 32.0016 61.4016C48.3016 61.4016 61.4016 48.2016 61.4016 32.0016C61.4016 15.7016 48.3016 2.60156 32.0016 2.60156ZM32.0016 59.5016C16.8016 59.5016 4.50156 47.2016 4.50156 32.0016C4.50156 16.8016 16.8016 4.50156 32.0016 4.50156C47.2016 4.50156 59.5016 16.8016 59.5016 32.0016C59.5016 47.2016 47.2016 59.5016 32.0016 59.5016Z" fill="url(#paint1_linear)"/>
<path opacity="0.4" d="M32 63.3C49.3 63.3 63.3 49.3 63.3 32C63.3 14.7 49.3 0.7 32 0.7C14.7 0.7 0.7 14.7 0.7 32C0.7 49.3 14.7 63.3 32 63.3ZM32 0C49.6 0 64 14.4 64 32C64 49.6 49.6 64 32 64C14.4 64 0 49.6 0 32C0 14.4 14.4 0 32 0Z" fill="url(#paint2_linear)"/>
<path d="M2.19922 32.0992C2.19922 15.6992 15.4992 2.19922 31.9992 2.19922C48.4992 2.19922 61.7992 15.5992 61.7992 32.0992C61.7992 48.4992 48.4992 61.7992 31.9992 61.7992C15.4992 61.7992 2.19922 48.4992 2.19922 32.0992ZM11.4992 11.4992C6.19922 16.7992 2.89922 24.0992 2.89922 32.0992C2.89922 40.0992 6.19922 47.3992 11.3992 52.5992C16.6992 57.7992 23.9992 61.0992 31.9992 61.0992C39.9992 61.0992 47.2992 57.8992 52.4992 52.5992C57.7992 47.3992 60.9992 40.0992 60.9992 32.0992C60.9992 24.0992 57.6992 16.7992 52.4992 11.4992C47.2992 6.19922 39.9992 2.89922 31.9992 2.89922C23.9992 2.89922 16.6992 6.19922 11.4992 11.4992Z" fill="white"/>
<path opacity="0.4" d="M31.9984 59.5984C24.5984 59.5984 17.6984 56.6984 12.4984 51.4984C7.29844 46.2984 4.39844 39.3984 4.39844 31.9984C4.39844 24.5984 7.29844 17.6984 12.4984 12.4984C17.6984 7.29844 24.5984 4.39844 31.9984 4.39844C39.3984 4.39844 46.2984 7.29844 51.4984 12.4984C56.6984 17.6984 59.5984 24.5984 59.5984 31.9984C59.5984 39.3984 56.6984 46.2984 51.4984 51.4984C46.2984 56.6984 39.3984 59.5984 31.9984 59.5984ZM31.9984 58.7984C39.0984 58.7984 45.8984 55.9984 50.8984 50.9984C55.9984 45.8984 58.6984 39.1984 58.6984 32.0984C58.6984 24.9984 55.8984 18.1984 50.8984 13.1984C45.7984 8.09844 39.0984 5.39844 31.9984 5.39844C24.8984 5.39844 18.0984 8.19844 13.0984 13.1984C7.99844 18.0984 5.19844 24.8984 5.19844 31.9984C5.19844 39.0984 7.99844 45.8984 12.9984 50.8984C18.0984 55.9984 24.8984 58.7984 31.9984 58.7984Z" fill="url(#paint3_linear)"/>
<path d="M56.3008 45.0016C55.8008 44.6016 36.5008 29.3016 36.5008 29.3016L32.0008 3.60156C31.7008 3.70156 31.3008 4.00156 31.1008 4.40156L27.9008 29.4016L8.00078 44.7016C8.00078 44.7016 7.60078 45.2016 7.40078 45.5016C7.30078 45.7016 7.30078 46.0016 7.30078 46.3016L31.9008 36.2016L56.5008 46.3016C56.7008 45.8016 56.5008 45.3016 56.3008 45.0016Z" fill="white"/>
<path d="M32.2 32.8016L32 37.4016L54.6 46.5016C55.4 46.9016 56 46.7016 56.6 46.3016L32.5 32.7016C32.4 32.6016 32.2 32.7016 32.2 32.8016Z" fill="#565F64"/>
<path d="M32.1992 32.8016C32.1992 32.8016 33.4992 35.1016 34.9992 36.7016C37.0992 39.0016 39.8992 40.6016 39.8992 40.6016L54.5992 46.5016C55.3992 46.9016 55.9992 46.7016 56.5992 46.3016L32.4992 32.7016C32.3992 32.6016 32.1992 32.7016 32.1992 32.8016Z" fill="url(#paint4_linear)"/>
<path d="M56.4984 45.3984C56.4984 45.2984 56.3984 45.1984 56.2984 44.9984L35.6984 29.8984L32.8984 31.6984C32.8984 31.6984 33.0984 31.7984 33.1984 31.6984C33.4984 31.5984 34.0984 31.4984 34.6984 31.6984C35.1984 31.8984 56.4984 45.4984 56.4984 45.4984C56.4984 45.4984 56.4984 45.4984 56.4984 45.3984Z" fill="#A4AAAE" fill-opacity="0.6"/>
<path d="M55.7992 44.5008L36.5992 29.3008L35.6992 29.9008L56.2992 45.1008C56.1992 44.9008 55.9992 44.7008 55.7992 44.5008Z" fill="#333E46"/>
<path d="M32.4984 31.2992C32.3984 31.3992 32.3984 31.3992 32.3984 31.3992C32.3984 31.3992 32.3984 31.5992 32.5984 31.4992C32.6984 31.3992 35.5984 29.8992 36.5984 29.2992L33.0984 5.29922C32.9984 4.39922 32.5984 3.99922 31.8984 3.69922L32.2984 31.4992L32.4984 31.2992Z" fill="#565F64"/>
<path d="M30.8016 5.29922V6.59922L28.6016 28.6992C28.6016 28.9992 28.7016 29.2992 29.0016 29.4992L30.3016 30.4992L31.2016 6.09922L31.3016 4.19922C31.0016 4.39922 30.9016 4.79922 30.8016 5.29922Z" fill="#A4AAAE" fill-opacity="0.6"/>
<path d="M29.5984 30.8984L28.3984 29.8984L8.09844 44.5984C8.09844 44.5984 7.49844 44.9984 7.39844 45.3984L8.09844 44.9984L29.3984 31.5984C29.7984 31.3984 29.8984 31.1984 29.5984 30.8984Z" fill="#A4AAAE" fill-opacity="0.6"/>
<path d="M31.7008 32.8016C31.7008 32.7016 31.6008 32.6016 31.5008 32.7016L7.30078 46.4016C7.90078 46.8016 8.50078 46.9016 9.30078 46.6016L31.9008 37.5016L31.7008 32.8016Z" fill="#565F64"/>
<path d="M32.3984 31.3984L32.4984 31.2984C32.3984 31.3984 32.3984 31.3984 32.3984 31.3984C32.3984 31.3984 32.3984 31.4984 32.4984 31.4984H32.5984C32.6984 31.3984 35.5984 29.8984 36.5984 29.2984L36.1984 26.3984L33.0984 5.29844C33.0984 4.89844 32.9984 4.59844 32.7984 4.39844C32.7984 4.39844 34.2984 24.5984 34.2984 26.7984C34.2984 29.6984 32.3984 31.3984 32.3984 31.3984Z" fill="url(#paint5_linear)"/>
<path d="M31.7008 32.8016C31.7008 32.7016 31.6008 32.6016 31.5008 32.7016L7.30078 46.4016C7.90078 46.8016 8.50078 46.9016 9.30078 46.6016L31.9008 37.5016L31.7008 32.8016Z" fill="url(#paint6_linear)" fill-opacity="0.8"/>
<path opacity="0.8" d="M9.29922 46.5L31.8992 37.4L31.6992 33C31.2992 34.2 30.5992 35.5 28.6992 36.5C27.2992 37.3 13.8992 43.9 9.09922 46.2C8.79922 46.4 8.39922 46.5 8.19922 46.6C8.59922 46.8 8.89922 46.7 9.29922 46.5Z" fill="url(#paint7_linear)"/>
<path d="M32.4984 31.2992C32.3984 31.3992 32.3984 31.3992 32.3984 31.3992C32.3984 31.3992 32.3984 31.5992 32.5984 31.4992C32.6984 31.3992 35.5984 29.8992 36.5984 29.2992L33.0984 5.29922C32.9984 4.39922 32.5984 3.99922 31.8984 3.69922L32.2984 31.4992L32.4984 31.2992Z" fill="url(#paint8_linear)"/>
<path d="M32.4984 31.2992C32.3984 31.3992 32.3984 31.3992 32.3984 31.3992C32.3984 31.3992 32.3984 31.5992 32.5984 31.4992C32.6984 31.3992 35.5984 29.8992 36.5984 29.2992L33.0984 5.29922C32.9984 4.39922 32.5984 3.99922 31.8984 3.69922L32.2984 31.4992L32.4984 31.2992Z" fill="url(#paint9_linear)"/>
<path d="M5.09922 44.4C4.39922 42.8 0.399219 35 4.79922 20H3.09922C2.19922 23 1.49922 24.8 1.09922 27.5C1.09922 27.5 0.899219 28.5 0.799219 29.6C0.699219 30.7 0.699219 31.3 0.699219 32C0.699219 38 2.19922 41.5 2.19922 41.5C3.79922 46.5 6.59922 51 10.3992 54.4C13.6992 57.3 18.7992 59.5 22.9992 60.3C22.2992 60.2 10.2992 55.1 5.09922 44.4Z" fill="url(#paint10_linear)"/>
<path d="M32.4 32.6H31.5C31.6 32.6 31.7 32.6 31.7 32.7L31.9 37.3H32L32.2 32.7C32.2 32.6 32.3 32.5 32.4 32.6Z" fill="url(#paint11_linear)"/>
<path d="M42 2.30078C52.5 6.30078 62.4 17.3008 62.4 31.2008C62.4 48.0008 49 61.7008 32 61.7008V63.3008C49 63.3008 63.3 49.3008 63.3 32.0008C63.3 18.2008 54.5 6.60078 42 2.30078Z" fill="url(#paint12_linear)"/>
<path d="M58.8 20.2016C51.8 4.10156 36 3.20156 35.1 3.10156C35.1 3.10156 35.1 3.10156 35 3.10156C47.1 5.30156 54.8 13.2016 57.5 21.5016V21.6016C58.7 24.8016 59.3 28.2016 59.4 31.9016C59.5 35.4016 58.7 39.3016 57.2 42.9016C57.1 43.4016 57 44.0016 56.9 44.0016H58.5C63.3 35.0016 61.2 25.9016 58.8 20.2016Z" fill="url(#paint13_linear)"/>
<path d="M2.19922 32.0992C2.19922 15.6992 15.4992 2.19922 31.9992 2.19922C48.4992 2.19922 61.7992 15.5992 61.7992 32.0992C61.7992 48.4992 48.4992 61.7992 31.9992 61.7992C15.4992 61.7992 2.19922 48.4992 2.19922 32.0992ZM11.4992 11.4992C6.19922 16.7992 2.89922 24.0992 2.89922 32.0992C2.89922 40.0992 6.19922 47.3992 11.3992 52.5992C16.6992 57.7992 23.9992 61.0992 31.9992 61.0992C39.9992 61.0992 47.2992 57.8992 52.4992 52.5992C57.7992 47.3992 60.9992 40.0992 60.9992 32.0992C60.9992 24.0992 57.6992 16.7992 52.4992 11.4992C47.2992 6.19922 39.9992 2.89922 31.9992 2.89922C23.9992 2.89922 16.6992 6.19922 11.4992 11.4992Z" fill="#FBFBFB"/>
<path d="M7.89844 44.7984L28.2984 30.0984C29.3984 30.6984 31.1984 31.4984 31.3984 31.4984C31.5984 31.5984 31.5984 31.3984 31.5984 31.3984L29.0984 29.2984C28.7984 29.0984 28.6984 28.7984 28.6984 28.4984L31.0984 4.39844C30.9984 4.49844 30.9984 4.69844 30.8984 4.79844C30.7984 4.99844 30.7984 5.09844 30.7984 5.29844L27.2984 29.3984L8.09844 44.4984C7.99844 44.5984 7.89844 44.6984 7.89844 44.7984Z" fill="#333F47"/>
<defs>
<linearGradient id="paint0_linear" x1="7.99922" y1="11.8992" x2="55.9992" y2="52.0992" gradientUnits="userSpaceOnUse">
<stop stop-color="white"/>
<stop offset="0.1" stop-color="#CDD0D0"/>
<stop offset="0.2" stop-color="#A5ACAF"/>
<stop offset="0.3" stop-color="#98A0A4"/>
<stop offset="0.4" stop-color="#828A8F"/>
<stop offset="0.5" stop-color="#667075"/>
<stop offset="0.6" stop-color="#535C63"/>
<stop offset="0.7" stop-color="#475158"/>
<stop offset="0.8" stop-color="#434D54"/>
<stop offset="1" stop-color="#475157"/>
</linearGradient>
<linearGradient id="paint1_linear" x1="9.50156" y1="13.1016" x2="54.5016" y2="50.9016" gradientUnits="userSpaceOnUse">
<stop stop-color="#0B1F2A"/>
<stop offset="0.2" stop-color="#333F47"/>
<stop offset="0.5" stop-color="#81898D"/>
<stop offset="0.7" stop-color="#B3B8B8"/>
<stop offset="0.8" stop-color="#DEE0DD"/>
<stop offset="1" stop-color="#FBFBFB"/>
</linearGradient>
<linearGradient id="paint2_linear" x1="42.9726" y1="62.1071" x2="21.0726" y2="1.9071" gradientUnits="userSpaceOnUse">
<stop stop-color="#E1E3E1"/>
<stop offset="0.1" stop-color="#C1C5C4"/>
<stop offset="0.3" stop-color="#9BA1A2"/>
<stop offset="0.5" stop-color="#7D8487"/>
<stop offset="0.7" stop-color="#687074" stop-opacity="0"/>
<stop offset="0.8" stop-color="#5B6469" stop-opacity="0"/>
<stop offset="1" stop-color="#576065" stop-opacity="0"/>
</linearGradient>
<linearGradient id="paint3_linear" x1="18.1984" y1="8.09844" x2="45.7984" y2="55.8984" gradientUnits="userSpaceOnUse">
<stop stop-color="#E1E3E1"/>
<stop offset="0.1" stop-color="#C1C5C4"/>
<stop offset="0.3" stop-color="#9BA1A2"/>
<stop offset="0.5" stop-color="#7D8487"/>
<stop offset="0.7" stop-color="#687074" stop-opacity="0"/>
<stop offset="0.8" stop-color="#5B6469" stop-opacity="0"/>
<stop offset="1" stop-color="#576065" stop-opacity="0"/>
</linearGradient>
<linearGradient id="paint4_linear" x1="44.4992" y1="39.4016" x2="42.7992" y2="42.2016" gradientUnits="userSpaceOnUse">
<stop stop-color="#27343C"/>
<stop offset="1" stop-color="#00111E" stop-opacity="0"/>
</linearGradient>
<linearGradient id="paint5_linear" x1="39.5984" y1="29.0984" x2="36.7984" y2="24.5984" gradientUnits="userSpaceOnUse">
<stop offset="0.1" stop-color="#02131F"/>
<stop offset="0.9" stop-color="#02131F" stop-opacity="0"/>
</linearGradient>
<linearGradient id="paint6_linear" x1="32.0008" y1="36.4016" x2="27.8008" y2="37.6016" gradientUnits="userSpaceOnUse">
<stop offset="0.2" stop-color="#02131F"/>
<stop offset="0.9" stop-color="#02131F" stop-opacity="0"/>
</linearGradient>
<linearGradient id="paint7_linear" x1="20.7992" y1="41.9" x2="20.1992" y2="40.4" gradientUnits="userSpaceOnUse">
<stop stop-color="#02131F"/>
<stop offset="0.1" stop-color="#02131F"/>
<stop offset="1" stop-color="#02131F" stop-opacity="0"/>
</linearGradient>
<linearGradient id="paint8_linear" x1="35.5984" y1="17.1992" x2="32.1984" y2="17.5992" gradientUnits="userSpaceOnUse">
<stop offset="0.3" stop-color="#02131F"/>
<stop offset="0.8" stop-color="#02131F" stop-opacity="0"/>
</linearGradient>
<linearGradient id="paint9_linear" x1="35.6984" y1="17.0992" x2="33.3984" y2="17.3992" gradientUnits="userSpaceOnUse">
<stop offset="0.4" stop-color="#27343C"/>
<stop offset="1" stop-color="#3B474E" stop-opacity="0"/>
</linearGradient>
<linearGradient id="paint10_linear" x1="-0.400781" y1="32.9" x2="27.4992" y2="49" gradientUnits="userSpaceOnUse">
<stop stop-color="#25323B" stop-opacity="0"/>
<stop offset="0.1" stop-color="#27343C"/>
</linearGradient>
<linearGradient id="paint11_linear" x1="32" y1="37.4" x2="32" y2="32.6" gradientUnits="userSpaceOnUse">
<stop offset="0.3" stop-color="#A5ABAF"/>
<stop offset="1" stop-color="#A5ABAF" stop-opacity="0"/>
</linearGradient>
<linearGradient id="paint12_linear" x1="47.7" y1="2.30078" x2="47.7" y2="63.3008" gradientUnits="userSpaceOnUse">
<stop stop-color="#6B7378"/>
<stop offset="0.2" stop-color="#333F47"/>
<stop offset="0.5" stop-color="#27343C"/>
<stop offset="0.8" stop-color="#333F47"/>
<stop offset="1" stop-color="#434D54"/>
</linearGradient>
<linearGradient id="paint13_linear" x1="57.3" y1="8.10156" x2="43.8" y2="27.9016" gradientUnits="userSpaceOnUse">
<stop offset="0.7" stop-color="#49545B"/>
<stop offset="0.8" stop-color="white" stop-opacity="0"/>
</linearGradient>
</defs>
</svg>
