<svg width="64" height="64" viewBox="0 0 64 64" fill="none" xmlns="http://www.w3.org/2000/svg">
<path d="M32 0C14.3274 0 0 14.3274 0 32C0 49.6726 14.3274 64 32 64C49.6726 64 64 49.6726 64 32C64 14.3274 49.6726 0 32 0ZM61.9191 32C61.9191 48.523 48.5249 61.9191 32 61.9191C15.4751 61.9191 2.0809 48.523 2.0809 32C2.0809 15.477 15.477 2.0809 32 2.0809C48.523 2.0809 61.9191 15.477 61.9191 32Z" fill="#6F6F6F"/>
<path d="M31.9981 13.0352V14.0749C41.8801 14.0749 49.9214 22.1143 49.9214 31.9981H50.9611C50.9611 21.5258 42.4704 13.0352 31.9981 13.0352ZM31.9981 49.9214C22.1162 49.9214 14.0749 41.882 14.0749 31.9981H13.0352C13.0352 42.4704 21.5258 50.9611 31.9981 50.9611" fill="#6F6F6F"/>
<path d="M47.3234 18.4937C47.7576 18.9567 48.3835 19.7034 48.735 20.157L55.2088 16.0763C54.8855 15.6562 54.3705 15.0178 53.9851 14.5679L49.8854 17.2598L49.6054 17.4987L49.814 17.1963L51.6242 13.6084L50.3441 12.3371L46.7294 14.1348L46.4249 14.342L46.6673 14.0639L49.3798 9.99431C48.9023 9.59109 48.4437 9.22146 47.8591 8.77344L43.75 15.197C44.2707 15.5946 44.9568 16.1789 45.3948 16.5766L49.2632 14.5828L49.5114 14.4018L49.329 14.6482L47.3234 18.4937Z" fill="#6F6F6F"/>
<path d="M32.6333 10.3541L34.4021 6.41896L34.5149 6.06988L34.483 6.4339L34.6691 11.6926C35.2894 11.7505 35.9304 11.8363 36.5619 11.9409L36.2743 4.1527C35.3909 4.05562 34.5112 3.98655 33.6314 3.94922L31.8889 8.24467L31.8269 8.56389L31.7649 8.24467L30.0242 3.94922C29.1445 3.98655 28.2648 4.05562 27.3813 4.1527L27.0938 11.9409C27.7253 11.8363 28.3663 11.7523 28.9866 11.6926L29.1727 6.4339L29.1408 6.06988L29.2536 6.41896L31.0224 10.3541H32.6333Z" fill="#6F6F6F"/>
<path d="M18.3265 16.5627C19.3491 15.4931 19.928 14.2573 18.9055 13.0775C18.3491 12.4371 17.4148 12.2971 16.6404 12.6126L16.5633 12.6425L16.5878 12.5753C16.7024 12.271 16.7757 11.3003 15.943 10.6301C15.537 10.3034 15.0276 10.1821 14.5125 10.2344C13.552 10.3314 12.8133 10.9829 10.802 13.21C10.1948 13.882 9.31133 14.9424 8.78125 15.6293L14.3058 20.8339C16.1366 18.8215 16.8829 18.0729 18.3265 16.5627ZM11.1178 15.2896C12.2306 13.938 13.4129 12.7116 13.9486 12.2262C14.1178 12.0731 14.302 11.9201 14.5257 11.8603C14.8885 11.7614 15.2626 12.0171 15.3471 12.3867C15.4317 12.7582 15.1968 13.1111 14.9355 13.4023C14.3471 14.0612 12.1892 16.3032 12.1892 16.3032L11.1178 15.2896ZM13.2813 17.3281C13.2813 17.3281 15.3829 15.1216 16.069 14.4159C16.3415 14.1359 16.5163 13.966 16.7043 13.8746C16.9468 13.757 17.2118 13.7327 17.4487 13.8895C17.6818 14.0444 17.7889 14.3114 17.7306 14.5765C17.6611 14.892 17.4017 15.1925 17.1874 15.4221C16.8979 15.7301 14.4054 18.3791 14.4016 18.3828L13.2813 17.3281Z" fill="#6F6F6F"/>
<path d="M31.9981 13.0352V31.9981H13.0352C13.0352 21.5183 21.5183 13.0352 31.9981 13.0352Z" fill="#0166B1"/>
<path d="M50.963 32C50.963 42.4798 42.4798 50.963 32 50.963V32H50.963Z" fill="#0166B1"/>
</svg>
