<svg width="205" height="51" viewBox="0 0 205 51" fill="none" xmlns="http://www.w3.org/2000/svg">
<path d="M5.91687 35.9609V37.2209C5.39339 37.2471 4.86991 37.3259 4.32025 37.4571C3.79677 37.6146 3.27329 37.8246 2.77599 38.1133C2.27868 38.4021 1.8599 38.7958 1.46729 39.2683C1.07468 39.7408 0.786765 40.3182 0.551199 41.0007C0.341807 41.6832 0.210938 42.4706 0.210938 43.3631C0.210938 44.2293 0.315633 44.9905 0.525025 45.6467C0.734417 46.3029 1.02233 46.8542 1.38877 47.3004C1.7552 47.7466 2.17399 48.1141 2.67129 48.4028C3.14242 48.6916 3.6659 48.9016 4.18938 49.0591C4.73904 49.2165 5.28869 49.2953 5.83834 49.3215V50.6077H6.80678V49.3215C7.38261 49.2953 7.93226 49.2165 8.48192 49.0591C9.03157 48.9016 9.52888 48.6916 10.0262 48.4028C10.4973 48.1141 10.9423 47.7204 11.3087 47.2741C11.6751 46.8017 11.9631 46.2504 12.1724 45.5942C12.3818 44.938 12.4865 44.1768 12.4865 43.3106C12.4865 42.4444 12.3818 41.6832 12.1724 41.0269C11.9631 40.3707 11.6751 39.7933 11.3087 39.3208C10.9423 38.8483 10.5235 38.4546 10.0524 38.1396C9.58122 37.8246 9.05774 37.6146 8.50809 37.4571C7.95844 37.2996 7.40878 37.2209 6.83295 37.2209V35.9609H5.91687ZM5.89069 48.6128C5.26252 48.5603 4.68669 48.4291 4.11086 48.1929C3.56121 47.9566 3.0639 47.6416 2.61894 47.2216C2.20016 46.8017 1.8599 46.2504 1.59816 45.6205C1.36259 44.9643 1.23172 44.203 1.23172 43.3106C1.23172 42.5231 1.33642 41.8407 1.51964 41.2369C1.70285 40.6332 1.93842 40.1345 2.25251 39.7408C2.5666 39.3208 2.93303 38.9795 3.32564 38.7433C3.71825 38.4808 4.13703 38.2971 4.58199 38.1658C5.02695 38.0346 5.44573 37.9821 5.86452 37.9558V48.6128H5.89069ZM6.85913 37.9296C7.33026 37.9558 7.80139 38.0083 8.24635 38.1396C8.69131 38.2708 9.11009 38.4546 9.5027 38.7171C9.89531 38.9795 10.2356 39.3208 10.5497 39.7408C10.8376 40.1607 11.0731 40.6595 11.2564 41.2369C11.4396 41.8144 11.5181 42.5231 11.5181 43.2843C11.5181 44.1768 11.3872 44.9643 11.1255 45.6205C10.8637 46.2767 10.5235 46.8279 10.1047 47.2479C9.65975 47.6679 9.18861 48.0091 8.61279 48.2191C8.06313 48.4291 7.4873 48.5603 6.85913 48.5866V37.9296Z" fill="#00757E"/>
<path d="M14.918 36.4844V50.0812H15.7817L20.938 42.1804C21.4353 41.3929 21.9326 40.6317 22.3776 39.923C22.8225 39.188 23.2413 38.4793 23.5816 37.7968L23.6339 37.8231C23.6077 38.243 23.5816 38.6368 23.5816 39.0568C23.5554 39.4505 23.5554 39.8705 23.5554 40.3167C23.5554 40.7367 23.5292 41.2091 23.5292 41.6816C23.5292 42.1541 23.5292 42.6791 23.5292 43.2566V50.1337H24.4453V36.4844H23.5554L18.2944 44.5165C17.928 45.0677 17.5877 45.5927 17.2736 46.0914C16.9595 46.5639 16.6978 47.0364 16.4361 47.4826C16.1743 47.9288 15.9388 48.3751 15.7294 48.795L15.677 48.7425C15.7294 48.1388 15.7555 47.5613 15.7817 46.9839C15.8079 46.4064 15.8341 45.8289 15.8341 45.199C15.8341 44.5952 15.8341 43.939 15.8341 43.2303V36.4844H14.918Z" fill="#00757E"/>
<path d="M27.7188 36.4844V50.0812H28.6872V43.2828H36.1729V50.0812H37.1414V36.4844H36.1729V42.4691H28.6872V36.4844H27.7188Z" fill="#00757E"/>
<path d="M47.3737 45.304L49.075 50.055H50.0696L45.2012 36.4844H44.2852L39.3906 50.0812H40.3852L42.0604 45.3302H47.3737V45.304ZM42.3221 44.5165L43.9711 39.9492C44.1281 39.5292 44.259 39.1093 44.3637 38.7418C44.4684 38.3743 44.5731 37.9806 44.6778 37.5868H44.7301C44.7825 37.8493 44.861 38.0855 44.9133 38.348C44.9657 38.5843 45.0442 38.8468 45.1227 39.1092C45.2012 39.3717 45.3059 39.6605 45.4106 39.9755L47.0596 44.5165H42.3221Z" fill="#00757E"/>
<path d="M52.1641 36.4844V50.0812H53.1063V43.2828H60.5921V50.0812H61.5605V36.4844H60.5921V42.4691H53.1063V36.4844H52.1641Z" fill="#00757E"/>
<path d="M73.7309 48.8214C73.4692 48.9527 73.1812 49.0577 72.841 49.1627C72.5007 49.2677 72.1605 49.3202 71.794 49.3727C71.4276 49.4252 71.0611 49.4514 70.6685 49.4514C69.7524 49.4514 68.941 49.2939 68.2343 49.0314C67.5276 48.7427 66.9256 48.349 66.4283 47.824C65.931 47.299 65.5646 46.6428 65.3029 45.9078C65.0411 45.1729 64.9102 44.3329 64.9102 43.4142C64.9102 42.1018 65.1458 40.9731 65.6169 40.0544C66.0881 39.1094 66.7686 38.4007 67.6323 37.902C68.5223 37.4032 69.5692 37.1407 70.7732 37.1407C71.3491 37.1407 71.8725 37.1932 72.3437 37.2982C72.8148 37.4032 73.2336 37.5345 73.5739 37.7182L73.8879 36.9045C73.7571 36.8258 73.5477 36.747 73.2859 36.642C73.0242 36.537 72.6578 36.4583 72.239 36.4058C71.8202 36.327 71.3229 36.3008 70.7471 36.3008C69.6739 36.3008 68.7055 36.4845 67.8679 36.852C67.0303 37.2195 66.2975 37.7182 65.6955 38.3482C65.0935 38.9782 64.6485 39.7394 64.3344 40.6056C64.0203 41.4718 63.8633 42.3905 63.8633 43.4142C63.8633 44.3854 63.9942 45.2254 64.2035 45.9866C64.4391 46.7478 64.7532 47.3778 65.172 47.929C65.5908 48.4802 66.0619 48.9264 66.6116 49.2939C67.1612 49.6351 67.737 49.8976 68.3652 50.0814C68.9934 50.2651 69.6216 50.3439 70.3021 50.3439C70.8518 50.3439 71.3752 50.3176 71.8464 50.2389C72.3175 50.1601 72.7363 50.0814 73.0765 49.9764C73.443 49.8714 73.7309 49.7664 73.9665 49.6351L73.7309 48.8214Z" fill="#00757E"/>
<path d="M81.4814 36.25C80.6176 36.25 79.8324 36.4075 79.0995 36.7487C78.3667 37.0637 77.7123 37.5362 77.1626 38.1662C76.613 38.7961 76.168 39.5311 75.8539 40.4235C75.5399 41.316 75.3828 42.3135 75.3828 43.4159C75.3828 44.4921 75.5399 45.437 75.8539 46.277C76.1419 47.117 76.5606 47.8519 77.1103 48.4557C77.6338 49.0594 78.262 49.5056 78.9948 49.8206C79.7015 50.1356 80.4867 50.2931 81.3243 50.2931C81.9525 50.2931 82.5545 50.1881 83.1565 50.0043C83.7585 49.8206 84.3081 49.5318 84.8054 49.1381C85.3289 48.7706 85.7739 48.2719 86.1403 47.7207C86.5329 47.1432 86.8208 46.487 87.0302 45.7258C87.2396 44.9646 87.3705 44.0984 87.3705 43.1272C87.3705 42.0772 87.2135 41.106 86.9255 40.2661C86.6376 39.4261 86.2188 38.6911 85.6954 38.0874C85.1719 37.4837 84.5437 37.0112 83.8108 36.6962C83.078 36.3812 82.3451 36.25 81.4814 36.25ZM81.429 37.0375C82.1095 37.0375 82.7115 37.1687 83.2612 37.4049C83.7847 37.6412 84.2558 37.9562 84.6484 38.3761C85.041 38.7961 85.3813 39.2686 85.643 39.7936C85.9048 40.3186 86.088 40.8698 86.2188 41.4472C86.3497 42.0247 86.4021 42.6022 86.4021 43.2059C86.4021 43.8884 86.3235 44.5446 86.1927 45.1483C86.0618 45.7783 85.8524 46.3558 85.5645 46.8807C85.2766 47.4057 84.9363 47.8782 84.5437 48.2457C84.1511 48.6394 83.68 48.9281 83.1565 49.1644C82.633 49.3744 82.0572 49.4794 81.4028 49.5056C80.7485 49.5056 80.1727 49.4006 79.6492 49.1644C79.1257 48.9281 78.6546 48.6394 78.262 48.2457C77.8693 47.8519 77.5291 47.4057 77.2412 46.8807C76.9794 46.3558 76.77 45.8045 76.613 45.2271C76.4821 44.6233 76.4036 44.0459 76.4036 43.4159C76.4036 42.7859 76.4559 42.156 76.5868 41.526C76.7177 40.9223 76.9009 40.3448 77.1626 39.7936C77.4244 39.2686 77.7646 38.7961 78.1573 38.3761C78.5499 37.9824 79.021 37.6412 79.5707 37.4312C80.1203 37.1687 80.7485 37.0375 81.429 37.0375Z" fill="#00757E"/>
<path d="M89.7773 50.0807C90.0391 50.107 90.3793 50.107 90.772 50.1332C91.1646 50.1595 91.6095 50.1857 92.133 50.1857C93.1014 50.1857 93.939 50.0807 94.6719 49.8708C95.4048 49.6608 95.9806 49.3458 96.4255 48.8733C96.7396 48.5583 96.9752 48.1646 97.1584 47.7446C97.3416 47.3246 97.4201 46.8259 97.4463 46.2747C97.4463 45.8285 97.3678 45.4347 97.2631 45.0935C97.1322 44.7523 96.9752 44.4373 96.7658 44.1748C96.5564 43.9123 96.3208 43.7023 96.0853 43.5186C95.8235 43.3348 95.588 43.1773 95.3262 43.0723C95.0645 42.9673 94.8289 42.8623 94.5934 42.8361V42.7836C95.0383 42.6261 95.4571 42.3899 95.7974 42.1011C96.1376 41.8124 96.4255 41.4712 96.6088 41.0512C96.8181 40.6574 96.9228 40.2112 96.9228 39.7387C96.9228 39.2663 96.8443 38.8463 96.7134 38.4788C96.5826 38.1113 96.3732 37.7963 96.0853 37.5338C95.7188 37.1401 95.2477 36.8776 94.6719 36.6676C94.0961 36.4839 93.3894 36.3789 92.5518 36.3789C92.0545 36.3789 91.5572 36.4052 91.086 36.4576C90.6149 36.5101 90.1961 36.5889 89.8035 36.6676V50.0807H89.7773ZM90.7458 37.3239C90.9028 37.2714 91.1122 37.2451 91.374 37.2189C91.6357 37.1926 92.0021 37.1664 92.4471 37.1664C93.1276 37.1664 93.7296 37.2451 94.2269 37.4026C94.7504 37.5601 95.143 37.8488 95.4571 38.2163C95.745 38.61 95.9021 39.1088 95.9021 39.7387C95.9021 40.2375 95.7712 40.6837 95.5095 41.1037C95.2477 41.4974 94.8813 41.8124 94.4101 42.0486C93.939 42.2849 93.3632 42.3899 92.7088 42.4161H90.7458V37.3239ZM90.7458 43.2298H92.4471C92.9967 43.2298 93.494 43.2823 93.9914 43.4136C94.4625 43.5448 94.8813 43.7286 95.2477 43.9648C95.6141 44.201 95.9021 44.5423 96.1114 44.9097C96.3208 45.3035 96.4255 45.7497 96.4255 46.3009C96.4255 46.8784 96.3208 47.3509 96.0853 47.7709C95.8759 48.1646 95.5618 48.4796 95.1954 48.7158C94.8289 48.9521 94.384 49.1095 93.9128 49.2145C93.4417 49.3195 92.9444 49.372 92.4209 49.372C92.0545 49.372 91.7404 49.372 91.4787 49.3458C91.2169 49.3195 90.9552 49.2933 90.772 49.267V43.2298H90.7458Z" fill="#00757E"/>
<path d="M99.9336 36.4844V50.0812C100.195 50.1075 100.536 50.1075 100.954 50.1337C101.347 50.16 101.818 50.1862 102.342 50.1862C102.917 50.1862 103.493 50.1337 104.017 50.0287C104.566 49.9237 105.064 49.7662 105.509 49.5563C105.954 49.32 106.372 49.0313 106.713 48.69C107.027 48.3488 107.288 47.9551 107.472 47.4826C107.655 47.0101 107.733 46.4589 107.76 45.8552C107.76 45.094 107.629 44.464 107.341 43.939C107.079 43.414 106.713 42.9941 106.242 42.6528C105.77 42.3116 105.221 42.0754 104.619 41.9441C104.017 41.7866 103.336 41.7079 102.656 41.7341C102.551 41.7341 102.42 41.7341 102.289 41.7341C102.132 41.7341 101.975 41.7604 101.818 41.7604C101.661 41.7604 101.504 41.7866 101.347 41.7866C101.19 41.7866 101.085 41.8129 100.981 41.8391V36.4844H99.9336ZM100.902 42.5741C100.954 42.5741 101.059 42.5478 101.216 42.5478C101.373 42.5216 101.556 42.5216 101.766 42.5216C101.975 42.5216 102.237 42.4953 102.499 42.4953C103.048 42.4953 103.598 42.5478 104.095 42.6791C104.593 42.7841 105.064 42.9941 105.456 43.2566C105.849 43.519 106.163 43.8603 106.399 44.3065C106.634 44.7265 106.739 45.2515 106.739 45.8814C106.739 46.4851 106.634 47.0101 106.399 47.4564C106.189 47.9026 105.875 48.2701 105.482 48.5588C105.09 48.8475 104.645 49.0575 104.148 49.215C103.65 49.3463 103.101 49.425 102.525 49.425C102.185 49.425 101.897 49.425 101.609 49.3988C101.347 49.3725 101.111 49.3463 100.876 49.32V42.5741H100.902ZM109.409 36.4844V50.0812H110.377V36.4844H109.409Z" fill="#00757E"/>
<path d="M113.648 36.486V50.0828H114.512L119.668 42.1819C120.166 41.3945 120.663 40.6333 121.108 39.9246C121.553 39.1896 121.972 38.4809 122.312 37.7984L122.364 37.8247C122.338 38.2446 122.312 38.6384 122.312 39.0583C122.286 39.4521 122.286 39.8721 122.286 40.3183C122.286 40.7383 122.26 41.2107 122.26 41.6832C122.26 42.1557 122.26 42.6807 122.26 43.2581V50.1353H123.176V36.486H122.286L117.025 44.5181C116.658 45.0693 116.318 45.5943 116.004 46.093C115.69 46.5655 115.428 47.038 115.167 47.4842C114.905 47.9304 114.669 48.3766 114.46 48.7966L114.407 48.7441C114.46 48.1404 114.486 47.5629 114.512 46.9855C114.538 46.408 114.565 45.8305 114.565 45.2005C114.565 44.5968 114.565 43.9406 114.565 43.2319V36.486H113.648ZM116.083 33.8086C116.109 34.1761 116.187 34.5173 116.344 34.806C116.501 35.0948 116.737 35.331 117.077 35.5148C117.417 35.6985 117.836 35.7772 118.36 35.7772C118.909 35.7772 119.354 35.6723 119.695 35.5148C120.035 35.331 120.27 35.0948 120.454 34.806C120.611 34.5173 120.715 34.1761 120.742 33.8086H119.825C119.799 33.9923 119.747 34.2023 119.668 34.3861C119.59 34.5698 119.459 34.7273 119.25 34.8585C119.066 34.9898 118.779 35.0423 118.412 35.0685C118.124 35.0685 117.915 35.016 117.732 34.9373C117.548 34.8585 117.417 34.7535 117.313 34.6223C117.208 34.4911 117.13 34.3598 117.103 34.2286C117.051 34.0711 117.025 33.9398 116.999 33.8086H116.083Z" fill="#00757E"/>
<path d="M130.844 36.4844V50.0812H131.812V37.2981H138.984V50.0812H139.952V36.4844H130.844Z" fill="#00757E"/>
<path d="M150.214 45.304L151.915 50.055H152.909L148.041 36.4844H147.125L142.23 50.0812H143.225L144.9 45.3302H150.214V45.304ZM145.162 44.5165L146.811 39.9492C146.968 39.5292 147.099 39.1093 147.204 38.7418C147.308 38.3743 147.413 37.9806 147.518 37.5868H147.57C147.622 37.8493 147.701 38.0855 147.753 38.348C147.806 38.5843 147.884 38.8468 147.963 39.1092C148.041 39.3717 148.146 39.6605 148.25 39.9755L149.899 44.5165H145.162Z" fill="#00757E"/>
<path d="M155.003 50.0836H155.971V44.2826C156.207 44.3613 156.468 44.3876 156.73 44.4138C156.992 44.4401 157.306 44.4401 157.62 44.4401C158.17 44.4401 158.693 44.3876 159.191 44.2563C159.688 44.1513 160.133 43.9676 160.552 43.7576C160.944 43.5476 161.311 43.2589 161.599 42.9177C161.913 42.5764 162.148 42.1827 162.305 41.7365C162.462 41.2902 162.541 40.7653 162.541 40.1878C162.541 39.6103 162.436 39.1116 162.253 38.6654C162.07 38.2191 161.808 37.8254 161.494 37.5104C161.127 37.1429 160.63 36.8542 160.028 36.6705C159.426 36.4605 158.719 36.3817 157.908 36.3555C157.332 36.3555 156.809 36.3817 156.311 36.4342C155.814 36.4867 155.369 36.5392 154.977 36.618V50.0836H155.003ZM155.971 37.3529C156.154 37.3004 156.416 37.2742 156.73 37.2479C157.044 37.2217 157.437 37.1954 157.882 37.1954C158.432 37.1954 158.929 37.2479 159.374 37.3792C159.819 37.5104 160.211 37.6942 160.552 37.9566C160.892 38.2191 161.127 38.5341 161.311 38.9278C161.494 39.3216 161.572 39.7941 161.572 40.319C161.572 41.0277 161.415 41.6577 161.101 42.1302C160.787 42.6289 160.342 42.9964 159.766 43.2589C159.191 43.5214 158.484 43.6526 157.672 43.6526C157.332 43.6526 157.018 43.6526 156.73 43.6001C156.442 43.5739 156.181 43.5214 155.945 43.4426V37.3529H155.971Z" fill="#00757E"/>
<path d="M167.669 50.0812H168.638V37.2981H173.061V36.4844H163.246V37.2981H167.669V50.0812Z" fill="#00757E"/>
<path d="M174.449 36.4844V50.0812H175.391V43.2828H182.877V50.0812H183.846V36.4844H182.877V42.4691H175.391V36.4844H174.449Z" fill="#00757E"/>
<path d="M193.476 42.5216H188.058V37.2981H193.79V36.4844H187.09V50.0812H194.131V49.2675H188.058V43.309H193.476V42.5216Z" fill="#00757E"/>
<path d="M196.464 50.0836H197.432V44.2826C197.668 44.3613 197.929 44.3876 198.191 44.4138C198.453 44.4401 198.767 44.4401 199.081 44.4401C199.631 44.4401 200.154 44.3876 200.652 44.2563C201.149 44.1513 201.594 43.9676 202.013 43.7576C202.405 43.5476 202.772 43.2589 203.06 42.9177C203.374 42.5764 203.609 42.1827 203.766 41.7365C203.923 41.2902 204.002 40.7653 204.002 40.1878C204.002 39.6103 203.897 39.1116 203.714 38.6654C203.531 38.2191 203.269 37.8254 202.955 37.5104C202.588 37.1429 202.091 36.8542 201.489 36.6705C200.887 36.4867 200.18 36.3817 199.369 36.3555C198.793 36.3555 198.27 36.3817 197.772 36.4342C197.275 36.4867 196.83 36.5392 196.438 36.618V50.0836H196.464ZM197.432 37.3529C197.615 37.3004 197.877 37.2742 198.191 37.2479C198.505 37.2217 198.898 37.1954 199.343 37.1954C199.892 37.1954 200.39 37.2479 200.835 37.3792C201.28 37.5104 201.672 37.6942 202.013 37.9566C202.353 38.2191 202.588 38.5341 202.772 38.9278C202.955 39.3216 203.033 39.7941 203.033 40.319C203.033 41.0277 202.876 41.6577 202.562 42.1302C202.248 42.6289 201.803 42.9964 201.227 43.2589C200.652 43.5214 199.945 43.6526 199.133 43.6526C198.793 43.6526 198.479 43.6526 198.191 43.6001C197.903 43.5739 197.642 43.5214 197.406 43.4426V37.3529H197.432Z" fill="#00757E"/>
<path fill-rule="evenodd" clip-rule="evenodd" d="M4.73749 25.645C5.39184 25.75 6.22941 25.8288 7.27637 25.9075C8.32333 25.9863 9.5535 26.0125 10.9669 26.0387C12.642 26.0387 14.1339 25.9338 15.4165 25.7763C16.699 25.5925 17.7983 25.33 18.7144 24.9888C19.6305 24.6476 20.3895 24.2276 21.0177 23.7289C21.5412 23.3089 22.0123 22.8102 22.4049 22.2589C22.7975 21.7077 23.1116 21.104 23.321 20.4478C23.5304 19.7916 23.6613 19.0566 23.6613 18.2954C23.6613 17.1929 23.4257 16.2217 22.9808 15.3818C22.5358 14.5418 21.96 13.8331 21.2009 13.2556C20.4419 12.6781 19.5781 12.2582 18.5835 11.9957V11.9169C19.552 11.5494 20.3372 11.1032 20.9392 10.5257C21.5674 9.97452 22.0123 9.34455 22.3264 8.63584C22.6143 7.92712 22.7714 7.2184 22.7714 6.43094C22.7714 5.66973 22.6405 4.96101 22.3788 4.30479C22.117 3.67482 21.7506 3.09735 21.3056 2.62487C20.8607 2.12615 20.311 1.73242 19.7352 1.41743C19.1332 1.04995 18.4527 0.761213 17.746 0.551224C17.0393 0.341234 16.2279 0.183741 15.3118 0.104995C14.3957 0.0262487 13.3487 0 12.1971 0C11.4642 0 10.7575 0 10.0246 0.0262487C9.31794 0.0524975 8.61124 0.0787462 7.95689 0.131244C7.30254 0.183741 6.70054 0.236239 6.15089 0.314985C5.60123 0.367482 5.1301 0.446229 4.76366 0.524975V6.58843H0V10.9457H4.73749V15.303H0V19.6603H4.73749V25.645ZM47.3226 7.2184V25.7763H73.5489V7.2184H67.843V21.3665H63.3149V7.2184H57.6089V21.3665H53.0808V7.2184H47.3226ZM43.0824 25.75C43.03 25.4088 42.9777 24.9888 42.9253 24.5163C42.8992 24.0438 42.8468 23.5189 42.8468 22.9676C42.8206 22.4164 42.8206 21.839 42.8206 21.2352V14.8043C42.8206 13.7018 42.6898 12.6781 42.428 11.7069C42.1401 10.7357 41.6951 9.89578 41.067 9.16081C40.4388 8.42585 39.6012 7.84837 38.5543 7.42839C37.5073 7.00841 36.2248 6.79842 34.6805 6.79842C33.555 6.79842 32.5343 6.90342 31.592 7.06091C30.6759 7.2184 29.8645 7.42839 29.184 7.69088C28.4773 7.95337 27.9276 8.18961 27.4827 8.42585L28.5296 12.1532C28.9484 11.8907 29.4196 11.6544 29.9692 11.4445C30.5189 11.2345 31.1209 11.077 31.7229 10.9457C32.351 10.8145 32.9792 10.762 33.6336 10.762C34.3403 10.762 34.9161 10.8407 35.361 10.9982C35.806 11.1557 36.1463 11.3395 36.3818 11.5757C36.6174 11.8119 36.7744 12.0744 36.8791 12.3632C36.9577 12.6519 37.01 12.8881 37.01 13.1506V13.4131C35.361 13.4131 33.8953 13.5444 32.5604 13.8331C31.2256 14.1218 30.1001 14.5418 29.1316 15.1455C28.1894 15.723 27.4303 16.4842 26.933 17.3767C26.4095 18.2691 26.174 19.3191 26.1478 20.5265C26.1478 21.2615 26.2787 21.9964 26.5666 22.6527C26.8283 23.3351 27.2209 23.9389 27.7444 24.4638C28.2679 24.9888 28.8961 25.4088 29.6289 25.7238C30.3618 26.0388 31.1994 26.1962 32.1416 26.1962C33.241 26.1962 34.2617 26.0125 35.1517 25.6188C36.0416 25.225 36.8268 24.6738 37.4288 23.9126H37.5335L37.8737 25.7763H43.0824V25.75ZM37.2194 19.0041C37.2194 19.1616 37.2194 19.3453 37.1932 19.5028C37.167 19.6866 37.1409 19.844 37.1147 19.9753C36.9838 20.369 36.7744 20.7365 36.4865 21.0515C36.1986 21.3665 35.8583 21.629 35.4396 21.8127C35.047 21.9964 34.602 22.1014 34.1047 22.1014C33.6597 22.1014 33.2933 22.0227 32.953 21.8652C32.6128 21.7077 32.351 21.4715 32.1416 21.1302C31.9584 20.8153 31.8537 20.3953 31.8276 19.8965C31.8276 19.1616 32.0893 18.5579 32.5343 18.1379C33.0054 17.7179 33.6336 17.4029 34.445 17.2192C35.2563 17.0354 36.1724 16.9567 37.1932 16.9829V19.0041H37.2194ZM10.4434 4.35729C10.679 4.33104 10.9931 4.27854 11.3857 4.2523C11.7783 4.22605 12.2756 4.1998 12.9038 4.1998C14.2125 4.1998 15.2333 4.46229 15.9138 4.96101C16.6205 5.45974 16.9607 6.1947 16.9869 7.16591C16.9869 7.79588 16.8037 8.3471 16.4634 8.81958C16.1232 9.29205 15.5997 9.65954 14.893 9.92202C14.2125 10.1845 13.3487 10.3158 12.3279 10.3158H10.4434V4.35729ZM10.4434 14.4631H12.4065C13.1393 14.4631 13.7937 14.5156 14.4219 14.673C15.05 14.8043 15.5997 15.0143 16.0708 15.303C16.542 15.5918 16.9084 15.9592 17.1701 16.4317C17.4319 16.8779 17.5627 17.4292 17.5627 18.0854C17.5627 18.7679 17.4319 19.3191 17.1701 19.7916C16.9084 20.264 16.542 20.6315 16.097 20.9202C15.652 21.209 15.1286 21.419 14.5266 21.5502C13.9246 21.6815 13.3226 21.734 12.642 21.734C12.1447 21.734 11.7259 21.734 11.3595 21.734C10.9931 21.734 10.679 21.7077 10.3911 21.6552V14.4631H10.4434Z" fill="#00757E"/>
</svg>
