<?xml version="1.0" encoding="utf-8"?><svg xmlns="http://www.w3.org/2000/svg" xmlns:xlink="http://www.w3.org/1999/xlink"><symbol viewBox="0 0 36 36" id="clip-icon" xmlns="http://www.w3.org/2000/svg"><path d="M27.12 18.63l-9.27 9.285a6.375 6.375 0 01-9-9l12-12a3.855 3.855 0 015.31 0 3.78 3.78 0 010 5.31L15.81 22.56A1.146 1.146 0 1114.13 21l7.695-7.68a1.506 1.506 0 10-2.13-2.13L12 18.9a4.11 4.11 0 000 5.835 4.23 4.23 0 005.835 0l10.335-10.35a6.75 6.75 0 00-9.54-9.54l-12 12A9.375 9.375 0 0019.965 30l9.285-9.27a1.505 1.505 0 10-2.13-2.13v.03z"/></symbol><symbol viewBox="0 0 8 6" id="icon-arrow-down" xmlns="http://www.w3.org/2000/svg"><path d="M1 1.5l3 3 3-3"/></symbol><symbol viewBox="0 0 32 19" id="icon-departure" xmlns="http://www.w3.org/2000/svg"><path d="M19 .715V14h-6.156c-.446-1.72-1.992-3-3.844-3-1.852 0-3.398 1.28-3.844 3H4V9H2v7h3.156C5.602 17.72 7.148 19 9 19c1.852 0 3.398-1.281 3.844-3h8.312c.446 1.719 1.992 3 3.844 3 1.852 0 3.398-1.281 3.844-3H32V7.845l-.063-.157L27 4.5 21 1l-2-.286zM-1 1v2h11V1H-1zm22 2l5 3 4 2.125V14h-1.156c-.446-1.72-1.992-3-3.844-3-1.852 0-3.398 1.28-3.844 3H21V3zM2 5v2h6V5H2zm7 8c1.117 0 2 .883 2 2s-.883 2-2 2-2-.883-2-2 .883-2 2-2zm16 0c1.117 0 2 .883 2 2s-.883 2-2 2-2-.883-2-2 .883-2 2-2z"/></symbol><symbol viewBox="0 0 34 34" id="icon-faq" xmlns="http://www.w3.org/2000/svg"><path d="M17 33c8.837 0 16-7.163 16-16S25.837 1 17 1 1 8.163 1 17s7.163 16 16 16z"/><path d="M10 13a7 7 0 017.1-7 7.094 7.094 0 016.9 6.9 7.003 7.003 0 01-5.471 6.933A1.976 1.976 0 0017 21.77V23M17 28v-1"/></symbol><symbol viewBox="0 0 7 14" id="icon-next" xmlns="http://www.w3.org/2000/svg"><path d="M1 13l5-6-5-6"/></symbol><symbol viewBox="0 0 17 28" id="icon-play" xmlns="http://www.w3.org/2000/svg"><path opacity=".75" fill-rule="evenodd" clip-rule="evenodd" d="M2.88 26.845c-.961.868-2.482.175-2.482-1.13V2.184c0-1.306 1.52-2 2.482-1.132l12.726 11.482a1.91 1.91 0 010 2.828L2.88 26.845z"/></symbol><symbol viewBox="0 0 7 14" id="icon-prev" xmlns="http://www.w3.org/2000/svg"><path d="M6 1L1 7l5 6"/></symbol><symbol viewBox="0 0 60 60" id="icon-social-telegram" xmlns="http://www.w3.org/2000/svg"><path fill-rule="evenodd" clip-rule="evenodd" d="M30 60c16.569 0 30-13.431 30-30C60 13.431 46.569 0 30 0 13.431 0 0 13.431 0 30c0 16.569 13.431 30 30 30zm-5.5-16.25c.73 0 1.063-.325 1.466-.717L26 43l3.603-3.504 7.497 5.539c1.38.761 2.375.367 2.719-1.281l4.921-23.19c.504-2.02-.77-2.937-2.09-2.338L13.753 29.37c-1.973.791-1.961 1.892-.36 2.382l7.416 2.314 17.168-10.83c.81-.492 1.555-.228.944.314l-13.91 12.553h-.001l-.51 7.648z"/></symbol><symbol viewBox="0 0 60 60" id="icon-social-whatsapp" xmlns="http://www.w3.org/2000/svg"><path fill-rule="evenodd" clip-rule="evenodd" d="M60 30c0 16.569-13.431 30-30 30C13.431 60 0 46.569 0 30 0 13.431 13.431 0 30 0c16.569 0 30 13.431 30 30zM30.982 46.69h.007c9.835-.003 17.835-8.005 17.839-17.838a17.73 17.73 0 00-5.22-12.62A17.724 17.724 0 0030.988 11c-9.832 0-17.834 8.002-17.838 17.838a17.807 17.807 0 002.38 8.918L13 47l9.457-2.48a17.823 17.823 0 008.524 2.17z"/><path fill-rule="evenodd" clip-rule="evenodd" d="M23.435 41.61l-.541-.322-5.612 1.473 1.498-5.472-.353-.56a14.791 14.791 0 01-2.267-7.892c.003-8.174 6.655-14.825 14.833-14.825a14.726 14.726 0 0110.483 4.348 14.738 14.738 0 014.338 10.49c-.003 8.175-6.654 14.827-14.826 14.827h-.006a14.804 14.804 0 01-7.547-2.067zm15.93-8.919c.31.15.52.252.61.402.111.185.111 1.078-.26 2.12-.372 1.04-2.153 1.99-3.009 2.119-.768.114-1.74.162-2.807-.177a25.595 25.595 0 01-2.541-.939c-4.18-1.804-7.003-5.854-7.537-6.62a5.421 5.421 0 00-.078-.11l-.003-.005c-.236-.315-1.817-2.424-1.817-4.606 0-2.053 1.009-3.13 1.473-3.625l.087-.094c.409-.446.892-.558 1.189-.558.297 0 .594.003.854.016.032.002.065.002.1.001.26-.001.583-.003.903.764.123.296.303.733.492 1.195.384.934.808 1.966.882 2.115.112.223.186.483.037.78l-.062.128c-.112.228-.194.395-.383.616-.075.087-.152.181-.229.275a7.355 7.355 0 01-.44.506c-.223.223-.455.464-.195.91s1.154 1.906 2.48 3.088a11.513 11.513 0 003.29 2.08c.122.053.221.096.294.132.445.223.705.186.965-.111.26-.298 1.115-1.302 1.412-1.748.297-.446.594-.372 1.003-.223.408.149 2.6 1.227 3.045 1.45l.244.12z"/></symbol><symbol viewBox="0 0 24 25" id="icon-whatsapp" xmlns="http://www.w3.org/2000/svg"><g clip-path="url(#jclip0)"><path d="M17.742 14.943c-.295-.168-1.746-.976-2.018-1.09-.272-.115-.47-.174-.683.13-.211.301-.814.979-.996 1.18-.183.2-.36.22-.655.052-.294-.167-1.252-.533-2.362-1.636-.864-.857-1.431-1.898-1.595-2.215-.165-.318-.001-.48.155-.629.14-.134.314-.352.471-.527.156-.175.211-.303.319-.506.108-.203.064-.386-.006-.545-.069-.158-.615-1.71-.843-2.342-.228-.63-.482-.537-.657-.544-.176-.007-.375-.04-.576-.048a1.087 1.087 0 00-.816.357c-.287.3-1.091 1.021-1.147 2.55-.055 1.529.969 3.047 1.112 3.26.143.213 1.955 3.526 4.966 4.889 3.013 1.362 3.029.947 3.581.916.554-.03 1.807-.683 2.084-1.398.277-.716.3-1.337.229-1.47-.07-.132-.268-.218-.563-.385zm-5.525 7.365a9.528 9.528 0 01-5.395-1.675l-3.77 1.246 1.226-3.762a10.298 10.298 0 01-1.868-5.94c0-5.587 4.4-10.13 9.807-10.13 5.409 0 9.809 4.543 9.809 10.13 0 5.586-4.4 10.131-9.809 10.131zm0-22.3C5.711.008.436 5.456.436 12.178c0 2.299.618 4.449 1.691 6.283L0 24.991l6.523-2.158a11.443 11.443 0 005.694 1.514c6.508 0 11.783-5.449 11.783-12.17C24 5.457 18.725.007 12.217.007z"/></g><defs><clipPath id="jclip0"><path d="M0 0h24v25H0z"/></clipPath></defs></symbol><symbol viewBox="0 0 29 27" id="rss-icon" xmlns="http://www.w3.org/2000/svg"><path d="M14.249 17.902c-.776 0-1.533.262-2.178.754a4.398 4.398 0 00-1.444 2.007 5.06 5.06 0 00-.223 2.585 4.697 4.697 0 001.073 2.29c.548.625 1.247 1.052 2.007 1.224.76.173 1.549.084 2.265-.254.716-.339 1.329-.912 1.76-1.648.43-.735.66-1.6.66-2.485 0-1.186-.413-2.324-1.148-3.163-.735-.839-1.732-1.31-2.772-1.31zm0-5.964c-2.425.01-4.748 1.108-6.469 3.057-.243.279-.38.657-.38 1.05 0 .395.137.773.38 1.052.245.278.577.433.922.433.345 0 .676-.155.921-.433a6.553 6.553 0 012.122-1.621 5.841 5.841 0 012.504-.57c.86 0 1.71.194 2.504.57a6.555 6.555 0 012.122 1.62c.241.282.57.443.915.448.265.018.528-.058.755-.215.227-.158.406-.39.514-.668.108-.277.139-.585.09-.882a1.566 1.566 0 00-.366-.784 9.235 9.235 0 00-3-2.27 8.241 8.241 0 00-3.534-.787zm0-5.964c-3.81.012-7.464 1.737-10.167 4.801a1.527 1.527 0 00-.284.486c-.066.182-.1.376-.1.573 0 .397.138.778.384 1.058.246.281.58.439.928.439.348 0 .682-.158.928-.439 2.205-2.513 5.194-3.924 8.31-3.924 3.118 0 6.107 1.411 8.312 3.924.122.139.267.248.426.322.16.074.33.112.502.11.172.002.342-.036.501-.11.16-.074.304-.184.426-.322.123-.138.22-.303.286-.485a1.673 1.673 0 000-1.147 1.517 1.517 0 00-.286-.485c-2.703-3.064-6.356-4.79-10.166-4.8zm13.864.582c-1.82-2.079-3.981-3.727-6.36-4.852A17.521 17.521 0 0014.249 0c-2.575 0-5.125.579-7.504 1.704-2.379 1.125-4.54 2.773-6.36 4.852A1.61 1.61 0 000 7.614c0 .397.138.778.384 1.059.246.28.58.438.928.438.348 0 .682-.157.928-.438C5.425 5.04 9.745 2.999 14.249 2.999c4.504 0 8.823 2.041 12.009 5.674.121.14.266.25.425.326a1.169 1.169 0 001.005 0c.16-.076.304-.186.425-.326a1.52 1.52 0 00.287-.485 1.676 1.676 0 000-1.147 1.52 1.52 0 00-.287-.485z"/></symbol><symbol viewBox="0 0 24 24" id="share-icon" xmlns="http://www.w3.org/2000/svg"><g clip-path="url(#lclip0)"><path d="M22.234 4a3.25 3.25 0 11-6.5 0 3.25 3.25 0 016.5 0z"/><path d="M18.984 8c-2.206 0-4-1.794-4-4s1.794-4 4-4 4 1.794 4 4-1.794 4-4 4zm0-6.5a2.503 2.503 0 00-2.5 2.5c0 1.378 1.121 2.5 2.5 2.5 1.38 0 2.5-1.122 2.5-2.5s-1.12-2.5-2.5-2.5zM22.234 20a3.25 3.25 0 11-6.5 0 3.25 3.25 0 016.5 0z"/><path d="M18.984 24c-2.206 0-4-1.794-4-4s1.794-4 4-4 4 1.794 4 4-1.794 4-4 4zm0-6.5a2.503 2.503 0 00-2.5 2.5c0 1.378 1.121 2.5 2.5 2.5 1.38 0 2.5-1.122 2.5-2.5s-1.12-2.5-2.5-2.5zM8.234 12a3.25 3.25 0 11-6.5 0 3.25 3.25 0 016.5 0z"/><path d="M4.984 16c-2.206 0-4-1.794-4-4s1.794-4 4-4 4 1.794 4 4-1.794 4-4 4zm0-6.5a2.503 2.503 0 00-2.5 2.5c0 1.378 1.121 2.5 2.5 2.5 1.38 0 2.5-1.122 2.5-2.5s-1.12-2.5-2.5-2.5z"/><path d="M7.345 11.52a1.002 1.002 0 01-.496-1.87l9.28-5.29a.998.998 0 011.363.375c.273.479.105 1.09-.374 1.364l-9.279 5.29a.993.993 0 01-.494.13zM16.623 19.77a.994.994 0 01-.494-.13L6.85 14.35a1.001 1.001 0 01.99-1.739l9.28 5.29a1.001 1.001 0 01-.497 1.87z"/></g><defs><clipPath id="lclip0"><path d="M0 0h24v24H0z"/></clipPath></defs></symbol><symbol viewBox="0 0 30 30" id="smile-icon" xmlns="http://www.w3.org/2000/svg"><path d="M18.54 18.345a5.64 5.64 0 01-7.08 0 1.502 1.502 0 10-1.92 2.31 8.52 8.52 0 0010.92 0 1.502 1.502 0 10-1.92-2.31zM10.5 13.5a1.5 1.5 0 100-3 1.5 1.5 0 000 3zm9-3a1.5 1.5 0 100 3 1.5 1.5 0 000-3zM15 0a15 15 0 100 30 15 15 0 000-30zm0 27a12 12 0 110-24 12 12 0 010 24z"/></symbol></svg>